%FSLAX35Y35*%
%MOIN*%
G04 EasyPC Gerber Version 18.0.9 Build 3640 *
%ADD74C,0.00394*%
%ADD10C,0.00500*%
X0Y0D02*
D02*
D10*
X1450Y23050D02*
Y26850D01*
X11050*
Y23050*
X1450*
X5650Y28350D02*
Y30250D01*
X9650*
Y28350*
X5650*
X5750Y31850D02*
Y33750D01*
X9750*
Y31850*
X5750*
X5800Y34900D02*
Y40200D01*
X18100*
Y34900*
X5800*
X12050Y33250D02*
X14850D01*
Y27250*
X12050*
Y33250*
X13050Y26050D02*
X14950D01*
Y22050*
X13050*
Y26050*
X17650Y32550D02*
X19550D01*
Y28550*
X17650*
Y32550*
X19650Y15650D02*
X17750D01*
Y19650*
X19650*
Y15650*
X20050Y14850D02*
X21950D01*
Y10850*
X20050*
Y14850*
X20250Y20650D02*
Y23450D01*
X26250*
Y20650*
X20250*
X21650Y5350D02*
Y8150D01*
X27650*
Y5350*
X21650*
X21750Y17550D02*
Y19450D01*
X25750*
Y17550*
X21750*
X23450Y15350D02*
X26250D01*
Y9350*
X23450*
Y15350*
X23950Y40150D02*
Y38250D01*
X19950*
Y40150*
X23950*
X28450Y14650D02*
X32250D01*
Y5050*
X28450*
Y14650*
X32350Y16050D02*
X30450D01*
Y20050*
X32350*
Y16050*
X33700Y17400D02*
X39000D01*
Y5100*
X33700*
Y17400*
X36003Y39956D02*
Y28538D01*
X29704*
Y39956*
X36003*
X38450Y20150D02*
Y18250D01*
X34450*
Y20150*
X38450*
X39500Y26600D02*
Y21300D01*
X27200*
Y26600*
X39500*
D02*
D74*
X1376Y3002D02*
X2001D01*
X1689D02*
Y4876D01*
X1376Y4564*
X4813Y3002D02*
X3563D01*
X4657Y4095*
X4813Y4408*
X4657Y4720*
X4344Y4876*
X3876*
X3563Y4720*
X3494Y20324D02*
X2244D01*
X3338Y21418*
X3494Y21731*
X3338Y22043*
X3026Y22199*
X2557*
X2244Y22043*
X10431Y3002D02*
X11056D01*
X10744D02*
Y4876D01*
X10431Y4564*
X12931Y3002D02*
X13556D01*
X13244D02*
Y4876D01*
X12931Y4564*
X12006Y20324D02*
X12631D01*
X12319D02*
Y22199D01*
X12006Y21887*
X0Y0D02*
M02*
