%FSLAX35Y35*%
%MOIN*%
G04 EasyPC Gerber Version 18.0.9 Build 3640 *
%ADD10C,0.00500*%
%ADD16C,0.00600*%
%ADD14C,0.00800*%
%ADD134C,0.01100*%
%ADD95C,0.01400*%
%ADD129C,0.01800*%
%ADD20C,0.02400*%
%ADD12C,0.02800*%
%ADD131C,0.03200*%
X0Y0D02*
D02*
D10*
X2549Y15746D02*
X4402Y17598D01*
G75*
G02X5250Y17950I848J-848*
G01*
X7650*
G75*
G02X8498Y17598J-1200*
G01*
X10346Y15750*
G75*
G02X10343Y15850I1204J98*
G01*
Y20950*
X8903Y22389*
G75*
G02X6164Y20985I-1453J-539*
G01*
G75*
G02X2549Y20926I-1814J365*
G01*
Y15746*
G36*
X4402Y17598*
G75*
G02X5250Y17950I848J-848*
G01*
X7650*
G75*
G02X8498Y17598J-1200*
G01*
X10346Y15750*
G75*
G02X10343Y15850I1204J98*
G01*
Y20950*
X8903Y22389*
G75*
G02X6164Y20985I-1453J-539*
G01*
G75*
G02X2549Y20926I-1814J365*
G01*
Y15746*
G37*
Y21774D02*
G75*
G02X4194Y23193I1800J-424D01*
G01*
X5514Y24813*
G75*
G02X6450Y25257I936J-763*
G01*
X8950*
G75*
G02X9804Y24904I0J-1207*
G01*
X12404Y22304*
G75*
G02X12757Y21450I-854J-854*
G01*
Y16350*
X13460Y15648*
G75*
G02X16100Y15250I1290J-398*
G01*
G75*
G02X15843Y14457I-1350*
G01*
X16658*
G75*
G02X16839Y15617I1292J393*
G01*
X16578Y15878*
G75*
G02X16300Y16550I672J672*
G01*
Y28650*
G75*
G02X16578Y29322I950*
G01*
X22678Y35422*
G75*
G02X23350Y35700I672J-672*
G01*
X27150*
G75*
G02X27822Y35421I0J-950*
G01*
G75*
G02X28500Y34250I-672J-1171*
G01*
G75*
G02X25877Y33800I-1350*
G01*
X23744*
X18200Y28257*
Y26689*
G75*
G02X20900Y25650I1150J-1039*
G01*
G75*
G02X20267Y24400I-1550*
G01*
G75*
G02X20900Y23150I-917J-1250*
G01*
G75*
G02X18200Y22111I-1550*
G01*
Y16944*
X18622Y16522*
G75*
G02X18900Y15850I-672J-672*
G01*
Y15809*
G75*
G02X19300Y14850I-950J-959*
G01*
G75*
G02X19292Y14699I-1350J-2*
G01*
X24043Y19450*
Y20150*
G75*
G02X24396Y21004I1207J0*
G01*
X28996Y25604*
G75*
G02X29850Y25957I854J-854*
G01*
X30069*
G75*
G02X29200Y27350I681J1393*
G01*
G75*
G02X32300I1550*
G01*
G75*
G02X31431Y25957I-1550*
G01*
X37250*
X40725Y29432*
G75*
G02X42848Y31798I2025J318*
G01*
Y40700*
G75*
G02X40802Y42848I1J2050*
G01*
X36298*
G75*
G02X36300Y42750I-2048J-98*
G01*
G75*
G02X32200I-2050*
G01*
G75*
G02X32202Y42848I2049*
G01*
X31798*
G75*
G02X31800Y42750I-2048J-98*
G01*
G75*
G02X27700I-2050*
G01*
G75*
G02X27702Y42848I2049*
G01*
X27298*
G75*
G02X27300Y42750I-2048J-98*
G01*
G75*
G02X23200I-2050*
G01*
G75*
G02X23202Y42848I2049*
G01*
X22798*
G75*
G02X22800Y42750I-2048J-98*
G01*
G75*
G02X18700I-2050*
G01*
G75*
G02X18702Y42848I2049*
G01*
X18298*
G75*
G02X18300Y42750I-2048J-98*
G01*
G75*
G02X14200I-2050*
G01*
G75*
G02X14202Y42848I2049*
G01*
X13798*
G75*
G02X13800Y42750I-2048J-98*
G01*
G75*
G02X9700I-2050*
G01*
G75*
G02X9702Y42848I2049*
G01*
X9298*
G75*
G02X9300Y42750I-2048J-98*
G01*
G75*
G02X5200I-2050*
G01*
G75*
G02X5202Y42848I2049*
G01*
X4798*
G75*
G02X2549Y40710I-2048J-98*
G01*
Y40290*
G75*
G02X4800Y38250I201J-2040*
G01*
G75*
G02X2549Y36210I-2050*
G01*
Y35790*
G75*
G02X4800Y33750I201J-2040*
G01*
G75*
G02X2549Y31710I-2050*
G01*
Y31290*
G75*
G02X4800Y29250I201J-2040*
G01*
G75*
G02X2549Y27210I-2050*
G01*
Y21774*
X16300Y20850D02*
G75*
G02X13600I-1350D01*
G01*
G75*
G02X16300I1350*
G01*
X20700Y29650D02*
G75*
G02X25200I2250D01*
G01*
G75*
G02X20700I-2250*
G01*
X23800Y24550D02*
G75*
G02X26900I1550D01*
G01*
G75*
G02X23800I-1550*
G01*
X32900Y30450D02*
G75*
G02X36000I1550D01*
G01*
G75*
G02X32900I-1550*
G01*
X12757Y20850D02*
G36*
Y16350D01*
X13460Y15648*
G75*
G02X16100Y15250I1290J-398*
G01*
G75*
G02X15843Y14457I-1350*
G01*
X16658*
G75*
G02X16839Y15617I1292J393*
G01*
X16578Y15878*
G75*
G02X16300Y16550I672J672*
G01*
Y20850*
G75*
G02X13600I-1350*
G01*
X12757*
G37*
X13600D02*
G36*
G75*
G02X16300I1350D01*
G01*
Y28650*
G75*
G02X16578Y29322I950*
G01*
X22678Y35422*
G75*
G02X23350Y35700I672J-672*
G01*
X27150*
G75*
G02X27822Y35421I0J-950*
G01*
G75*
G02X28500Y34250I-672J-1171*
G01*
G75*
G02X25877Y33800I-1350*
G01*
X23744*
X19593Y29650*
X20700*
G75*
G02X25200I2250*
G01*
X33122*
G75*
G02X32900Y30450I1328J800*
G01*
G75*
G02X36000I1550*
G01*
G75*
G02X35778Y29650I-1550*
G01*
X40702*
G75*
G02X42848Y31798I2048J100*
G01*
Y40700*
G75*
G02X40802Y42848I1J2050*
G01*
X36298*
G75*
G02X36300Y42750I-2048J-98*
G01*
G75*
G02X32200I-2050*
G01*
G75*
G02X32202Y42848I2049*
G01*
X31798*
G75*
G02X31800Y42750I-2048J-98*
G01*
G75*
G02X27700I-2050*
G01*
G75*
G02X27702Y42848I2049*
G01*
X27298*
G75*
G02X27300Y42750I-2048J-98*
G01*
G75*
G02X23200I-2050*
G01*
G75*
G02X23202Y42848I2049*
G01*
X22798*
G75*
G02X22800Y42750I-2048J-98*
G01*
G75*
G02X18700I-2050*
G01*
G75*
G02X18702Y42848I2049*
G01*
X18298*
G75*
G02X18300Y42750I-2048J-98*
G01*
G75*
G02X14200I-2050*
G01*
G75*
G02X14202Y42848I2049*
G01*
X13798*
G75*
G02X13800Y42750I-2048J-98*
G01*
G75*
G02X9700I-2050*
G01*
G75*
G02X9702Y42848I2049*
G01*
X9298*
G75*
G02X9300Y42750I-2048J-98*
G01*
G75*
G02X5200I-2050*
G01*
G75*
G02X5202Y42848I2049*
G01*
X4798*
G75*
G02X2549Y40710I-2048J-98*
G01*
Y40290*
G75*
G02X4800Y38250I201J-2040*
G01*
G75*
G02X2549Y36210I-2050*
G01*
Y35790*
G75*
G02X4800Y33750I201J-2040*
G01*
G75*
G02X2549Y31710I-2050*
G01*
Y31290*
G75*
G02X4800Y29250I201J-2040*
G01*
G75*
G02X2549Y27210I-2050*
G01*
Y21774*
G75*
G02X4194Y23193I1800J-424*
G01*
X5514Y24813*
G75*
G02X6450Y25257I936J-763*
G01*
X8950*
G75*
G02X9804Y24904I0J-1207*
G01*
X12404Y22304*
G75*
G02X12757Y21450I-854J-854*
G01*
Y20850*
X13600*
G37*
X19593Y29650D02*
G36*
X18200Y28257D01*
Y26689*
G75*
G02X20900Y25650I1150J-1039*
G01*
G75*
G02X20442Y24550I-1550*
G01*
X23800*
G75*
G02X26900I1550*
G01*
X27942*
X28996Y25604*
G75*
G02X29850Y25957I854J-854*
G01*
X30069*
G75*
G02X29200Y27350I681J1393*
G01*
G75*
G02X32300I1550*
G01*
G75*
G02X31431Y25957I-1550*
G01*
X37250*
X40725Y29432*
G75*
G02X40702Y29650I2025J319*
G01*
X35778*
G75*
G02X33122I-1328J800*
G01*
X25200*
G75*
G02X20700I-2250*
G01*
X19593*
G37*
X20442Y24550D02*
G36*
G75*
G02X20267Y24400I-1092J1100D01*
G01*
G75*
G02X20900Y23150I-917J-1250*
G01*
G75*
G02X18200Y22111I-1550*
G01*
Y16944*
X18622Y16522*
G75*
G02X18900Y15850I-672J-672*
G01*
Y15809*
G75*
G02X19300Y14850I-950J-959*
G01*
G75*
G02X19292Y14699I-1350J-2*
G01*
X24043Y19450*
Y20150*
G75*
G02X24396Y21004I1207J0*
G01*
X27942Y24550*
X26900*
G75*
G02X23800I-1550*
G01*
X20442*
G37*
X3450Y3931D02*
G75*
G02X3599Y3713I-1200J-981D01*
G01*
Y4550*
G75*
G02X3878Y5222I950*
G01*
X6757Y8100*
G75*
G02X5400Y9450I-7J1350*
G01*
G75*
G02X8100I1350*
G01*
G75*
G02Y9442I-1323J-4*
G01*
X8178Y9520*
G75*
G02X8850Y9798I672J-672*
G01*
X10558*
X6840Y13517*
G75*
G02X5896Y15550I210J1333*
G01*
X5747*
X3450Y13253*
Y3931*
G36*
G75*
G02X3599Y3713I-1200J-981*
G01*
Y4550*
G75*
G02X3878Y5222I950*
G01*
X6757Y8100*
G75*
G02X5400Y9450I-7J1350*
G01*
G75*
G02X8100I1350*
G01*
G75*
G02Y9442I-1323J-4*
G01*
X8178Y9520*
G75*
G02X8850Y9798I672J-672*
G01*
X10558*
X6840Y13517*
G75*
G02X5896Y15550I210J1333*
G01*
X5747*
X3450Y13253*
Y3931*
G37*
X5704Y2750D02*
X10200D01*
G75*
G02X14300I2050*
G01*
X14700*
G75*
G02X18800I2050*
G01*
X19200*
G75*
G02X23300I2050*
G01*
X23700*
G75*
G02X27800I2050*
G01*
X28200*
G75*
G02X28294Y3363I2050*
G01*
X23757Y7898*
X21191*
G75*
G02X21700Y6750I-1041J-1148*
G01*
G75*
G02X18600I-1550*
G01*
G75*
G02X19109Y7898I1550*
G01*
X16183*
G75*
G02X16300Y7350I-1233J-549*
G01*
G75*
G02X13600I-1350*
G01*
G75*
G02X13717Y7898I1350J0*
G01*
X9243*
X5499Y4156*
Y3010*
G75*
G02X5704Y2750I-949J-960*
G01*
G36*
X10200*
G75*
G02X14300I2050*
G01*
X14700*
G75*
G02X18800I2050*
G01*
X19200*
G75*
G02X23300I2050*
G01*
X23700*
G75*
G02X27800I2050*
G01*
X28200*
G75*
G02X28294Y3363I2050*
G01*
X23757Y7898*
X21191*
G75*
G02X21700Y6750I-1041J-1148*
G01*
G75*
G02X18600I-1550*
G01*
G75*
G02X19109Y7898I1550*
G01*
X16183*
G75*
G02X16300Y7350I-1233J-549*
G01*
G75*
G02X13600I-1350*
G01*
G75*
G02X13717Y7898I1350J0*
G01*
X9243*
X5499Y4156*
Y3010*
G75*
G02X5704Y2750I-949J-960*
G01*
G37*
X36800D02*
X36900D01*
G75*
G02X40850Y3520I2050*
G01*
G75*
G02X42848Y4798I1900J-770*
G01*
Y5202*
G75*
G02X40700Y7250I-98J2048*
G01*
G75*
G02X42848Y9298I2050*
G01*
Y9702*
G75*
G02X40700Y11750I-98J2048*
G01*
G75*
G02X42848Y13798I2050*
G01*
Y14202*
G75*
G02X40700Y16250I-98J2048*
G01*
G75*
G02X42848Y18298I2050*
G01*
Y18702*
G75*
G02X40978Y21781I-98J2048*
G01*
X39343Y20146*
G75*
G02X41300Y18650I407J-1496*
G01*
G75*
G02X38200I-1550*
G01*
G75*
G02X38254Y19057I1550J1*
G01*
X33298Y14102*
G75*
G02X32450Y13750I-848J848*
G01*
X23947*
X21297Y11100*
X24850*
G75*
G02X25522Y10822J-950*
G01*
X25839Y10504*
G75*
G02X25800Y10850I1512J346*
G01*
G75*
G02X28900I1550*
G01*
G75*
G02X27004Y9339I-1550*
G01*
X30044Y6300*
X32150*
G75*
G02X32822Y6022J-950*
G01*
X34137Y4706*
G75*
G02X36800Y2750I613J-1956*
G01*
G36*
X36900*
G75*
G02X40850Y3520I2050*
G01*
G75*
G02X42848Y4798I1900J-770*
G01*
Y5202*
G75*
G02X40700Y7250I-98J2048*
G01*
G75*
G02X42848Y9298I2050*
G01*
Y9702*
G75*
G02X40700Y11750I-98J2048*
G01*
G75*
G02X42848Y13798I2050*
G01*
Y14202*
G75*
G02X40700Y16250I-98J2048*
G01*
G75*
G02X42848Y18298I2050*
G01*
Y18702*
G75*
G02X40978Y21781I-98J2048*
G01*
X39343Y20146*
G75*
G02X41300Y18650I407J-1496*
G01*
G75*
G02X38200I-1550*
G01*
G75*
G02X38254Y19057I1550J1*
G01*
X33298Y14102*
G75*
G02X32450Y13750I-848J848*
G01*
X23947*
X21297Y11100*
X24850*
G75*
G02X25522Y10822J-950*
G01*
X25839Y10504*
G75*
G02X25800Y10850I1512J346*
G01*
G75*
G02X28900I1550*
G01*
G75*
G02X27004Y9339I-1550*
G01*
X30044Y6300*
X32150*
G75*
G02X32822Y6022J-950*
G01*
X34137Y4706*
G75*
G02X36800Y2750I613J-1956*
G01*
G37*
D02*
D12*
X2750Y29250D03*
Y33750D03*
Y38250D03*
Y42750D03*
X7250D03*
X7750Y2750D03*
X11750Y42750D03*
X12250Y2750D03*
X16250Y42750D03*
X16750Y2750D03*
X20750Y42750D03*
X21250Y2750D03*
X25250Y42750D03*
X25750Y2750D03*
X29750Y42750D03*
X30250Y2750D03*
X34250Y42750D03*
X34750Y2750D03*
X38950D03*
X42750D03*
Y7250D03*
Y11750D03*
Y16250D03*
Y20750D03*
Y25250D03*
Y29750D03*
X42850Y42750D03*
D02*
D14*
X42750Y29750D02*
X37750Y24750D01*
X29850*
X25250Y20150*
Y18950*
X19550Y13250*
X14150*
X11550Y15850*
Y21450*
X8950Y24050*
X6450*
X4250Y21350*
X4350*
D02*
D16*
X4550Y2050D02*
Y4550D01*
X8850Y8850*
X24150*
X30250Y2750*
X7050Y14850D02*
Y14650D01*
X11550Y10150*
X24850*
X29650Y5350*
X32150*
X34750Y2750*
X17950Y14850D02*
Y15850D01*
X17250Y16550*
Y28650*
X23350Y34750*
X27150*
Y34250*
D02*
D20*
X4350Y21350D03*
D02*
D95*
X4550Y2050D03*
X6750Y9450D03*
X7050Y14850D03*
X7450Y11350D03*
X11150Y28750D03*
X14750Y15250D03*
X14950Y7350D03*
Y20850D03*
X17950Y14850D03*
X22950Y11950D03*
X27150Y34250D03*
D02*
D129*
X2250Y2950D03*
X7450Y21850D03*
X7550Y18650D03*
X19250Y20850D03*
X19350Y23150D03*
Y25650D03*
X20150Y6750D03*
X25350Y24550D03*
X27350Y10850D03*
X28050Y18850D03*
X30750Y27350D03*
X34450Y30450D03*
X34550Y34850D03*
X39750Y18650D03*
D02*
D131*
X22950Y29650D03*
D02*
D134*
X42750Y25250D02*
X32450Y14950D01*
X23450*
X20050Y11550*
X12850*
X7650Y16750*
X5250*
X2250Y13750*
Y2950*
X0Y0D02*
M02*
