%FSLAX35Y35*%
%MOIN*%
G04 EasyPC Gerber Version 18.0.9 Build 3640 *
%ADD73C,0.00400*%
%ADD10C,0.00500*%
%ADD16C,0.00600*%
%ADD14C,0.00800*%
%ADD95C,0.01400*%
%ADD129C,0.01800*%
%ADD20C,0.02400*%
%ADD12C,0.02800*%
%ADD131C,0.03200*%
X0Y0D02*
D02*
D10*
X2652Y4447D02*
G75*
G02X3785Y3163I-402J-1497D01*
G01*
G75*
G02X5700Y2757I765J-1113*
G01*
G75*
G02X8629Y4602I2050J-7*
G01*
X9714Y5686*
G75*
G02X10350Y5950I637J-636*
G01*
X15777*
X17050Y7223*
Y10650*
G75*
G02X17314Y11286I900J0*
G01*
X18614Y12586*
G75*
G02X19250Y12850I637J-636*
G01*
X21944*
G75*
G02X24300Y11950I1006J-900*
G01*
G75*
G02X21944Y11050I-1350*
G01*
X19623*
X18850Y10277*
Y6850*
G75*
G02X18586Y6214I-900J0*
G01*
X17136Y4763*
G75*
G02X18798Y2652I-386J-2013*
G01*
X19202*
G75*
G02X19200Y2750I2047J98*
G01*
G75*
G02X23300I2050*
G01*
G75*
G02X23298Y2652I-2050*
G01*
X23702*
G75*
G02X24800Y4567I2048J98*
G01*
Y16357*
X20739Y20418*
G75*
G02X18400Y19554I-1489J432*
G01*
Y17450*
G75*
G02X18122Y16778I-950*
G01*
X17446Y16102*
G75*
G02X19300Y14850I504J-1252*
G01*
G75*
G02X17070Y13826I-1350*
G01*
X15900Y12657*
Y8309*
G75*
G02X16300Y7350I-950J-959*
G01*
G75*
G02X13600I-1350*
G01*
G75*
G02X14000Y8309I1350*
G01*
Y13050*
G75*
G02X14278Y13722I950*
G01*
X14483Y13927*
G75*
G02X13800Y16209I267J1323*
G01*
Y16750*
G75*
G02X14078Y17422I950*
G01*
X15400Y18744*
Y29450*
G75*
G02X15673Y30117I950*
G01*
X26605Y41212*
G75*
G02X24532Y40830I-1355J1538*
G01*
X14100Y30398*
Y24850*
G75*
G02X13851Y24249I-850J0*
G01*
X9251Y19649*
G75*
G02X8887Y19434I-600J601*
G01*
G75*
G02X9100Y18650I-1337J-783*
G01*
G75*
G02X6000I-1550*
G01*
G75*
G02X6001Y18699I1554J-1*
G01*
X4600Y17298*
Y12802*
X6101Y11301*
G75*
G02X6100Y11350I1350J46*
G01*
G75*
G02X8800I1350*
G01*
G75*
G02X7938Y10091I-1350*
G01*
G75*
G02X8100Y9450I-1188J-642*
G01*
G75*
G02X5400I-1350*
G01*
G75*
G02X5407Y9591I1350J-1*
G01*
X3149Y11849*
G75*
G02X2900Y12450I601J601*
G01*
Y17650*
G75*
G02X3149Y18251I850J0*
G01*
X4398Y19501*
G75*
G02X2652Y20617I-49J1849*
G01*
Y4447*
X5700Y14850D02*
G75*
G02X8400I1350D01*
G01*
G75*
G02X5700I-1350*
G01*
X4600D02*
G36*
Y12802D01*
X6101Y11301*
G75*
G02Y11350I1350J24*
G01*
G75*
G02X8800I1350*
G01*
G75*
G02X7938Y10091I-1350*
G01*
G75*
G02X8100Y9450I-1188J-642*
G01*
G75*
G02X5400I-1350*
G01*
G75*
G02X5407Y9591I1350J-1*
G01*
X3149Y11849*
G75*
G02X2900Y12450I601J601*
G01*
Y17650*
G75*
G02X3149Y18251I850J0*
G01*
X4398Y19501*
G75*
G02X2652Y20617I-49J1849*
G01*
Y4447*
G75*
G02X3785Y3163I-402J-1497*
G01*
G75*
G02X5700Y2757I765J-1113*
G01*
G75*
G02X8629Y4602I2050J-7*
G01*
X9714Y5686*
G75*
G02X10350Y5950I637J-636*
G01*
X15777*
X17050Y7223*
Y10650*
G75*
G02X17314Y11286I900J0*
G01*
X18614Y12586*
G75*
G02X19250Y12850I637J-636*
G01*
X21944*
G75*
G02X24300Y11950I1006J-900*
G01*
G75*
G02X21944Y11050I-1350*
G01*
X19623*
X18850Y10277*
Y6850*
G75*
G02X18586Y6214I-900J0*
G01*
X17136Y4763*
G75*
G02X18798Y2652I-386J-2013*
G01*
X19202*
G75*
G02X19200Y2750I2047J98*
G01*
G75*
G02X23300I2050*
G01*
G75*
G02X23298Y2652I-2050*
G01*
X23702*
G75*
G02X24800Y4567I2048J98*
G01*
Y16357*
X20739Y20418*
G75*
G02X18400Y19554I-1489J432*
G01*
Y17450*
G75*
G02X18122Y16778I-950*
G01*
X17446Y16102*
G75*
G02X19300Y14850I504J-1252*
G01*
G75*
G02X17070Y13826I-1350*
G01*
X15900Y12657*
Y8309*
G75*
G02X16300Y7350I-950J-959*
G01*
G75*
G02X13600I-1350*
G01*
G75*
G02X14000Y8309I1350*
G01*
Y13050*
G75*
G02X14278Y13722I950*
G01*
X14483Y13927*
G75*
G02X13461Y14850I267J1323*
G01*
X8400*
G75*
G02X5700I-1350*
G01*
X4600*
G37*
X5700D02*
G36*
G75*
G02X8400I1350D01*
G01*
X13461*
G75*
G02X13800Y16209I1289J400*
G01*
Y16750*
G75*
G02X14078Y17422I950*
G01*
X15400Y18744*
Y29450*
G75*
G02X15673Y30117I950*
G01*
X26605Y41212*
G75*
G02X24532Y40830I-1355J1538*
G01*
X14100Y30398*
Y24850*
G75*
G02X13851Y24249I-850J0*
G01*
X9251Y19649*
G75*
G02X8887Y19434I-600J601*
G01*
G75*
G02X9100Y18650I-1337J-783*
G01*
G75*
G02X6000I-1550*
G01*
G75*
G02Y18699I1554J24*
G01*
X4600Y17298*
Y14850*
X5700*
G37*
X2652Y22083D02*
G75*
G02X6181Y21083I1698J-733D01*
G01*
G75*
G02X6350Y21100I169J-833*
G01*
X8298*
X12400Y25202*
Y28240*
G75*
G02X9800Y28750I-1250J510*
G01*
G75*
G02X12400Y29260I1350*
G01*
Y30750*
G75*
G02X12649Y31351I850J0*
G01*
X23330Y42032*
G75*
G02X23202Y42848I1919J718*
G01*
X22798*
G75*
G02X22800Y42750I-2048J-98*
G01*
G75*
G02X18700I-2050*
G01*
G75*
G02X18702Y42848I2049*
G01*
X18298*
G75*
G02X18300Y42750I-2048J-98*
G01*
G75*
G02X14200I-2050*
G01*
G75*
G02X14202Y42848I2049*
G01*
X13798*
G75*
G02X13800Y42750I-2048J-98*
G01*
G75*
G02X9700I-2050*
G01*
G75*
G02X9702Y42848I2049*
G01*
X9298*
G75*
G02X9300Y42750I-2048J-98*
G01*
G75*
G02X5200I-2050*
G01*
G75*
G02X5202Y42848I2049*
G01*
X4798*
G75*
G02X2652Y40702I-2048J-98*
G01*
Y40298*
G75*
G02X4800Y38250I98J-2048*
G01*
G75*
G02X2652Y36202I-2050*
G01*
Y35798*
G75*
G02X4800Y33750I98J-2048*
G01*
G75*
G02X2652Y31702I-2050*
G01*
Y31298*
G75*
G02X4800Y29250I98J-2048*
G01*
G75*
G02X2652Y27202I-2050*
G01*
Y22083*
G36*
G75*
G02X6181Y21083I1698J-733*
G01*
G75*
G02X6350Y21100I169J-833*
G01*
X8298*
X12400Y25202*
Y28240*
G75*
G02X9800Y28750I-1250J510*
G01*
G75*
G02X12400Y29260I1350*
G01*
Y30750*
G75*
G02X12649Y31351I850J0*
G01*
X23330Y42032*
G75*
G02X23202Y42848I1919J718*
G01*
X22798*
G75*
G02X22800Y42750I-2048J-98*
G01*
G75*
G02X18700I-2050*
G01*
G75*
G02X18702Y42848I2049*
G01*
X18298*
G75*
G02X18300Y42750I-2048J-98*
G01*
G75*
G02X14200I-2050*
G01*
G75*
G02X14202Y42848I2049*
G01*
X13798*
G75*
G02X13800Y42750I-2048J-98*
G01*
G75*
G02X9700I-2050*
G01*
G75*
G02X9702Y42848I2049*
G01*
X9298*
G75*
G02X9300Y42750I-2048J-98*
G01*
G75*
G02X5200I-2050*
G01*
G75*
G02X5202Y42848I2049*
G01*
X4798*
G75*
G02X2652Y40702I-2048J-98*
G01*
Y40298*
G75*
G02X4800Y38250I98J-2048*
G01*
G75*
G02X2652Y36202I-2050*
G01*
Y35798*
G75*
G02X4800Y33750I98J-2048*
G01*
G75*
G02X2652Y31702I-2050*
G01*
Y31298*
G75*
G02X4800Y29250I98J-2048*
G01*
G75*
G02X2652Y27202I-2050*
G01*
Y22083*
G37*
X22950Y11950D02*
X19250D01*
X17950Y10650*
Y6850*
X16150Y5050*
X10350*
X8050Y2750*
X7750*
X27798Y2652D02*
X28202D01*
G75*
G02X28200Y2750I2047J98*
G01*
G75*
G02X32300I2050*
G01*
G75*
G02X32298Y2652I-2050*
G01*
X32702*
G75*
G02X32700Y2750I2047J98*
G01*
G75*
G02X36800I2050*
G01*
G75*
G02X36798Y2652I-2050*
G01*
X40702*
G75*
G02X42750Y4800I2048J98*
G01*
Y5200*
G75*
G02X40700Y7250J2050*
G01*
G75*
G02X42750Y9300I2050*
G01*
Y9700*
G75*
G02X40700Y11750J2050*
G01*
G75*
G02X42750Y13800I2050*
G01*
Y14200*
G75*
G02X40700Y16250J2050*
G01*
G75*
G02X42750Y18300I2050*
G01*
Y18700*
G75*
G02X40800Y20118J2050*
G01*
Y19790*
G75*
G02X41300Y18650I-1050J-1140*
G01*
G75*
G02X38200I-1550*
G01*
G75*
G02X38700Y19790I1550*
G01*
Y30515*
X37515Y31700*
X35367*
G75*
G02X35757Y29618I-916J-1250*
G01*
Y27050*
G75*
G02X35404Y26196I-1207J0*
G01*
X29257Y20050*
Y19822*
G75*
G02X29600Y18850I-1208J-972*
G01*
G75*
G02X26500I-1550*
G01*
G75*
G02X26843Y19822I1550*
G01*
Y20550*
G75*
G02X27196Y21404I1207J0*
G01*
X33343Y27550*
Y29366*
G75*
G02X32900Y30450I1107J1084*
G01*
G75*
G02X32910Y30625I1548J0*
G01*
X31136Y28851*
G75*
G02X32300Y27350I-386J-1501*
G01*
G75*
G02X29249Y26964I-1550*
G01*
X26899Y24614*
G75*
G02X26900Y24550I-1550J-61*
G01*
G75*
G02X23800I-1550*
G01*
G75*
G02X25414Y26099I1550*
G01*
X32807Y33493*
G75*
G02X33418Y33792I743J-743*
G01*
G75*
G02X33000Y34850I1132J1059*
G01*
G75*
G02X36100I1550*
G01*
G75*
G02X35690Y33800I-1550*
G01*
X37950*
G75*
G02X38693Y33493J-1050*
G01*
X40493Y31693*
G75*
G02X40800Y30950I-743J-743*
G01*
Y30382*
G75*
G02X42750Y31800I1950J-632*
G01*
Y42848*
X36298*
G75*
G02X34569Y40725I-2048J-98*
G01*
X31322Y37478*
G75*
G02X30650Y37200I-672J672*
G01*
X28144*
X18400Y27457*
Y26875*
G75*
G02X20900Y25650I950J-1225*
G01*
G75*
G02X20267Y24400I-1550*
G01*
G75*
G02X20900Y23150I-917J-1250*
G01*
G75*
G02X20888Y22956I-1549*
G01*
X26422Y17422*
G75*
G02X26700Y16750I-672J-672*
G01*
Y12257*
G75*
G02X28900Y10850I650J-1407*
G01*
G75*
G02X26700Y9443I-1550*
G01*
Y4567*
G75*
G02X27798Y2652I-950J-1817*
G01*
X25800Y34250D02*
G75*
G02X28500I1350D01*
G01*
G75*
G02X25800I-1350*
G01*
X25194D02*
G36*
X18400Y27457D01*
Y26875*
G75*
G02X20900Y25650I950J-1225*
G01*
G75*
G02X20267Y24400I-1550*
G01*
G75*
G02X20900Y23150I-917J-1250*
G01*
G75*
G02X20888Y22956I-1549*
G01*
X26422Y17422*
G75*
G02X26700Y16750I-672J-672*
G01*
Y12257*
G75*
G02X28900Y10850I650J-1407*
G01*
G75*
G02X26700Y9443I-1550*
G01*
Y4567*
G75*
G02X27798Y2652I-950J-1817*
G01*
X28202*
G75*
G02X28200Y2750I2047J98*
G01*
G75*
G02X32300I2050*
G01*
G75*
G02X32298Y2652I-2050*
G01*
X32702*
G75*
G02X32700Y2750I2047J98*
G01*
G75*
G02X36800I2050*
G01*
G75*
G02X36798Y2652I-2050*
G01*
X40702*
G75*
G02X42750Y4800I2048J98*
G01*
Y5200*
G75*
G02X40700Y7250J2050*
G01*
G75*
G02X42750Y9300I2050*
G01*
Y9700*
G75*
G02X40700Y11750J2050*
G01*
G75*
G02X42750Y13800I2050*
G01*
Y14200*
G75*
G02X40700Y16250J2050*
G01*
G75*
G02X42750Y18300I2050*
G01*
Y18700*
G75*
G02X40800Y20118J2050*
G01*
Y19790*
G75*
G02X41300Y18650I-1050J-1140*
G01*
G75*
G02X38200I-1550*
G01*
G75*
G02X38700Y19790I1550*
G01*
Y30515*
X37515Y31700*
X35367*
G75*
G02X35757Y29618I-916J-1250*
G01*
Y27050*
G75*
G02X35404Y26196I-1207J0*
G01*
X29257Y20050*
Y19822*
G75*
G02X29600Y18850I-1208J-972*
G01*
G75*
G02X26500I-1550*
G01*
G75*
G02X26843Y19822I1550*
G01*
Y20550*
G75*
G02X27196Y21404I1207J0*
G01*
X33343Y27550*
Y29366*
G75*
G02X32900Y30450I1107J1084*
G01*
G75*
G02X32910Y30625I1548J0*
G01*
X31136Y28851*
G75*
G02X32300Y27350I-386J-1501*
G01*
G75*
G02X29249Y26964I-1550*
G01*
X26899Y24614*
G75*
G02X26900Y24550I-1550J-61*
G01*
G75*
G02X23800I-1550*
G01*
G75*
G02X25414Y26099I1550*
G01*
X32807Y33493*
G75*
G02X33418Y33792I743J-743*
G01*
G75*
G02X33121Y34250I1132J1059*
G01*
X28500*
G75*
G02X25800I-1350*
G01*
X25194*
G37*
X25800D02*
G36*
G75*
G02X28500I1350D01*
G01*
X33121*
G75*
G02X33000Y34850I1429J600*
G01*
G75*
G02X36100I1550*
G01*
G75*
G02X35690Y33800I-1550*
G01*
X37950*
G75*
G02X38693Y33493J-1050*
G01*
X40493Y31693*
G75*
G02X40800Y30950I-743J-743*
G01*
Y30382*
G75*
G02X42750Y31800I1950J-632*
G01*
Y42848*
X36298*
G75*
G02X34569Y40725I-2048J-98*
G01*
X31322Y37478*
G75*
G02X30650Y37200I-672J672*
G01*
X28144*
X25194Y34250*
X25800*
G37*
D02*
D12*
X2750Y29250D03*
Y33750D03*
Y38250D03*
Y42750D03*
X7250D03*
X7750Y2750D03*
X11750Y42750D03*
X12250Y2750D03*
X16250Y42750D03*
X16750Y2750D03*
X20750Y42750D03*
X21250Y2750D03*
X25250Y42750D03*
X25750Y2750D03*
X29750Y42750D03*
X30250Y2750D03*
X34250Y42750D03*
X34750Y2750D03*
X38950D03*
X42750D03*
Y7250D03*
Y11750D03*
Y16250D03*
Y20750D03*
Y25250D03*
Y29750D03*
X42850Y42750D03*
D02*
D14*
X28050Y18850D02*
Y20550D01*
X34550Y27050*
Y30350*
X34450Y30450*
X39750Y18650D02*
Y30950D01*
X37950Y32750*
X33550*
X25350Y24550*
D02*
D16*
X14750Y15250D02*
Y16750D01*
X16350Y18350*
Y29450*
X29750Y43050*
Y42750*
X14950Y7350D02*
Y13050D01*
X16450Y14550*
Y16450*
X17450Y17450*
Y27850*
X27750Y38150*
X30650*
X34250Y41750*
Y42750*
X19350Y23150D02*
X25750Y16750D01*
Y2750*
D02*
D20*
X4350Y21350D03*
D02*
D73*
X6750Y9450D02*
X3750Y12450D01*
Y17650*
X6350Y20250*
X8650*
X13250Y24850*
Y30750*
X25250Y42750*
D02*
D95*
X4550Y2050D03*
X6750Y9450D03*
X7050Y14850D03*
X7450Y11350D03*
X11150Y28750D03*
X14750Y15250D03*
X14950Y7350D03*
Y20850D03*
X17950Y14850D03*
X22950Y11950D03*
X27150Y34250D03*
D02*
D129*
X2250Y2950D03*
X7450Y21850D03*
X7550Y18650D03*
X19250Y20850D03*
X19350Y23150D03*
Y25650D03*
X20150Y6750D03*
X25350Y24550D03*
X27350Y10850D03*
X28050Y18850D03*
X30750Y27350D03*
X34450Y30450D03*
X34550Y34850D03*
X39750Y18650D03*
D02*
D131*
X22950Y29650D03*
X0Y0D02*
M02*
