%FSLAX35Y35*%
%MOIN*%
G04 EasyPC Gerber Version 18.0.9 Build 3640 *
%ADD73C,0.00400*%
%ADD10C,0.00500*%
%ADD16C,0.00600*%
%ADD14C,0.00800*%
%ADD135C,0.01378*%
%ADD95C,0.01400*%
%ADD129C,0.01800*%
%ADD20C,0.02400*%
%ADD12C,0.02800*%
%ADD131C,0.03200*%
X0Y0D02*
D02*
D10*
X1250Y4134D02*
G75*
G02X3785Y3163I1000J-1184D01*
G01*
G75*
G02X5150Y3259I765J-1113*
G01*
G75*
G02X10313Y3422I2600J-509*
G01*
G75*
G02X10500Y3818I1937J-672*
G01*
Y4615*
X9515Y5600*
X5650*
G75*
G02X4858Y5960J1050*
G01*
X2158Y9060*
G75*
G02X1900Y9750I792J690*
G01*
Y19950*
G75*
G02X2207Y20693I1050*
G01*
X2530Y21015*
G75*
G02X2500Y21350I1820J333*
G01*
G75*
G02X5957Y22267I1850*
G01*
G75*
G02X8993Y22002I1493J-417*
G01*
G75*
G02X9843Y21747I62J-1337*
G01*
Y23520*
G75*
G02X7715Y24602I-789J1082*
G01*
G75*
G02X9741Y25751I1339*
G01*
X8701Y26791*
G75*
G02X7936Y27489I353J1155*
G01*
X3800*
G75*
G02X1250Y27853I-1050J1761*
G01*
Y4134*
G36*
G75*
G02X3785Y3163I1000J-1184*
G01*
G75*
G02X5150Y3259I765J-1113*
G01*
G75*
G02X10313Y3422I2600J-509*
G01*
G75*
G02X10500Y3818I1937J-672*
G01*
Y4615*
X9515Y5600*
X5650*
G75*
G02X4858Y5960J1050*
G01*
X2158Y9060*
G75*
G02X1900Y9750I792J690*
G01*
Y19950*
G75*
G02X2207Y20693I1050*
G01*
X2530Y21015*
G75*
G02X2500Y21350I1820J333*
G01*
G75*
G02X5957Y22267I1850*
G01*
G75*
G02X8993Y22002I1493J-417*
G01*
G75*
G02X9843Y21747I62J-1337*
G01*
Y23520*
G75*
G02X7715Y24602I-789J1082*
G01*
G75*
G02X9741Y25751I1339*
G01*
X8701Y26791*
G75*
G02X7936Y27489I353J1155*
G01*
X3800*
G75*
G02X1250Y27853I-1050J1761*
G01*
Y4134*
G37*
X4000Y13705D02*
Y10143D01*
X6128Y7700*
X7496*
G75*
G02X7233Y8189I1558J1153*
G01*
G75*
G02X5763Y10371I-483J1261*
G01*
G75*
G02X5634Y12060I1687J979*
G01*
G75*
G02X5596Y12096I810J892*
G01*
X4096Y13596*
G75*
G02X4000Y13705I856J853*
G01*
G36*
Y10143*
X6128Y7700*
X7496*
G75*
G02X7233Y8189I1558J1153*
G01*
G75*
G02X5763Y10371I-483J1261*
G01*
G75*
G02X5634Y12060I1687J979*
G01*
G75*
G02X5596Y12096I810J892*
G01*
X4096Y13596*
G75*
G02X4000Y13705I856J853*
G01*
G37*
X6157Y15863D02*
G75*
G02X8209Y14157I893J-1013D01*
G01*
X9054*
G75*
G02X9769Y13923I0J-1207*
G01*
G75*
G02X10099Y13628I-715J-1132*
G01*
Y14339*
X9049Y15389*
G75*
G02X7733Y16508I5J1339*
G01*
G75*
G02X6157Y17012I-183J2142*
G01*
Y15863*
G36*
G75*
G02X8209Y14157I893J-1013*
G01*
X9054*
G75*
G02X9769Y13923I0J-1207*
G01*
G75*
G02X10099Y13628I-715J-1132*
G01*
Y14339*
X9049Y15389*
G75*
G02X7733Y16508I5J1339*
G01*
G75*
G02X6157Y17012I-183J2142*
G01*
Y15863*
G37*
X9313Y10776D02*
G75*
G02X10099Y10487I-260J-1922D01*
G01*
Y11954*
G75*
G02X9394Y11496I-1045J837*
G01*
G75*
G02X9400Y11350I-1946J-146*
G01*
G75*
G02X9313Y10776I-1950J0*
G01*
G36*
G75*
G02X10099Y10487I-260J-1922*
G01*
Y11954*
G75*
G02X9394Y11496I-1045J837*
G01*
G75*
G02X9400Y11350I-1946J-146*
G01*
G75*
G02X9313Y10776I-1950J0*
G01*
G37*
X9556Y19424D02*
G75*
G02X9585Y17957I-2006J-774D01*
G01*
G75*
G02X10393Y16732I-531J-1229*
G01*
X11721Y15404*
G75*
G02X11999Y14732I-672J-671*
G01*
Y14457*
G75*
G02X13541Y14650I992J-1666*
G01*
G75*
G02X13416Y15458I1209J600*
G01*
G75*
G02X11743Y16244I-425J1270*
G01*
X10224Y17670*
G75*
G02X9843Y18550I826J880*
G01*
Y19583*
G75*
G02X9556Y19424I-788J1082*
G01*
G36*
G75*
G02X9585Y17957I-2006J-774*
G01*
G75*
G02X10393Y16732I-531J-1229*
G01*
X11721Y15404*
G75*
G02X11999Y14732I-672J-671*
G01*
Y14457*
G75*
G02X13541Y14650I992J-1666*
G01*
G75*
G02X13416Y15458I1209J600*
G01*
G75*
G02X11743Y16244I-425J1270*
G01*
X10224Y17670*
G75*
G02X9843Y18550I826J880*
G01*
Y19583*
G75*
G02X9556Y19424I-788J1082*
G01*
G37*
X11999Y10520D02*
G75*
G02X14930Y8854I992J-1666D01*
G01*
G75*
G02X14924Y8700I-1941J2*
G01*
G75*
G02X15633Y8515I26J-1350*
G01*
G75*
G02X17759Y9904I1295J339*
G01*
X18046*
G75*
G02X18789Y9596J-1050*
G01*
X19526Y8859*
G75*
G02X21852Y9759I1339J-5*
G01*
G75*
G02X22078Y10122I898J-309*
G01*
X22135Y10178*
G75*
G02X21061Y11467I815J1772*
G01*
G75*
G02X19526Y12791I-196J1324*
G01*
G75*
G02X21925Y13609I1339*
G01*
G75*
G02X23816Y13697I1025J-1659*
G01*
G75*
G02X26141Y12791I986J-906*
G01*
G75*
G02X25751Y11846I-1339*
G01*
Y11502*
G75*
G02X25473Y10830I-950J0*
G01*
X24835Y10193*
G75*
G02X25752Y7910I-33J-1339*
G01*
Y4800*
G75*
G02X27147Y1250I-2J-2050*
G01*
X28853*
G75*
G02X29300Y4567I1397J1500*
G01*
Y5811*
G75*
G02X29747Y6891I950J239*
G01*
X31379Y8522*
G75*
G02X33800Y9581I1297J331*
G01*
Y10057*
X32369Y11488*
G75*
G02X31337Y12791I307J1303*
G01*
G75*
G02X34015I1339*
G01*
G75*
G02X33993Y12550I-1339J-1*
G01*
X35422Y11122*
G75*
G02X35700Y10450I-672J-672*
G01*
Y9833*
G75*
G02X37928Y9108I913J-980*
G01*
X42308Y4752*
G75*
G02X44250Y4147I442J-2002*
G01*
Y5853*
G75*
G02X40794Y7863I-1500J1397*
G01*
X37109Y11547*
G75*
G02X35671Y13743I-496J1244*
G01*
X34650*
G75*
G02X33887Y14048J1107*
G01*
X32458Y15407*
G75*
G02X31337Y16728I218J1321*
G01*
G75*
G02X33985Y17012I1339*
G01*
X35093Y15957*
X35518*
G75*
G02X37557Y17678I1095J770*
G01*
X38543*
G75*
G02X38559Y19643I1207J972*
G01*
X37478*
G75*
G02X35274Y20665I-865J1022*
G01*
G75*
G02X37222Y21857I1339*
G01*
X41025*
G75*
G02X44250Y22147I1725J-1107*
G01*
Y23853*
G75*
G02X40700Y25250I-1500J1397*
G01*
G75*
G02X44250Y26647I2050*
G01*
Y28353*
G75*
G02X40700Y29750I-1500J1397*
G01*
G75*
G02X44250Y31147I2050*
G01*
Y41252*
G75*
G02X42548Y40722I-1400J1498*
G01*
X37880Y35978*
G75*
G02X36688Y35076I-1267J435*
G01*
G75*
G02X36700Y34850I-2137J-225*
G01*
G75*
G02X36656Y34415I-2150J0*
G01*
G75*
G02X38552Y32476I-43J-1939*
G01*
G75*
G02X35988Y30641I-1939*
G01*
G75*
G02X36000Y30450I-1539J-191*
G01*
G75*
G02X35998Y30378I-1550J-2*
G01*
G75*
G02X38552Y28539I615J-1839*
G01*
G75*
G02X34674I-1939*
G01*
G75*
G02X34712Y28922I1939J0*
G01*
G75*
G02X34674Y28916I-269J1529*
G01*
X33955Y28142*
G75*
G02X32343Y27242I-1279J397*
G01*
X33419Y26167*
G75*
G02X33726Y25433I-742J-743*
G01*
G75*
G02X34015Y24602I-1050J-831*
G01*
G75*
G02X31337I-1339*
G01*
G75*
G02X31457Y25157I1339J0*
G01*
X30814Y25801*
G75*
G02X29344Y26697I-64J1548*
G01*
G75*
G02X26800Y28539I-606J1842*
G01*
G75*
G02X30645Y28896I1939*
G01*
G75*
G02X31358Y28776I105J-1546*
G01*
G75*
G02X32185Y29785I1318J-237*
G01*
X32904Y30559*
G75*
G02X33096Y31205I1547J-109*
G01*
G75*
G02X31337Y32476I-420J1271*
G01*
G75*
G02X32666Y33815I1339*
G01*
G75*
G02X32400Y34850I1884J1035*
G01*
G75*
G02X32415Y35100I2148*
G01*
G75*
G02X32496Y37740I261J1313*
G01*
X33300Y38544*
Y40933*
G75*
G02X32853Y44250I950J1817*
G01*
X31147*
G75*
G02X29689Y40701I-1397J-1500*
G01*
Y37357*
G75*
G02X28014Y35287I-950J-944*
G01*
G75*
G02X28414Y33775I-864J-1037*
G01*
G75*
G02X30078Y32476I325J-1299*
G01*
G75*
G02X27400I-1339*
G01*
G75*
G02X27484Y32942I1339J-1*
G01*
G75*
G02X25852Y33879I-333J1308*
G01*
Y33307*
G75*
G02X26009Y31897I-1050J-831*
G01*
Y31350*
G75*
G02X25644Y30484I-1207*
G01*
X25169Y30023*
G75*
G02X25100Y28985I-2219J-373*
G01*
X32177Y21907*
G75*
G02X34015Y20665I499J-1243*
G01*
G75*
G02X31840Y19619I-1339*
G01*
G75*
G02X31193Y19922I95J1046*
G01*
X26870Y24245*
G75*
G02X24200Y23511I-1520J305*
G01*
G75*
G02X23607Y23807I150J1039*
G01*
X18867Y28548*
G75*
G02Y28539I-1915J-4*
G01*
G75*
G02X14989I-1939*
G01*
G75*
G02X15244Y29500I1939J0*
G01*
X13923*
G75*
G02X14019Y27681I-932J-961*
G01*
X17028Y24672*
X17812Y25456*
G75*
G02X17800Y25650I1536J194*
G01*
G75*
G02X20900I1550*
G01*
G75*
G02X20267Y24400I-1550*
G01*
G75*
G02X20718Y22421I-917J-1250*
G01*
G75*
G02X17878Y19195I-1468J-1571*
G01*
Y17672*
G75*
G02X18152Y16185I-950J-944*
G01*
G75*
G02X18061Y13505I-202J-1335*
G01*
G75*
G02X18267Y12791I-1133J-713*
G01*
G75*
G02X15589I-1339*
G01*
G75*
G02X16811Y14125I1339*
G01*
G75*
G02X16720Y15405I1138J725*
G01*
G75*
G02X15998Y15765I209J1323*
G01*
G75*
G02X14573Y13912I-1248J-515*
G01*
G75*
G02X11999Y11125I-1582J-1121*
G01*
Y10520*
X27044Y17670D02*
G75*
G02X26500Y18850I1006J1180D01*
G01*
G75*
G02X29600I1550*
G01*
G75*
G02X29557Y18486I-1549*
G01*
G75*
G02X30678Y16728I-818J-1758*
G01*
G75*
G02X26800I-1939*
G01*
G75*
G02X27044Y17670I1939*
G01*
X27459Y12396D02*
G75*
G02X27400Y12791I1280J394D01*
G01*
G75*
G02X30078I1339*
G01*
G75*
G02X28778Y11452I-1339*
G01*
G75*
G02X28754Y10193I-1428J-603*
G01*
G75*
G02X30078Y8854I-15J-1339*
G01*
G75*
G02X27400I-1339*
G01*
G75*
G02X27478Y9306I1339*
G01*
G75*
G02X25800Y10850I-128J1544*
G01*
G75*
G02X27459Y12396I1550*
G01*
X34674Y24602D02*
G75*
G02X38552I1939D01*
G01*
G75*
G02X34674I-1939*
G01*
X17949Y17594D02*
G36*
G75*
G02X18152Y16185I-1021J-867D01*
G01*
G75*
G02X18061Y13505I-202J-1335*
G01*
G75*
G02X18267Y12791I-1133J-713*
G01*
G75*
G02X15589I-1339*
G01*
G75*
G02X16811Y14125I1339*
G01*
G75*
G02X16720Y15405I1138J725*
G01*
G75*
G02X15998Y15765I209J1323*
G01*
G75*
G02X14573Y13912I-1248J-515*
G01*
G75*
G02X11999Y11125I-1582J-1121*
G01*
Y10520*
G75*
G02X14930Y8854I992J-1666*
G01*
G75*
G02X14924Y8700I-1941J2*
G01*
G75*
G02X15633Y8515I26J-1350*
G01*
G75*
G02X17759Y9904I1295J339*
G01*
X18046*
G75*
G02X18789Y9596J-1050*
G01*
X19526Y8859*
G75*
G02X21852Y9759I1339J-5*
G01*
G75*
G02X22078Y10122I898J-309*
G01*
X22135Y10178*
G75*
G02X21061Y11467I815J1772*
G01*
G75*
G02X19526Y12791I-196J1324*
G01*
G75*
G02X21925Y13609I1339*
G01*
G75*
G02X23816Y13697I1025J-1659*
G01*
G75*
G02X26141Y12791I986J-906*
G01*
G75*
G02X25751Y11846I-1339*
G01*
Y11502*
G75*
G02X25473Y10830I-950J0*
G01*
X25465Y10822*
X25800*
G75*
G02Y10850I1550J14*
G01*
G75*
G02X27459Y12396I1550*
G01*
G75*
G02X27400Y12791I1280J394*
G01*
G75*
G02X30078I1339*
G01*
G75*
G02X28778Y11452I-1339*
G01*
G75*
G02X28900Y10822I-1428J-604*
G01*
X33034*
X32369Y11488*
G75*
G02X31337Y12791I307J1303*
G01*
G75*
G02X34015I1339*
G01*
G75*
G02X33993Y12550I-1339J-1*
G01*
X35422Y11122*
G75*
G02X35700Y10450I-672J-672*
G01*
Y9833*
G75*
G02X37928Y9108I913J-980*
G01*
X42308Y4752*
G75*
G02X44250Y4147I442J-2002*
G01*
Y5853*
G75*
G02X40794Y7863I-1500J1397*
G01*
X37109Y11547*
G75*
G02X35671Y13743I-496J1244*
G01*
X34650*
G75*
G02X33887Y14048J1107*
G01*
X32458Y15407*
G75*
G02X31337Y16728I218J1321*
G01*
G75*
G02X31655Y17594I1339*
G01*
X30474*
G75*
G02X30678Y16728I-1735J-867*
G01*
G75*
G02X26800I-1939*
G01*
G75*
G02X27004Y17594I1939*
G01*
X17949*
G37*
X27004D02*
G36*
G75*
G02X27044Y17670I1735J-868D01*
G01*
G75*
G02X26500Y18850I1006J1180*
G01*
G75*
G02X29600I1550*
G01*
G75*
G02X29557Y18486I-1549*
G01*
G75*
G02X30474Y17594I-818J-1758*
G01*
X31655*
G75*
G02X33985Y17012I1021J-867*
G01*
X35093Y15957*
X35518*
G75*
G02X37557Y17678I1095J770*
G01*
X38543*
G75*
G02X38559Y19643I1207J972*
G01*
X37478*
G75*
G02X35274Y20665I-865J1022*
G01*
G75*
G02X37222Y21857I1339*
G01*
X41025*
G75*
G02X44250Y22147I1725J-1107*
G01*
Y23853*
G75*
G02X40805Y24602I-1500J1397*
G01*
X38552*
G75*
G02X34674I-1939*
G01*
X34015*
G75*
G02X31337I-1339*
G01*
G75*
G02X31457Y25157I1339J0*
G01*
X30814Y25801*
G75*
G02X29344Y26697I-64J1548*
G01*
G75*
G02X26800Y28539I-606J1842*
G01*
G75*
G02X30645Y28896I1939*
G01*
G75*
G02X31358Y28776I105J-1546*
G01*
G75*
G02X32185Y29785I1318J-237*
G01*
X32904Y30559*
G75*
G02X33096Y31205I1547J-109*
G01*
G75*
G02X31337Y32476I-420J1271*
G01*
G75*
G02X32666Y33815I1339*
G01*
G75*
G02X32400Y34850I1884J1035*
G01*
G75*
G02X32415Y35100I2148*
G01*
G75*
G02X32496Y37740I261J1313*
G01*
X33300Y38544*
Y40933*
G75*
G02X32853Y44250I950J1817*
G01*
X31147*
G75*
G02X29689Y40701I-1397J-1500*
G01*
Y37357*
G75*
G02X28014Y35287I-950J-944*
G01*
G75*
G02X28414Y33775I-864J-1037*
G01*
G75*
G02X30078Y32476I325J-1299*
G01*
G75*
G02X27400I-1339*
G01*
G75*
G02X27484Y32942I1339J-1*
G01*
G75*
G02X25852Y33879I-333J1308*
G01*
Y33307*
G75*
G02X26009Y31897I-1050J-831*
G01*
Y31350*
G75*
G02X25644Y30484I-1207*
G01*
X25169Y30023*
G75*
G02X25100Y28985I-2219J-373*
G01*
X32177Y21907*
G75*
G02X34015Y20665I499J-1243*
G01*
G75*
G02X31840Y19619I-1339*
G01*
G75*
G02X31193Y19922I95J1046*
G01*
X26870Y24245*
G75*
G02X24200Y23511I-1520J305*
G01*
G75*
G02X23607Y23807I150J1039*
G01*
X18867Y28548*
G75*
G02Y28539I-1915J-4*
G01*
G75*
G02X14989I-1939*
G01*
G75*
G02X15244Y29500I1939J0*
G01*
X13923*
G75*
G02X14019Y27681I-932J-961*
G01*
X17028Y24672*
X17812Y25456*
G75*
G02X17800Y25650I1536J194*
G01*
G75*
G02X20900I1550*
G01*
G75*
G02X20267Y24400I-1550*
G01*
G75*
G02X20718Y22421I-917J-1250*
G01*
G75*
G02X17878Y19195I-1468J-1571*
G01*
Y17672*
G75*
G02X17949Y17594I-950J-944*
G01*
X27004*
G37*
X25465Y10822D02*
G36*
X24835Y10193D01*
G75*
G02X25752Y7910I-33J-1339*
G01*
Y4800*
G75*
G02X27147Y1250I-2J-2050*
G01*
X28853*
G75*
G02X29300Y4567I1397J1500*
G01*
Y5811*
G75*
G02X29747Y6891I950J239*
G01*
X31379Y8522*
G75*
G02X33800Y9581I1297J331*
G01*
Y10057*
X33034Y10822*
X28900*
G75*
G02X28754Y10193I-1550J28*
G01*
G75*
G02X30078Y8854I-15J-1339*
G01*
G75*
G02X27400I-1339*
G01*
G75*
G02X27478Y9306I1339*
G01*
G75*
G02X25800Y10822I-129J1544*
G01*
X25465*
G37*
X34674Y24602D02*
G36*
G75*
G02X38552I1939D01*
G01*
X40805*
G75*
G02X40700Y25250I1945J648*
G01*
G75*
G02X44250Y26647I2050*
G01*
Y28353*
G75*
G02X40700Y29750I-1500J1397*
G01*
G75*
G02X44250Y31147I2050*
G01*
Y41252*
G75*
G02X42548Y40722I-1400J1498*
G01*
X37880Y35978*
G75*
G02X36688Y35076I-1267J435*
G01*
G75*
G02X36700Y34850I-2137J-225*
G01*
G75*
G02X36656Y34415I-2150J0*
G01*
G75*
G02X38552Y32476I-43J-1939*
G01*
G75*
G02X35988Y30641I-1939*
G01*
G75*
G02X36000Y30450I-1539J-191*
G01*
G75*
G02X35998Y30378I-1550J-2*
G01*
G75*
G02X38552Y28539I615J-1839*
G01*
G75*
G02X34674I-1939*
G01*
G75*
G02X34712Y28922I1939J0*
G01*
G75*
G02X34674Y28916I-269J1529*
G01*
X33955Y28142*
G75*
G02X32343Y27242I-1279J397*
G01*
X33419Y26167*
G75*
G02X33726Y25433I-742J-743*
G01*
G75*
G02X34015Y24602I-1050J-831*
G01*
X34674*
G37*
X33881Y31892D02*
G75*
G02X34741Y31972I569J-1442D01*
G01*
G75*
G02X34674Y32476I1873J504*
G01*
G75*
G02X34687Y32704I1938J1*
G01*
G75*
G02X33981Y32777I-137J2145*
G01*
G75*
G02X33881Y31892I-1305J-301*
G01*
G36*
G75*
G02X34741Y31972I569J-1442*
G01*
G75*
G02X34674Y32476I1873J504*
G01*
G75*
G02X34687Y32704I1938J1*
G01*
G75*
G02X33981Y32777I-137J2145*
G01*
G75*
G02X33881Y31892I-1305J-301*
G01*
G37*
X34441Y36997D02*
G75*
G02X35346Y36847I110J-2148D01*
G01*
G75*
G02X36158Y37672I1267J-434*
G01*
X40827Y42416*
G75*
G02X40800Y42750I2024J333*
G01*
G75*
G02X41453Y44250I2050*
G01*
X35647*
G75*
G02X35200Y40933I-1397J-1500*
G01*
Y38150*
G75*
G02X34922Y37478I-950*
G01*
X34441Y36997*
G36*
G75*
G02X35346Y36847I110J-2148*
G01*
G75*
G02X36158Y37672I1267J-434*
G01*
X40827Y42416*
G75*
G02X40800Y42750I2024J333*
G01*
G75*
G02X41453Y44250I2050*
G01*
X35647*
G75*
G02X35200Y40933I-1397J-1500*
G01*
Y38150*
G75*
G02X34922Y37478I-950*
G01*
X34441Y36997*
G37*
D02*
D12*
X2750Y29250D03*
Y33750D03*
Y38250D03*
Y42750D03*
X7250D03*
X7750Y2750D03*
X11750Y42750D03*
X12250Y2750D03*
X16250Y42750D03*
X16750Y2750D03*
X20750Y42750D03*
X21250Y2750D03*
X25250Y42750D03*
X25750Y2750D03*
X29750Y42750D03*
X30250Y2750D03*
X34250Y42750D03*
X34750Y2750D03*
X38950D03*
X42750D03*
Y7250D03*
Y11750D03*
Y16250D03*
Y20750D03*
Y25250D03*
Y29750D03*
X42850Y42750D03*
D02*
D14*
X7450Y21850D02*
X7350Y21750D01*
Y21250*
X4950Y18850*
Y14450*
X6450Y12950*
X9054*
Y12791*
Y8854D02*
Y9746D01*
X7450Y11350*
X9054Y28539D02*
X3461D01*
X2750Y29250*
X9054Y32476D02*
X4024D01*
X2750Y33750*
X9054Y32476D02*
Y32246D01*
X10750Y30550*
X18350*
X24350Y24550*
X25350*
X12250Y2750D02*
X11550D01*
Y5050*
X9950Y6650*
X5650*
X2950Y9750*
Y19950*
X4350Y21350*
X12991Y16728D02*
X12872D01*
X11050Y18550*
Y26150*
X9254Y27946*
X9054*
Y28539*
X16928Y8854D02*
X18046D01*
X20150Y6750*
X24802Y32476D02*
Y31350D01*
X24750*
X22950Y29550*
Y29650*
X24802Y36413D02*
Y32476D01*
X32676Y20665D02*
X31935D01*
X22950Y29650*
X32676Y24602D02*
Y25424D01*
X30750Y27350*
X32676Y28539D02*
Y28676D01*
X34450Y30450*
Y30313*
X36613Y36413D02*
Y36513D01*
X42850Y42750*
X36613Y36613D02*
Y36413D01*
D02*
D16*
X9054D02*
Y36446D01*
X2750Y42750*
X9054Y36646D02*
Y36413D01*
X12991Y28539D02*
Y27365D01*
X16928Y23428*
X12991Y28539D02*
Y28409D01*
Y32476D02*
Y32509D01*
X11450Y34050*
X6950*
X2750Y38250*
X12991Y36413D02*
Y37009D01*
X7250Y42750*
X16750Y2750D02*
X16150D01*
X11050Y7850*
Y14732*
X9054Y16728*
X16928D02*
Y23228D01*
X19350Y25650*
X16928Y16728D02*
Y23428D01*
Y32476D02*
X16724D01*
X14950Y34250*
Y39550*
X11750Y42750*
X16928Y36413D02*
Y42072D01*
X16250Y42750*
X20865Y32476D02*
X21276D01*
X22850Y34050*
Y40350*
X25250Y42750*
X20865Y36413D02*
Y42635D01*
X20750Y42750*
X21250Y5550D02*
Y2750D01*
X24802Y8854D02*
Y3698D01*
X25750Y2750*
X24802Y12791D02*
Y11502D01*
X22750Y9450*
Y7050*
X21250Y5550*
X28739Y36413D02*
Y41539D01*
X29750Y42750*
X29850D02*
Y42650D01*
X30250Y6050D02*
Y2750D01*
X32676Y8854D02*
Y8476D01*
X30250Y6050*
X32676Y12791D02*
Y12524D01*
X34750Y10450*
Y2750*
X32676Y16728D02*
X32772D01*
X34650Y14850*
X39650*
X42750Y11750*
X32676Y36413D02*
Y36576D01*
X34250Y38150*
Y42750*
X36613Y8854D02*
X36646D01*
X42750Y2750*
X36613Y8854D02*
X36746D01*
X36613Y12791D02*
X37209D01*
X42750Y7250*
X36613Y12791D02*
Y13150D01*
X36850*
X36613Y16728D02*
X42272D01*
X42750Y16250*
Y20750D02*
X36698D01*
X36613Y20665*
D02*
D20*
X4350Y21350D03*
D02*
D73*
X6902Y3598D02*
X5876Y4624D01*
X6950Y11350D02*
X5500D01*
X7550Y17950D02*
Y16500D01*
X7950Y11350D02*
X9400D01*
X8250Y18650D02*
X9700D01*
X8598Y3598D02*
X9624Y4624D01*
X12991Y9343D02*
Y10793D01*
Y12302D02*
Y10852D01*
Y13280D02*
Y14730D01*
X13480Y8854D02*
X14930D01*
X13480Y12791D02*
X14930D01*
X16439Y28539D02*
X14989D01*
X16928Y28050D02*
Y26600D01*
X17417Y28539D02*
X18867D01*
X19250Y20150D02*
Y18700D01*
X19950Y20850D02*
X21400D01*
X28250Y16728D02*
X26800D01*
X28250Y28539D02*
X26800D01*
X28739Y16239D02*
Y14789D01*
Y28050D02*
Y26600D01*
Y29028D02*
Y30478D01*
X29228Y16728D02*
X30678D01*
X33850Y34850D02*
X32400D01*
X34550Y34150D02*
Y32700D01*
Y35550D02*
Y37000D01*
X35250Y34850D02*
X36700D01*
X36124Y24602D02*
X34674D01*
X36124Y28539D02*
X34674D01*
X36124Y32476D02*
X34674D01*
X36613Y24113D02*
Y22663D01*
Y25091D02*
Y26541D01*
Y28050D02*
Y26600D01*
Y29028D02*
Y30478D01*
Y31987D02*
Y30537D01*
X37102Y24602D02*
X38552D01*
X37102Y28539D02*
X38552D01*
X37102Y32476D02*
X38552D01*
D02*
D95*
X4550Y2050D03*
X6750Y9450D03*
X7050Y14850D03*
X7450Y11350D03*
X11150Y28750D03*
X14750Y15250D03*
X14950Y7350D03*
Y20850D03*
X17950Y14850D03*
X22950Y11950D03*
X27150Y34250D03*
D02*
D129*
X2250Y2950D03*
X7450Y21850D03*
X7550Y18650D03*
X19250Y20850D03*
X19350Y23150D03*
Y25650D03*
X20150Y6750D03*
X25350Y24550D03*
X27350Y10850D03*
X28050Y18850D03*
X30750Y27350D03*
X34450Y30450D03*
X34550Y34850D03*
X39750Y18650D03*
D02*
D131*
X22950Y29650D03*
D02*
D135*
X9054Y8854D03*
Y12791D03*
Y16728D03*
Y20665D03*
Y24602D03*
Y28539D03*
Y32476D03*
Y36413D03*
X12991Y8854D03*
Y12791D03*
Y16728D03*
Y20665D03*
Y24602D03*
Y28539D03*
Y32476D03*
Y36413D03*
X16928Y8854D03*
Y12791D03*
Y16728D03*
Y28539D03*
Y32476D03*
Y36413D03*
X20865Y8854D03*
Y12791D03*
Y32476D03*
Y36413D03*
X24802Y8854D03*
Y12791D03*
Y32476D03*
Y36413D03*
X28739Y8854D03*
Y12791D03*
Y16728D03*
Y28539D03*
Y32476D03*
Y36413D03*
X32676Y8854D03*
Y12791D03*
Y16728D03*
Y20665D03*
Y24602D03*
Y28539D03*
Y32476D03*
Y36413D03*
X36613Y8854D03*
Y12791D03*
Y16728D03*
Y20665D03*
Y24602D03*
Y28539D03*
Y32476D03*
Y36413D03*
X0Y0D02*
M02*
