%FSLAX35Y35*%
%MOIN*%
G04 EasyPC Gerber Version 18.0.9 Build 3640 *
%ADD109R,0.00984X0.02756*%
%ADD29R,0.01000X0.01000*%
%ADD111R,0.01800X0.02000*%
%ADD108R,0.02800X0.03500*%
%ADD93R,0.03937X0.04291*%
%ADD107R,0.05500X0.06000*%
%ADD106R,0.06299X0.12992*%
%ADD96C,0.00300*%
%ADD73C,0.00400*%
%ADD10C,0.00500*%
%ADD16C,0.00600*%
%ADD85C,0.00700*%
%ADD14C,0.00800*%
%ADD84C,0.01000*%
%ADD15C,0.01200*%
%ADD95C,0.01400*%
%ADD12C,0.02800*%
%ADD105R,0.02756X0.00984*%
%ADD27R,0.01000X0.01000*%
%ADD113R,0.02000X0.01400*%
%ADD28R,0.02000X0.01800*%
%ADD112R,0.02362X0.01969*%
%ADD88R,0.03500X0.02800*%
%ADD110R,0.09370X0.06496*%
X0Y0D02*
D02*
D10*
X1250Y4290D02*
G75*
G02X4290Y1250I1500J-1540D01*
G01*
X9687*
Y5400*
X7785*
Y6100*
X7687*
Y5400*
X4388*
Y8900*
X7687*
Y8200*
X7785*
Y11900*
X10183*
X11109Y12825*
G75*
G02X11320Y14790I1160J870*
G01*
Y17778*
X10143Y18955*
X5419*
Y21350*
X3816*
Y21136*
X4817*
Y16136*
X1250*
Y4290*
G36*
G75*
G02X4290Y1250I1500J-1540*
G01*
X9687*
Y5400*
X7785*
Y6100*
X7687*
Y5400*
X4388*
Y8900*
X7687*
Y8200*
X7785*
Y11900*
X10183*
X11109Y12825*
G75*
G02X11320Y14790I1160J870*
G01*
Y17778*
X10143Y18955*
X5419*
Y21350*
X3816*
Y21136*
X4817*
Y16136*
X1250*
Y4290*
G37*
Y34142D02*
X5876D01*
Y28350*
X4407*
G75*
G02X4416Y27142I-1313J-614*
G01*
X4426*
X4448Y27163*
G75*
G02X5261Y27500I813J-813*
G01*
X6285*
Y27600*
X6587*
Y28841*
X6285*
Y33841*
X10293*
Y38501*
G75*
G02X7759Y39574I-728J1809*
G01*
X6969*
X5884Y38467*
Y34309*
X1250*
Y34142*
G36*
X5876*
Y28350*
X4407*
G75*
G02X4416Y27142I-1313J-614*
G01*
X4426*
X4448Y27163*
G75*
G02X5261Y27500I813J-813*
G01*
X6285*
Y27600*
X6587*
Y28841*
X6285*
Y33841*
X10293*
Y38501*
G75*
G02X7759Y39574I-728J1809*
G01*
X6969*
X5884Y38467*
Y34309*
X1250*
Y34142*
G37*
Y49805D02*
X3325D01*
Y47305*
X3075*
Y47100*
X5200*
G75*
G02X7728Y49846I2050J650*
G01*
G75*
G02X7873Y50203I1868J-556*
G01*
X1250*
Y49805*
G36*
X3325*
Y47305*
X3075*
Y47100*
X5200*
G75*
G02X7728Y49846I2050J650*
G01*
G75*
G02X7873Y50203I1868J-556*
G01*
X1250*
Y49805*
G37*
X3167Y37206D02*
Y37273D01*
X6525Y40631*
X7805*
X12005Y44831*
X15156*
X17637Y42350*
X19256*
X8785Y26045D02*
X8830Y26000D01*
X10437*
G75*
G02X11108Y25722J-950*
G01*
X11112Y25719*
G75*
G02X11558Y26520I1425J-268*
G01*
G75*
G02X10775Y27351I578J1330*
G01*
G75*
G02X8802Y26395I-1690J973*
G01*
Y26350*
G75*
G02X8785Y26148I-1266*
G01*
Y26045*
G36*
X8830Y26000*
X10437*
G75*
G02X11108Y25722J-950*
G01*
X11112Y25719*
G75*
G02X11558Y26520I1425J-268*
G01*
G75*
G02X10775Y27351I578J1330*
G01*
G75*
G02X8802Y26395I-1690J973*
G01*
Y26350*
G75*
G02X8785Y26148I-1266*
G01*
Y26045*
G37*
X11087Y5400D02*
X14194D01*
X13982Y5611*
G75*
G02X13702Y6289I677J677*
G01*
Y9076*
X13365Y9395*
G75*
G02X11157Y9904I-900J1137*
G01*
X11087Y9834*
Y5400*
G36*
X14194*
X13982Y5611*
G75*
G02X13702Y6289I677J677*
G01*
Y9076*
X13365Y9395*
G75*
G02X11157Y9904I-900J1137*
G01*
X11087Y9834*
Y5400*
G37*
X11319Y50203D02*
G75*
G02X11454Y49880I-1723J-912D01*
G01*
G75*
G02X13394Y46365I296J-2130*
G01*
X14590*
G75*
G02X14084Y47750I1644J1385*
G01*
G75*
G02X18384I2150*
G01*
G75*
G02X18110Y46700I-2150*
G01*
X18874*
G75*
G02X18600Y47750I1876J1050*
G01*
G75*
G02X22900I2150*
G01*
G75*
G02X22394Y46365I-2150*
G01*
X23635*
G75*
G02X23130Y47750I1644J1385*
G01*
G75*
G02X27430I2150*
G01*
G75*
G02X27379Y47286I-2150J1*
G01*
G75*
G02X27663Y47236I-111J-1447*
G01*
G75*
G02X27600Y47750I2087J515*
G01*
G75*
G02X31900I2150*
G01*
G75*
G02X31173Y46138I-2150*
G01*
G75*
G02X31687Y45368I-886J-1148*
G01*
Y46100*
X33829*
Y47001*
G75*
G02X33479Y47844I1096J949*
G01*
G75*
G02X31846Y49165I-188J1438*
G01*
G75*
G02X31941Y49810I990J184*
G01*
G75*
G02X32172Y50203I1351J-529*
G01*
X11319*
G36*
G75*
G02X11454Y49880I-1723J-912*
G01*
G75*
G02X13394Y46365I296J-2130*
G01*
X14590*
G75*
G02X14084Y47750I1644J1385*
G01*
G75*
G02X18384I2150*
G01*
G75*
G02X18110Y46700I-2150*
G01*
X18874*
G75*
G02X18600Y47750I1876J1050*
G01*
G75*
G02X22900I2150*
G01*
G75*
G02X22394Y46365I-2150*
G01*
X23635*
G75*
G02X23130Y47750I1644J1385*
G01*
G75*
G02X27430I2150*
G01*
G75*
G02X27379Y47286I-2150J1*
G01*
G75*
G02X27663Y47236I-111J-1447*
G01*
G75*
G02X27600Y47750I2087J515*
G01*
G75*
G02X31900I2150*
G01*
G75*
G02X31173Y46138I-2150*
G01*
G75*
G02X31687Y45368I-886J-1148*
G01*
Y46100*
X33829*
Y47001*
G75*
G02X33479Y47844I1096J949*
G01*
G75*
G02X31846Y49165I-188J1438*
G01*
G75*
G02X31941Y49810I990J184*
G01*
G75*
G02X32172Y50203I1351J-529*
G01*
X11319*
G37*
X12207Y31698D02*
G75*
G02X12950Y29050I-71J-1448D01*
G01*
G75*
G02X13115Y26780I-814J-1200*
G01*
G75*
G02X13985Y25528I-578J-1330*
G01*
X14236*
Y26213*
G75*
G02X13687Y27350I900J1137*
G01*
G75*
G02X16285Y28235I1450*
G01*
Y28309*
X18785*
Y28210*
X18986*
Y28301*
X21354*
G75*
G02X21053Y29800I1608J1103*
G01*
G75*
G02X19587Y31215I-17J1450*
G01*
X17603Y33199*
X16285*
Y33400*
X15986*
Y33199*
X13486*
Y34294*
G75*
G02X12207Y34056I-976J1689*
G01*
Y31698*
G36*
G75*
G02X12950Y29050I-71J-1448*
G01*
G75*
G02X13115Y26780I-814J-1200*
G01*
G75*
G02X13985Y25528I-578J-1330*
G01*
X14236*
Y26213*
G75*
G02X13687Y27350I900J1137*
G01*
G75*
G02X16285Y28235I1450*
G01*
Y28309*
X18785*
Y28210*
X18986*
Y28301*
X21354*
G75*
G02X21053Y29800I1608J1103*
G01*
G75*
G02X19587Y31215I-17J1450*
G01*
X17603Y33199*
X16285*
Y33400*
X15986*
Y33199*
X13486*
Y34294*
G75*
G02X12207Y34056I-976J1689*
G01*
Y31698*
G37*
Y37909D02*
G75*
G02X14461Y35982I303J-1926D01*
G01*
G75*
G02X14440Y35699I-1950J1*
G01*
X15986*
Y35500*
X16285*
Y35699*
X18785*
Y34986*
X21072Y32700*
G75*
G02X22486Y31295I-35J-1450*
G01*
G75*
G02X24261Y27949I477J-1891*
G01*
G75*
G02X22809Y25914I-1324J-591*
G01*
G75*
G02X22628Y25900I-180J1135*
G01*
X22626*
Y25550*
G75*
G02X23021Y25291I-418J-1071*
G01*
X23325Y24988*
G75*
G02X23866Y22297I-189J-1438*
G01*
Y16509*
G75*
G02X26454Y15610I1138J-899*
G01*
G75*
G02X23866Y14711I-1450*
G01*
Y14575*
X22626*
Y13790*
G75*
G02X25087Y12750I1011J-1040*
G01*
G75*
G02X24437Y11541I-1450*
G01*
Y9452*
G75*
G02X25615Y9896I1313J-1702*
G01*
G75*
G02X27141Y11652I1416J311*
G01*
G75*
G02X27137Y11772I1447J117*
G01*
G75*
G02X28690Y13218I1450*
G01*
G75*
G02X29276Y13418I586J-757*
G01*
X33026*
G75*
G02X33699Y13141J-957*
G01*
X34741Y12111*
G75*
G02X35957Y9580I283J-1422*
G01*
G75*
G02X35858Y5900I-1160J-1810*
G01*
X38155*
G75*
G02X37640Y9175I1095J1850*
G01*
G75*
G02X36546Y10581I356J1406*
G01*
G75*
G02X39446I1450*
G01*
G75*
G02X39276Y9900I-1450*
G01*
G75*
G02X41179Y8700I-27J-2150*
G01*
G75*
G02X42922Y9405I1512J-1231*
G01*
X41799Y10528*
G75*
G02X40060Y11949I-289J1421*
G01*
G75*
G02X42492Y13015I1450*
G01*
G75*
G02X42491Y13091I1953J78*
G01*
G75*
G02X46123Y14076I1950*
G01*
G75*
G02X47512Y14385I1135J-1826*
G01*
G75*
G02X47541Y14620I1945J-119*
G01*
G75*
G02X45100Y16750I-291J2130*
G01*
G75*
G02X49400I2150*
G01*
G75*
G02X49331Y16210I-2149*
G01*
G75*
G02X50238Y16051I126J-1946*
G01*
Y19330*
G75*
G02Y21930I642J1300*
G01*
Y23683*
X49331Y22776*
G75*
G02X48968Y22543I-712J712*
G01*
G75*
G02X49400Y21250I-1718J-1293*
G01*
G75*
G02X45100I-2150*
G01*
G75*
G02X45487Y22481I2150*
G01*
X45250*
Y22455*
X43405*
G75*
G02X42681Y21172I-1934J246*
G01*
G75*
G02X42409Y19204I-1183J-839*
G01*
G75*
G02X43037Y18010I-822J-1194*
G01*
G75*
G02X40137I-1450*
G01*
G75*
G02X40676Y19138I1450*
G01*
G75*
G02X40403Y19383I822J1194*
G01*
X39754*
Y18156*
X38811*
G75*
G02X38912Y17538I-1850J-618*
G01*
G75*
G02X35012I-1950*
G01*
G75*
G02X35112Y18156I1950J0*
G01*
X34317*
Y18652*
X29970*
Y17719*
X25667*
Y22719*
X29970*
Y20752*
X34317*
Y23947*
X34499*
Y24900*
X34148*
Y26550*
X34112*
Y25100*
X29813*
Y30100*
X31444*
G75*
G02X30986Y31357I1491J1256*
G01*
G75*
G02X34856Y31699I1950*
G01*
X34857*
X36286Y33128*
X35404*
Y33649*
G75*
G02X35183Y33805I344J722*
G01*
X33224Y35764*
G75*
G02X32222Y35922I-289J1421*
G01*
G75*
G02X30349Y33924I-1285J-672*
G01*
G75*
G02X30077Y32360I-1331J-574*
G01*
G75*
G02X30487Y31350I-1041J-1010*
G01*
G75*
G02X27587I-1450*
G01*
G75*
G02X27977Y32340I1450*
G01*
G75*
G02X27964Y32354I1046J999*
G01*
G75*
G02X25893Y32356I-1035J1016*
G01*
G75*
G02X23387Y33350I-1056J994*
G01*
G75*
G02X25874Y34363I1450*
G01*
G75*
G02X26030Y34507I1057J-994*
G01*
Y34684*
X25913Y34801*
X24687*
Y36209*
G75*
G02X22586Y35381I-1633J1065*
G01*
G75*
G02X22587Y35350I-1444J-34*
G01*
G75*
G02X19687I-1450*
G01*
G75*
G02X19835Y35990I1450J0*
G01*
X17618*
Y39459*
X21480*
Y38426*
G75*
G02X25004Y37301I1573J-1152*
G01*
X25686*
X26191Y37807*
G75*
G02X25287Y39150I546J1343*
G01*
G75*
G02X28080Y39696I1450*
G01*
X28087Y39702*
Y40544*
G75*
G02X27326Y41820I689J1276*
G01*
G75*
G02X30226I1450*
G01*
G75*
G02X29896Y40900I-1450*
G01*
X30587*
Y39327*
G75*
G02X32413Y38537I247J-1934*
G01*
G75*
G02X32986Y38634I522J-1353*
G01*
Y40819*
G75*
G02X30417Y41740I-1120J921*
G01*
G75*
G02X31888Y43190I1450*
G01*
G75*
G02X31887Y43250I1046J57*
G01*
Y43600*
X31687*
Y44613*
G75*
G02X28837Y44990I-1400J378*
G01*
G75*
G02X29035Y45722I1450*
G01*
G75*
G02X28717Y45864I715J2027*
G01*
G75*
G02Y45841I-1440J-12*
G01*
G75*
G02X26295Y44765I-1450*
G01*
X24321*
Y42632*
X23920*
Y42583*
X24270*
Y40083*
X21770*
Y41156*
X21480*
Y40321*
X17618*
Y41293*
G75*
G02X16889Y41602I19J1057*
G01*
X16362Y42129*
Y40321*
X14050*
X12816Y39087*
X12207Y38473*
Y37909*
X24987Y27550D02*
G75*
G02X28887I1950D01*
G01*
G75*
G02X24987I-1950*
G01*
X29351Y15620D02*
G75*
G02X32251I1450D01*
G01*
G75*
G02X29351I-1450*
G01*
X24374Y27550D02*
G36*
G75*
G02X22809Y25914I-1437J-191D01*
G01*
G75*
G02X22626Y25900I-181J1147*
G01*
Y25550*
G75*
G02X23021Y25291I-418J-1071*
G01*
X23325Y24988*
G75*
G02X23866Y22297I-189J-1438*
G01*
Y16509*
G75*
G02X26454Y15620I1138J-899*
G01*
X29351*
G75*
G02X32251I1450*
G01*
X36611*
G75*
G02X35012Y17538I351J1918*
G01*
G75*
G02X35112Y18156I1950J0*
G01*
X34317*
Y18652*
X29970*
Y17719*
X25667*
Y22719*
X29970*
Y20752*
X34317*
Y23947*
X34499*
Y24900*
X34148*
Y26550*
X34112*
Y25100*
X29813*
Y27550*
X28887*
G75*
G02X24987I-1950*
G01*
X24374*
G37*
X24987D02*
G36*
G75*
G02X28887I1950D01*
G01*
X29813*
Y30100*
X31444*
G75*
G02X30986Y31357I1491J1256*
G01*
G75*
G02X34857Y31699I1951*
G01*
X36286Y33128*
X35404*
Y33649*
G75*
G02X35183Y33805I344J722*
G01*
X33224Y35764*
G75*
G02X32222Y35922I-289J1421*
G01*
G75*
G02X30349Y33924I-1285J-672*
G01*
G75*
G02X30077Y32360I-1331J-574*
G01*
G75*
G02X30487Y31350I-1041J-1010*
G01*
G75*
G02X27587I-1450*
G01*
G75*
G02X27977Y32340I1450*
G01*
G75*
G02X27964Y32354I1046J999*
G01*
G75*
G02X25893Y32356I-1035J1016*
G01*
G75*
G02X23387Y33350I-1056J994*
G01*
G75*
G02X25874Y34363I1450*
G01*
G75*
G02X26030Y34507I1057J-994*
G01*
Y34684*
X25913Y34801*
X24687*
Y36209*
G75*
G02X22586Y35381I-1633J1065*
G01*
G75*
G02Y35350I-1444J-15*
G01*
G75*
G02X19687I-1450*
G01*
G75*
G02X19835Y35990I1450J0*
G01*
X17618*
Y39459*
X21480*
Y38426*
G75*
G02X25004Y37301I1573J-1152*
G01*
X25686*
X26191Y37807*
G75*
G02X25287Y39150I546J1343*
G01*
G75*
G02X28080Y39696I1450*
G01*
X28087Y39702*
Y40544*
G75*
G02X27326Y41820I689J1276*
G01*
G75*
G02X30226I1450*
G01*
G75*
G02X29896Y40900I-1450*
G01*
X30587*
Y39327*
G75*
G02X32413Y38537I247J-1934*
G01*
G75*
G02X32986Y38634I522J-1353*
G01*
Y40819*
G75*
G02X30417Y41740I-1120J921*
G01*
G75*
G02X31888Y43190I1450*
G01*
G75*
G02X31887Y43250I1046J57*
G01*
Y43600*
X31687*
Y44613*
G75*
G02X28837Y44990I-1400J378*
G01*
G75*
G02X29035Y45722I1450*
G01*
G75*
G02X28717Y45864I715J2027*
G01*
G75*
G02Y45841I-1440J-12*
G01*
G75*
G02X26295Y44765I-1450*
G01*
X24321*
Y42632*
X23920*
Y42583*
X24270*
Y40083*
X21770*
Y41156*
X21480*
Y40321*
X17618*
Y41293*
G75*
G02X16889Y41602I19J1057*
G01*
X16362Y42129*
Y40321*
X14050*
X12816Y39087*
X12207Y38473*
Y37909*
G75*
G02X14461Y35982I303J-1926*
G01*
G75*
G02X14440Y35699I-1950J1*
G01*
X15986*
Y35500*
X16285*
Y35699*
X18785*
Y34986*
X21072Y32700*
G75*
G02X22486Y31295I-35J-1450*
G01*
G75*
G02X24261Y27949I477J-1891*
G01*
G75*
G02X24374Y27550I-1324J-591*
G01*
X24987*
G37*
X26454Y15620D02*
G36*
G75*
G02Y15610I-1454J-5D01*
G01*
G75*
G02X23866Y14711I-1450*
G01*
Y14575*
X22626*
Y13790*
G75*
G02X25087Y12750I1011J-1040*
G01*
G75*
G02X24437Y11541I-1450*
G01*
Y9452*
G75*
G02X25615Y9896I1313J-1702*
G01*
G75*
G02X27141Y11652I1416J311*
G01*
G75*
G02X27137Y11772I1447J117*
G01*
G75*
G02X28690Y13218I1450*
G01*
G75*
G02X29276Y13418I586J-757*
G01*
X33026*
G75*
G02X33699Y13141J-957*
G01*
X34741Y12111*
G75*
G02X35957Y9580I283J-1422*
G01*
G75*
G02X35858Y5900I-1160J-1810*
G01*
X38155*
G75*
G02X37640Y9175I1095J1850*
G01*
G75*
G02X36546Y10581I356J1406*
G01*
G75*
G02X39446I1450*
G01*
G75*
G02X39276Y9900I-1450*
G01*
G75*
G02X41179Y8700I-27J-2150*
G01*
G75*
G02X42922Y9405I1512J-1231*
G01*
X41799Y10528*
G75*
G02X40060Y11949I-289J1421*
G01*
G75*
G02X42492Y13015I1450*
G01*
G75*
G02X42491Y13091I1953J78*
G01*
G75*
G02X46123Y14076I1950*
G01*
G75*
G02X47512Y14385I1135J-1826*
G01*
G75*
G02X47541Y14620I1945J-119*
G01*
G75*
G02X45100Y16750I-291J2130*
G01*
G75*
G02X49400I2150*
G01*
G75*
G02X49331Y16210I-2149*
G01*
G75*
G02X50238Y16051I126J-1946*
G01*
Y19330*
G75*
G02Y21930I642J1300*
G01*
Y23683*
X49331Y22776*
G75*
G02X48968Y22543I-712J712*
G01*
G75*
G02X49400Y21250I-1718J-1293*
G01*
G75*
G02X45100I-2150*
G01*
G75*
G02X45487Y22481I2150*
G01*
X45250*
Y22455*
X43405*
G75*
G02X42681Y21172I-1934J246*
G01*
G75*
G02X42409Y19204I-1183J-839*
G01*
G75*
G02X43037Y18010I-822J-1194*
G01*
G75*
G02X40137I-1450*
G01*
G75*
G02X40676Y19138I1450*
G01*
G75*
G02X40403Y19383I822J1194*
G01*
X39754*
Y18156*
X38811*
G75*
G02X38912Y17538I-1850J-618*
G01*
G75*
G02X36611Y15620I-1950*
G01*
X32251*
G75*
G02X29351I-1450*
G01*
X26454*
G37*
X17037Y5123D02*
G75*
G02X17152Y4587I-1193J-536D01*
G01*
Y2350*
G75*
G02X17096Y1972I-1308*
G01*
Y1250*
X45210*
G75*
G02X45704Y4628I1540J1500*
G01*
X44433Y5900*
X43849*
G75*
G02X40999Y6499I-1158J1569*
G01*
G75*
G02X40345Y5900I-1748J1250*
G01*
X40486*
Y1600*
X35486*
Y1842*
X35285*
Y1419*
X32785*
Y1783*
X32687*
Y1258*
X30187*
Y1773*
X30087*
Y1500*
X25087*
Y3769*
X23071Y5784*
G75*
G02X22838Y6301I566J566*
G01*
G75*
G02X21451Y5609I-1588J1449*
G01*
G75*
G02X17552Y5679I-1949J70*
G01*
G75*
G02X17556Y5796I1952J-1*
G01*
G75*
G02X17037Y5659I-806J1994*
G01*
Y5123*
G36*
G75*
G02X17152Y4587I-1193J-536*
G01*
Y2350*
G75*
G02X17096Y1972I-1308*
G01*
Y1250*
X45210*
G75*
G02X45704Y4628I1540J1500*
G01*
X44433Y5900*
X43849*
G75*
G02X40999Y6499I-1158J1569*
G01*
G75*
G02X40345Y5900I-1748J1250*
G01*
X40486*
Y1600*
X35486*
Y1842*
X35285*
Y1419*
X32785*
Y1783*
X32687*
Y1258*
X30187*
Y1773*
X30087*
Y1500*
X25087*
Y3769*
X23071Y5784*
G75*
G02X22838Y6301I566J566*
G01*
G75*
G02X21451Y5609I-1588J1449*
G01*
G75*
G02X17552Y5679I-1949J70*
G01*
G75*
G02X17556Y5796I1952J-1*
G01*
G75*
G02X17037Y5659I-806J1994*
G01*
Y5123*
G37*
X19549Y42056D02*
X22296D01*
X23020Y41333*
Y43833*
X26930Y33370D02*
Y35057D01*
X25937Y36050*
X31637Y39610D02*
X30773Y38746D01*
Y37454*
X32687Y4083D02*
X33673D01*
G75*
G02X34037Y4142I364J-1091*
G01*
X35486*
Y5733*
G75*
G02X33960Y5789I-689J2036*
G01*
G75*
G02X32687Y4923I-1328J583*
G01*
Y4083*
G36*
X33673*
G75*
G02X34037Y4142I364J-1091*
G01*
X35486*
Y5733*
G75*
G02X33960Y5789I-689J2036*
G01*
G75*
G02X32687Y4923I-1328J583*
G01*
Y4083*
G37*
X32937Y47150D02*
X32359D01*
X31824Y46616*
Y44063*
X30473Y42711*
Y40544*
X31367Y39650*
X36599Y23947D02*
X39754D01*
Y23626*
G75*
G02X41624Y24645I1717J-925*
G01*
X41235Y25033*
G75*
G02X40987Y25634I601J601*
G01*
Y26975*
G75*
G02X40648Y27320I850J1175*
G01*
Y24900*
X36599*
Y23947*
G36*
X39754*
Y23626*
G75*
G02X41624Y24645I1717J-925*
G01*
X41235Y25033*
G75*
G02X40987Y25634I601J601*
G01*
Y26975*
G75*
G02X40648Y27320I850J1175*
G01*
Y24900*
X36599*
Y23947*
G37*
X36877Y50203D02*
G75*
G02X37054Y50062I-533J-854D01*
G01*
X37949Y49170*
G75*
G02X38246Y48456I-711J-714*
G01*
Y47423*
X39659*
Y33128*
X38763*
Y33070*
G75*
G02X38456Y32327I-1050*
G01*
X37827Y31699*
X39087*
Y31500*
X40411*
G75*
G02X40454Y31539I1002J-1050*
G01*
Y31776*
G75*
G02X40734Y32453I957J0*
G01*
X41965Y33683*
G75*
G02X42642Y33963I677J-677*
G01*
X46427*
Y35612*
X48345*
G75*
G02X48912Y35778I567J-884*
G01*
X49474*
G75*
G02X49987Y38397I1652J1037*
G01*
X49356Y39028*
X48554*
G75*
G02X48433Y39033J1249*
G01*
X46427*
Y41518*
X48397*
G75*
G02X48554Y41528I157J-1241*
G01*
X50033*
G75*
G02X50190Y41518J-1251*
G01*
X50683*
Y41346*
G75*
G02X51204Y40715I-650J-1068*
G01*
X51642Y40278*
G75*
G02X52255Y40082I-122J-1445*
G01*
X49154Y42970*
X46427*
Y47423*
X48418*
Y47853*
G75*
G02X48726Y48596I1050*
G01*
X49822Y49693*
G75*
G02X50565Y50000I743J-743*
G01*
X50986*
Y50199*
X53486*
Y48530*
G75*
G02X56591Y48621I1587J-1133*
G01*
G75*
G02X57941Y48498I559J-1338*
G01*
X58388Y48945*
Y50100*
X60537*
Y50203*
X43730*
G75*
G02X44415Y48719I-1266J-1483*
G01*
G75*
G02X40515I-1950*
G01*
G75*
G02X41199Y50203I1950*
G01*
X36877*
G36*
G75*
G02X37054Y50062I-533J-854*
G01*
X37949Y49170*
G75*
G02X38246Y48456I-711J-714*
G01*
Y47423*
X39659*
Y33128*
X38763*
Y33070*
G75*
G02X38456Y32327I-1050*
G01*
X37827Y31699*
X39087*
Y31500*
X40411*
G75*
G02X40454Y31539I1002J-1050*
G01*
Y31776*
G75*
G02X40734Y32453I957J0*
G01*
X41965Y33683*
G75*
G02X42642Y33963I677J-677*
G01*
X46427*
Y35612*
X48345*
G75*
G02X48912Y35778I567J-884*
G01*
X49474*
G75*
G02X49987Y38397I1652J1037*
G01*
X49356Y39028*
X48554*
G75*
G02X48433Y39033J1249*
G01*
X46427*
Y41518*
X48397*
G75*
G02X48554Y41528I157J-1241*
G01*
X50033*
G75*
G02X50190Y41518J-1251*
G01*
X50683*
Y41346*
G75*
G02X51204Y40715I-650J-1068*
G01*
X51642Y40278*
G75*
G02X52255Y40082I-122J-1445*
G01*
X49154Y42970*
X46427*
Y47423*
X48418*
Y47853*
G75*
G02X48726Y48596I1050*
G01*
X49822Y49693*
G75*
G02X50565Y50000I743J-743*
G01*
X50986*
Y50199*
X53486*
Y48530*
G75*
G02X56591Y48621I1587J-1133*
G01*
G75*
G02X57941Y48498I559J-1338*
G01*
X58388Y48945*
Y50100*
X60537*
Y50203*
X43730*
G75*
G02X44415Y48719I-1266J-1483*
G01*
G75*
G02X40515I-1950*
G01*
G75*
G02X41199Y50203I1950*
G01*
X36877*
G37*
X44215Y23488D02*
X44000Y23704D01*
X45787Y9346D02*
G75*
G02X49378Y7750I1441J-1596D01*
G01*
G75*
G02X47431Y5609I-2150*
G01*
X47514Y5527*
G75*
G02X47794Y4850I-677J-677*
G01*
Y4630*
G75*
G02X48750Y3539I-1044J-1880*
G01*
G75*
G02X52900Y2750I2000J-789*
G01*
G75*
G02X52290Y1250I-2150*
G01*
X57210*
G75*
G02X56600Y2750I1540J1500*
G01*
G75*
G02X60537Y3945I2150*
G01*
Y6055*
G75*
G02X56750Y6461I-1787J1195*
G01*
G75*
G02X52600Y7250I-2000J789*
G01*
G75*
G02X56750Y8039I2150*
G01*
G75*
G02X60537Y8445I2000J-789*
G01*
Y10535*
G75*
G02X56714Y12400I-1774J1216*
G01*
X50238*
Y12477*
G75*
G02X49407Y12315I-780J1787*
G01*
G75*
G02X49408Y12250I-2154J-59*
G01*
G75*
G02X45787Y10681I-2150*
G01*
Y9346*
G36*
G75*
G02X49378Y7750I1441J-1596*
G01*
G75*
G02X47431Y5609I-2150*
G01*
X47514Y5527*
G75*
G02X47794Y4850I-677J-677*
G01*
Y4630*
G75*
G02X48750Y3539I-1044J-1880*
G01*
G75*
G02X52900Y2750I2000J-789*
G01*
G75*
G02X52290Y1250I-2150*
G01*
X57210*
G75*
G02X56600Y2750I1540J1500*
G01*
G75*
G02X60537Y3945I2150*
G01*
Y6055*
G75*
G02X56750Y6461I-1787J1195*
G01*
G75*
G02X52600Y7250I-2000J789*
G01*
G75*
G02X56750Y8039I2150*
G01*
G75*
G02X60537Y8445I2000J-789*
G01*
Y10535*
G75*
G02X56714Y12400I-1774J1216*
G01*
X50238*
Y12477*
G75*
G02X49407Y12315I-780J1787*
G01*
G75*
G02X49408Y12250I-2154J-59*
G01*
G75*
G02X45787Y10681I-2150*
G01*
Y9346*
G37*
X52225Y45852D02*
G75*
G02X52235Y43009I-282J-1422D01*
G01*
X53426Y41900*
X55255*
X56687Y43589*
Y45909*
G75*
G02X56448Y46015I464J1375*
G01*
G75*
G02X53146Y47699I-1376J1381*
G01*
X52745*
G75*
G02X52225Y46025I-1363J-494*
G01*
Y45866*
G75*
G02Y45852I-1039J-7*
G01*
G36*
G75*
G02X52235Y43009I-282J-1422*
G01*
X53426Y41900*
X55255*
X56687Y43589*
Y45909*
G75*
G02X56448Y46015I464J1375*
G01*
G75*
G02X53146Y47699I-1376J1381*
G01*
X52745*
G75*
G02X52225Y46025I-1363J-494*
G01*
Y45866*
G75*
G02Y45852I-1039J-7*
G01*
G37*
X52768Y30999D02*
G75*
G02X53265Y30549I-1041J-1648D01*
G01*
G75*
G02X54587Y30385I503J-1360*
G01*
Y31400*
X55506*
X57400Y33294*
G75*
G02X57720Y33500I637J-636*
G01*
X54837*
Y32305*
X53836*
G75*
G02X53561Y31792I-987J200*
G01*
X52768Y30999*
G36*
G75*
G02X53265Y30549I-1041J-1648*
G01*
G75*
G02X54587Y30385I503J-1360*
G01*
Y31400*
X55506*
X57400Y33294*
G75*
G02X57720Y33500I637J-636*
G01*
X54837*
Y32305*
X53836*
G75*
G02X53561Y31792I-987J200*
G01*
X52768Y30999*
G37*
X55776Y36900D02*
G75*
G02X56118Y36801I-115J-1043D01*
G01*
X58116*
Y34404*
X60537*
Y42000*
X58093*
X56663Y40314*
Y36900*
X55776*
G36*
G75*
G02X56118Y36801I-115J-1043*
G01*
X58116*
Y34404*
X60537*
Y42000*
X58093*
X56663Y40314*
Y36900*
X55776*
G37*
X55837Y30457D02*
X58037Y32657D01*
X59386*
X55837Y32450D02*
X56667D01*
X59367Y35150*
X58066Y21856D02*
G75*
G02X60537Y21847I1230J-1764D01*
G01*
Y24801*
X58067*
Y21894*
G75*
G02X58066Y21856I-797J-3*
G01*
G36*
G75*
G02X60537Y21847I1230J-1764*
G01*
Y24801*
X58067*
Y21894*
G75*
G02X58066Y21856I-797J-3*
G01*
G37*
X60024Y31112D02*
Y28740D01*
D02*
D12*
X2750Y2750D03*
Y7750D03*
X7250Y43250D03*
Y47750D03*
X11750D03*
X12250Y7750D03*
X16234Y47750D03*
X16750Y7789D03*
X20750Y47750D03*
X21250Y7750D03*
X25280Y47750D03*
X25750Y7750D03*
X29750Y47750D03*
X30250Y7770D03*
X34797D03*
X39250Y7750D03*
X46750Y2750D03*
X47228Y7750D03*
X47248Y30250D03*
X47250Y16750D03*
Y21250D03*
Y25750D03*
X47258Y12250D03*
X50750Y2750D03*
X54750Y2720D03*
Y7250D03*
X58750Y2750D03*
Y7250D03*
X58764Y11750D03*
X59250Y15427D03*
X59295Y20093D03*
D02*
D14*
X3167Y44206D02*
Y43823D01*
X3137*
Y40706*
X8437Y36439D02*
Y39181D01*
X9565Y40310*
X9437Y7150D02*
X6037D01*
X14737Y34450D02*
X17537D01*
X15478Y12667D02*
Y12185D01*
X11954*
X9919Y10150*
X9437*
X15478Y24478D02*
X13965D01*
X12837Y23350*
X17837Y34450D02*
X21037Y31250D01*
X28787Y4650D02*
X27787Y3650D01*
X27587*
X31963Y27600D02*
X34847D01*
X35897Y26550*
X32937Y44850D02*
Y43250D01*
X34237Y41950*
Y39650D02*
X34567D01*
Y37850*
X35015Y37401*
Y37250*
X34237Y39650D02*
X34937Y40350D01*
X36904*
X36978Y40276*
X37530*
X35537Y30450D02*
Y26911D01*
Y30893D02*
X37713Y33070D01*
Y34188*
X35549Y21925D02*
Y26202D01*
X35608Y19702D02*
X28334D01*
X37236Y42250D02*
X34837D01*
X34237Y41950*
X37530Y38307D02*
Y40276D01*
Y44213D02*
X35974D01*
X35037Y45150*
Y47839*
X34925Y47950*
X37837Y30450D02*
X41411D01*
X38897Y26550D02*
Y29389D01*
X37837Y30450*
X43042Y40276D02*
Y48142D01*
X44000Y26004D02*
X43852D01*
X48554Y42244D02*
X45011D01*
X49468Y46181D02*
Y47853D01*
X50565Y48950*
X52237*
X49778Y44213D02*
X48554D01*
X51018Y34728D02*
X48912D01*
X48554Y34370*
X51382Y47205D02*
X51175D01*
Y45866*
X49462Y44153*
X53587Y35856D02*
X55661D01*
X56367Y35150*
X54512Y39400D02*
X55329D01*
Y38415*
X54000Y39252*
Y39911*
X49413Y44183*
X49937Y44150*
X49841*
X54512Y39400D02*
X58837Y44500D01*
X56526Y48850D02*
X55073Y47397D01*
X59581Y45988D02*
Y48794D01*
D02*
D15*
X19415Y12667D02*
Y17589D01*
Y12667D02*
X17447D01*
X19415Y24478D02*
X21384D01*
Y12667D02*
X19415D01*
X48554Y40276D02*
X50033D01*
Y40118*
X51319Y38833*
X51520*
X50880Y20630D02*
Y20593D01*
X50837Y20550*
X52837*
X53737Y19650*
Y18650*
Y25150D02*
Y29158D01*
X53767Y29189*
D02*
D16*
X3093Y27736D02*
Y31183D01*
X3157Y31246*
X7537Y25950D02*
X8437Y25050D01*
X10437*
X11337Y24150*
Y21050*
X13037Y19350*
X17654*
X7537Y26350D02*
Y30439D01*
X8437Y31339*
X7537Y26350D02*
X7437D01*
Y26550*
X7337*
X8591Y21850D02*
X12270Y18171D01*
Y13695*
X9837Y26350D02*
Y27573D01*
X9085Y28324*
X41498Y20333D02*
X37754D01*
X43767Y23704D02*
X44000D01*
X57150Y47283D02*
X58070D01*
X59637Y48850*
X58587Y26850D02*
Y27067D01*
X58793Y26750D02*
X59237D01*
D02*
D27*
X2075Y48556D03*
X4375D03*
X7537Y26350D03*
X9837D03*
X15786Y4587D03*
X15845Y2350D03*
X18086Y4587D03*
X18145Y2350D03*
X23020Y41333D03*
X23069Y43882D03*
X23637Y36050D03*
X25320Y41333D03*
X25369Y43882D03*
X25937Y36050D03*
X29337Y39650D03*
X31637D03*
X35537Y30450D03*
X37837D03*
X52237Y48950D03*
X54537D03*
X57337Y48850D03*
X59637D03*
D02*
D28*
X35897Y26550D03*
X38897D03*
X56367Y35150D03*
X59367D03*
D02*
D29*
X14737Y32150D03*
Y34450D03*
X17537Y27060D03*
Y29360D03*
Y32150D03*
Y34450D03*
X20237Y27050D03*
Y29350D03*
X31437Y2509D03*
Y4809D03*
X32937Y44850D03*
Y47150D03*
X34037Y2670D03*
Y4970D03*
X34237Y39650D03*
Y41950D03*
X44000Y23704D03*
Y26004D03*
X44108Y28664D03*
Y30964D03*
X44537Y7150D03*
Y9450D03*
X53587Y33556D03*
Y35856D03*
X55837Y30150D03*
Y32450D03*
D02*
D73*
X25937Y36350D02*
X28837Y39250D01*
X37530Y46181D02*
X37237D01*
Y48456*
X36343Y49350*
X32837*
X32905Y49281*
X41837Y28150D02*
Y25634D01*
X43767Y23704*
X44000Y26004D02*
Y28556D01*
X53587Y33556D02*
X53577D01*
X52848Y32828*
Y32504*
X51835Y31490*
Y31480*
X49819Y29465*
Y24689*
X48619Y23488*
X44215*
D02*
D84*
X2666Y18637D02*
Y23756D01*
X7537Y26350D02*
X5261D01*
X3157Y24246*
X9227Y28183D02*
X10641Y26769D01*
X9565Y40110D02*
Y38110D01*
X12187Y3250D02*
X14945D01*
X15845Y2350*
X12511Y35782D02*
Y33782D01*
Y36182D02*
Y38182D01*
X12711Y35982D02*
X14711D01*
X15845Y2350D02*
Y3465D01*
X15786*
Y4587*
X17537Y27060D02*
X20227D01*
X18114Y10246D02*
Y11632D01*
X19150Y12667*
X19361Y5538D02*
X17946Y4124D01*
X19643Y5538D02*
X21057Y4124D01*
X20237Y27050D02*
X22628D01*
X21384Y24478D02*
X22208D01*
X23137Y23550*
X22763Y29404D02*
X20763D01*
X22963Y29604D02*
Y31604D01*
X23054Y37074D02*
Y35074D01*
Y37474D02*
Y39474D01*
X23163Y29404D02*
X25163D01*
X26737Y27550D02*
X24737D01*
X26937Y27350D02*
Y25350D01*
Y27750D02*
Y29750D01*
X27137Y27550D02*
X29137D01*
X30834Y37593D02*
Y39593D01*
X31437Y2509D02*
Y2923D01*
X28728*
X32736Y31357D02*
X30736D01*
X32936Y31557D02*
Y33557D01*
X34037Y2670D02*
Y2933D01*
X31597*
X34037Y2670D02*
Y2992D01*
X36906*
X36762Y17538D02*
X34762D01*
X36962Y17338D02*
Y15338D01*
X37162Y17538D02*
X39162D01*
X37530Y36339D02*
Y34370D01*
X41329Y22842D02*
X39915Y24256D01*
X42265Y48719D02*
X40265D01*
X42465Y48519D02*
Y46519D01*
X42665Y48719D02*
X44665D01*
X42691Y7269D02*
Y5269D01*
X44299Y13232D02*
X42885Y14646D01*
X44582Y13232D02*
X45996Y14646D01*
X48554Y36339D02*
Y38307D01*
Y36339D02*
X50650D01*
X51126Y36815*
X50926D02*
X48926D01*
X55073Y47197D02*
Y45197D01*
Y47597D02*
Y49597D01*
X59367Y35150D02*
Y38870D01*
D02*
D85*
X2075Y48556D02*
Y45298D01*
X54512Y44500D02*
Y46836D01*
X55073Y47397*
X54537Y48950D02*
Y47933D01*
X55073Y47397*
X55837Y32450D02*
X54826D01*
X51726Y29350*
X57337Y48850D02*
X56526D01*
D02*
D88*
X7087Y3250D03*
X12187D03*
X22487Y3650D03*
X27587D03*
X37987Y3750D03*
X43087D03*
D02*
D93*
X3157Y24246D03*
Y31246D03*
X3167Y37206D03*
Y44206D03*
X8137Y14850D03*
Y21850D03*
X37037Y14050D03*
Y21050D03*
D02*
D95*
X3093Y27736D03*
X3137Y40706D03*
X9085Y28324D03*
X9565Y40310D03*
X9596Y49289D03*
X11537Y41050D03*
X12137Y27850D03*
Y30250D03*
X12270Y13695D03*
X12465Y10531D03*
X12511Y35982D03*
X12537Y25450D03*
X12837Y23350D03*
X15137Y27350D03*
X18114Y10246D03*
X18537Y44350D03*
X19502Y5679D03*
X20142Y10246D03*
X21037Y31250D03*
X21137Y35350D03*
X22937Y27359D03*
X22963Y29404D03*
X23054Y37274D03*
X23137Y23550D03*
X23637Y12750D03*
X24837Y33350D03*
X25004Y15610D03*
X26737Y39150D03*
X26930Y33370D03*
X26937Y27550D03*
X27031Y10207D03*
X27267Y45841D03*
X28587Y11772D03*
X28765Y37248D03*
X28776Y41820D03*
X29018Y33350D03*
X29037Y31350D03*
X30287Y44990D03*
X30801Y15620D03*
X30834Y37393D03*
X30937Y35250D03*
X31867Y41740D03*
X31937Y10250D03*
X32632Y6372D03*
X32934Y37185D03*
X32936Y31357D03*
X33291Y49281D03*
X34925Y47950D03*
X35015Y37250D03*
X35024Y10689D03*
X36962Y17538D03*
X37996Y10581D03*
X41411Y30450D03*
X41470Y22701D03*
X41498Y20333D03*
X41510Y11949D03*
X41587Y18010D03*
X41837Y28150D03*
X42465Y48719D03*
X42691Y7469D03*
X44441Y13091D03*
X49458Y14264D03*
X50880Y20630D03*
X51018Y34728D03*
X51126Y36815D03*
X51382Y47205D03*
X51520Y38833D03*
X51726Y29350D03*
X51943Y44429D03*
X53767Y29189D03*
X54689Y21112D03*
X55073Y47397D03*
X57150Y47283D03*
X57583Y17569D03*
X58114Y29498D03*
X60024Y28740D03*
D02*
D96*
X2075Y45298D02*
X3167Y44206D01*
X2666Y23756D02*
X3157Y24246D01*
X4375Y48556D02*
X4868D01*
X6202Y49890*
X8995*
X9596Y49289*
X7250Y47750D02*
X9435Y45565D01*
X17406*
X17740Y45900*
X19295*
X19630Y45565*
X26451*
X26726Y45841*
X27267*
X7537Y26350D02*
Y25950D01*
X8137Y21850D02*
X8591D01*
X11287Y4150D02*
X12187Y3450D01*
Y3250*
X12137Y30250D02*
Y30319D01*
X11249Y31206*
Y38867*
X12137Y39762*
X14431Y42056*
X12465Y10531D02*
Y10591D01*
X13557*
X14659Y9488*
Y6289*
X15786Y5162*
Y4587*
X17537Y34450D02*
X17837D01*
X17654Y19350D02*
X18431Y18573D01*
X19150Y12667D02*
X19415D01*
X19256Y42350D02*
X19549Y42056D01*
X19415Y17589D02*
X18431Y18573D01*
X20227Y27060D02*
X20237Y27050D01*
X22628D02*
X22937Y27359D01*
X23020Y43833D02*
X23069Y43882D01*
X23637Y36050D02*
Y36691D01*
X23054Y37274*
X25937Y36050D02*
Y36350D01*
X27587Y3650D02*
X26337D01*
X23637Y6350*
Y12750*
X28334Y19702D02*
X27819Y20217D01*
X28728Y2923D02*
X28001Y3650D01*
X27587*
X28837Y39250D02*
X29337D01*
Y39650*
X30773Y37454D02*
X30834Y37393D01*
X31367Y39650D02*
X31637D01*
X31437Y4809D02*
X30826D01*
X29842Y5793*
X29001*
X28130Y6665*
Y9109*
X27031Y10207*
X31437Y4809D02*
X31537D01*
Y4754*
X31597Y2933D02*
X31437Y2772D01*
Y2509*
X31637Y39650D02*
Y39610D01*
X32905Y49281D02*
X33291D01*
X34037Y4970D02*
X35240D01*
X35881Y5610*
X41226*
X42691Y7075*
Y7469*
X35024Y10689D02*
X34955Y10669D01*
X34817*
X33026Y12461*
X29276*
X28587Y11772*
X35537Y26911D02*
X35897Y26550D01*
X35537Y30450D02*
Y30893D01*
X35549Y26202D02*
X35897Y26550D01*
X36906Y2992D02*
X37664Y3750D01*
X37987*
X36987Y4550D02*
X37787Y3750D01*
X37987*
X37037Y21050D02*
X36424D01*
X35549Y21925*
X37037Y21050D02*
X36956D01*
X35608Y19702*
X37530Y34370D02*
X35748D01*
X32934Y37185*
X37530Y42244D02*
X37241D01*
X37236Y42250*
X37713Y34188D02*
X37530Y34370D01*
X37754Y20333D02*
X37037Y21050D01*
X41411Y30450D02*
Y31776D01*
X42642Y33006*
X47687*
X47706Y32986*
X51559*
X52307Y33734*
Y34906*
X53232Y35831*
X53390*
X43042Y48142D02*
X42465Y48719D01*
X43087Y3750D02*
Y4710D01*
X42514Y5283*
Y7323*
X42659Y7469*
X42691*
X44000Y28556D02*
X44108Y28664D01*
Y30964D02*
X41926D01*
X41411Y30450*
X44537Y7150D02*
Y7149D01*
X46837Y4850*
Y2837*
X46750Y2750*
X44537Y9450D02*
X44009D01*
X41510Y11949*
X45011Y42244D02*
X43042Y40276D01*
X48554Y46181D02*
X49468D01*
X49462Y44153D02*
X48554D01*
Y44213*
X49841Y44150D02*
X49778Y44213D01*
X53737Y18650D02*
Y16150D01*
X54689Y21112D02*
X56484D01*
X57267Y21894*
Y28055*
X55118Y35856D02*
X53587D01*
X55837Y30150D02*
Y30457D01*
X57237Y48950D02*
X57337Y48850D01*
X57267Y28055D02*
Y28154D01*
X55837Y29583*
Y30150*
X58837Y44500D02*
Y45244D01*
X59581Y45988*
X59237Y23550D02*
X59413D01*
Y23051*
X57209Y20846*
Y18307*
X57583Y17933*
Y17569*
X59237Y26550D02*
X58772D01*
X57267Y28055*
X59237Y26750D02*
Y26550D01*
X59367Y38870D02*
X58837Y39400D01*
X59386Y32657D02*
X59681Y32953D01*
X59581Y48794D02*
X59637Y48850D01*
X59652Y31132D02*
X60043D01*
X60024Y31112*
D02*
D105*
X37530Y34370D03*
Y36339D03*
Y38307D03*
Y40276D03*
Y42244D03*
Y44213D03*
Y46181D03*
X48554Y34370D03*
Y36339D03*
Y38307D03*
Y40276D03*
Y42244D03*
Y44213D03*
Y46181D03*
D02*
D106*
X43042Y40276D03*
D02*
D107*
X53737Y16150D03*
Y25150D03*
D02*
D108*
X2666Y13537D03*
Y18637D03*
X8437Y31339D03*
Y36439D03*
X27819Y15117D03*
Y20217D03*
X31963Y22500D03*
Y27600D03*
X54512Y39400D03*
Y44500D03*
X58837Y39400D03*
Y44500D03*
D02*
D109*
X15478Y12667D03*
Y24478D03*
X17447Y12667D03*
Y24478D03*
X19415Y12667D03*
Y24478D03*
X21384Y12667D03*
Y24478D03*
D02*
D110*
X18431Y18573D03*
D02*
D111*
X6037Y7150D03*
Y10150D03*
X9437Y7150D03*
Y10150D03*
X59237Y23550D03*
Y26550D03*
D02*
D112*
X14431Y37726D03*
Y42056D03*
X19549Y37726D03*
Y42056D03*
D02*
D113*
X59652Y31132D03*
X59681Y32953D03*
X0Y0D02*
M02*
