%FSLAX35Y35*%
%MOIN*%
G04 EasyPC Gerber Version 18.0.9 Build 3640 *
%ADD96C,0.00300*%
%ADD10C,0.00500*%
%ADD14C,0.00800*%
%ADD15C,0.01200*%
%ADD95C,0.01400*%
%ADD12C,0.02800*%
X0Y0D02*
D02*
D10*
X1250Y4290D02*
G75*
G02X4439Y4080I1500J-1540D01*
G01*
X12821*
X15124Y6383*
G75*
G02X16697Y9939I1626J1406*
G01*
G75*
G02X19128Y11283I1417J307*
G01*
G75*
G02X21113Y11323I1014J-1037*
G01*
X23378*
G75*
G02X22187Y12750I259J1427*
G01*
G75*
G02X23946Y14167I1450*
G01*
Y14618*
G75*
G02X24191Y16811I1057J992*
G01*
X24099Y16900*
G75*
G02X23779Y17657I738J757*
G01*
Y26179*
G75*
G02X21922Y28394I-843J1180*
G01*
G75*
G02X23779Y30602I1041J1009*
G01*
Y32358*
G75*
G02X23431Y32992I1057J992*
G01*
X23235Y32796*
G75*
G02X22422Y32459I-813J813*
G01*
X21037*
X20058Y31481*
Y28833*
G75*
G02X19721Y28020I-1150J0*
G01*
X14250Y22550*
G75*
G02X13809Y22274I-813J813*
G01*
G75*
G02X11708Y24260I-972J1076*
G01*
G75*
G02X11558Y26520I829J1190*
G01*
G75*
G02X10744Y27448I578J1330*
G01*
X10424Y27767*
G75*
G02X7635Y28324I-1339J557*
G01*
G75*
G02X9779Y29597I1450*
G01*
Y32151*
G75*
G02X10090Y32900I1057*
G01*
X11874Y34680*
G75*
G02X11061Y35982I637J1303*
G01*
G75*
G02X13815Y36615I1450*
G01*
X23614Y46390*
G75*
G02X23130Y47750I1666J1360*
G01*
G75*
G02X27430I2150*
G01*
G75*
G02X27379Y47286I-2150J1*
G01*
G75*
G02X27663Y47236I-111J-1447*
G01*
G75*
G02X27600Y47750I2087J515*
G01*
G75*
G02X31900I2150*
G01*
G75*
G02X31173Y46138I-2150*
G01*
G75*
G02X31678Y44582I-886J-1148*
G01*
X33386*
G75*
G02X34199Y44245I0J-1150*
G01*
X36002Y42443*
G75*
G02X36339Y41630I-813J-813*
G01*
Y37843*
G75*
G02X36465Y37250I-1323J-593*
G01*
G75*
G02X33565I-1450*
G01*
G75*
G02X34039Y38322I1450*
G01*
Y41154*
X33309Y41883*
G75*
G02X33317Y41740I-1443J-143*
G01*
G75*
G02X30417I-1450*
G01*
G75*
G02X30522Y42282I1450J0*
G01*
X30150*
G75*
G02X27446Y41242I-1374J-462*
G01*
X26803Y40598*
G75*
G02X28033Y38500I-66J-1448*
G01*
G75*
G02X29729Y38331I732J-1252*
G01*
G75*
G02X32284Y37393I1105J-939*
G01*
G75*
G02X31860Y36368I-1450*
G01*
G75*
G02X30349Y33924I-924J-1118*
G01*
G75*
G02X30077Y32360I-1331J-574*
G01*
G75*
G02X29937Y30213I-1041J-1010*
G01*
Y26850*
G75*
G02X29673Y26214I-900J0*
G01*
X29201Y25742*
Y16219*
X29406Y16015*
G75*
G02X31938Y16520I1395J-394*
G01*
X33183*
G75*
G02X33819Y16256I0J-900*
G01*
X38046Y12030*
G75*
G02X39276Y9900I-50J-1449*
G01*
G75*
G02X41375Y8077I-26J-2150*
G01*
G75*
G02X44141Y7469I1316J-609*
G01*
G75*
G02X41293Y7081I-1450*
G01*
G75*
G02X37100Y7750I-2043J669*
G01*
G75*
G02X37640Y9175I2150*
G01*
G75*
G02X36591Y10939I356J1406*
G01*
X36407Y11123*
G75*
G02X35957Y9580I-1383J-434*
G01*
G75*
G02X36947Y7770I-1160J-1810*
G01*
G75*
G02X32647I-2150*
G01*
G75*
G02X33930Y9737I2150*
G01*
G75*
G02X35458Y12072I1094J952*
G01*
X32810Y14720*
X31938*
G75*
G02X31196Y14225I-1137J900*
G01*
X32337Y13083*
G75*
G02X32601Y12446I-636J-637*
G01*
Y11539*
G75*
G02X32130Y8813I-665J-1289*
G01*
G75*
G02X32400Y7770I-1880J-1043*
G01*
G75*
G02X28100I-2150*
G01*
G75*
G02X29427Y9756I2150*
G01*
Y10590*
G75*
G02X27137Y11772I-840J1182*
G01*
G75*
G02X28002Y13099I1450J0*
G01*
X26226Y14829*
G75*
G02X26061Y14618I-1221J782*
G01*
Y11289*
G75*
G02X25763Y10553I-1057*
G01*
X24996Y9763*
G75*
G02X27900Y7750I754J-2013*
G01*
G75*
G02X23600I-2150*
G01*
G75*
G02X24183Y9222I2150*
G01*
G75*
G02X24010Y9208I-172J1043*
G01*
X22830*
G75*
G02X20951Y5621I-1580J-1458*
G01*
G75*
G02X18052Y5679I-1449J58*
G01*
G75*
G02X18054Y5750I1453J3*
G01*
G75*
G02X17705Y5146I-1304J350*
G01*
X14335Y1776*
G75*
G02X13380Y1380I-954J955*
G01*
X4407*
G75*
G02X4290Y1250I-1657J1369*
G01*
X45210*
G75*
G02X44600Y2750I1540J1500*
G01*
G75*
G02X48750Y3539I2150*
G01*
G75*
G02X49507Y4505I2000J-789*
G01*
Y7666*
X49378Y7796*
G75*
G02X49378Y7750I-2156J-41*
G01*
G75*
G02X45078I-2150*
G01*
G75*
G02X45483Y9006I2150*
G01*
X45339*
G75*
G02X44591Y9315J1057*
G01*
X42734Y11172*
G75*
G02X40060Y11949I-1224J777*
G01*
G75*
G02X42116Y13266I1450*
G01*
Y15995*
X41546Y16560*
G75*
G02X40137Y18010I41J1450*
G01*
G75*
G02X43036Y18061I1450*
G01*
X43918Y17185*
G75*
G02X44231Y16435I-745J-750*
G01*
Y14525*
G75*
G02X45727Y13759I210J-1435*
G01*
G75*
G02X48008Y14265I1531J-1509*
G01*
G75*
G02X48101Y14776I1450J-1*
G01*
G75*
G02X45100Y16750I-851J1974*
G01*
G75*
G02X49400I2150*
G01*
G75*
G02X49110Y15672I-2150*
G01*
G75*
G02X50908Y14264I348J-1408*
G01*
G75*
G02X49331Y12820I-1450*
G01*
G75*
G02X49030Y11032I-2074J-570*
G01*
G75*
G02X49354Y10811I-423J-969*
G01*
X51313Y8852*
G75*
G02X51622Y8104I-748J-748*
G01*
Y4715*
G75*
G02X52756Y3524I-872J-1965*
G01*
G75*
G02X56900Y2720I1994J-804*
G01*
G75*
G02X56319Y1250I-2150*
G01*
X60250*
Y5710*
G75*
G02X56750Y6461I-1500J1540*
G01*
G75*
G02X52600Y7250I-2000J789*
G01*
G75*
G02X56750Y8039I2150*
G01*
G75*
G02X60250Y8790I2000J-789*
G01*
Y10196*
G75*
G02X56614Y11750I-1486J1554*
G01*
G75*
G02X57929Y13731I2150*
G01*
G75*
G02X57230Y16163I1321J1696*
G01*
G75*
G02X56133Y17569I353J1406*
G01*
G75*
G02X56134Y17639I1450J3*
G01*
X53961*
G75*
G02X53036Y18022I0J1307*
G01*
X51894Y19164*
G75*
G02X51691Y19428I925J926*
G01*
G75*
G02X49430Y20630I-811J1202*
G01*
G75*
G02X51511Y21935I1450*
G01*
Y23907*
X49381Y26038*
G75*
G02X49400Y25750I-2132J-287*
G01*
G75*
G02X45100I-2150*
G01*
G75*
G02X48480Y27513I2150*
G01*
Y28488*
G75*
G02X45098Y30250I-1232J1762*
G01*
G75*
G02X49214Y31121I2150*
G01*
X51544Y33377*
G75*
G02X50068Y35824I-526J1351*
G01*
G75*
G02X50319Y38020I1058J991*
G01*
G75*
G02X52210Y40108I1201J813*
G01*
Y43004*
G75*
G02X51316Y45737I-267J1425*
G01*
X51295Y45757*
G75*
G02X49932Y47205I87J1447*
G01*
G75*
G02X52163Y48426I1450*
G01*
G75*
G02X52621Y48129I-467J-1221*
G01*
X53654Y47096*
G75*
G02X56166Y48349I1419J300*
G01*
G75*
G02X58600Y47283I983J-1066*
G01*
G75*
G02X56056Y46331I-1450*
G01*
G75*
G02X54619Y46020I-983J1066*
G01*
G75*
G02X54825Y45315I-1101J-705*
G01*
Y33469*
G75*
G02X54427Y32529I-1307*
G01*
X52445Y30610*
G75*
G02X52828Y30293I-719J-1259*
G01*
G75*
G02X55217Y29189I939J-1105*
G01*
G75*
G02X52666Y28246I-1450*
G01*
G75*
G02X51095Y28045I-939J1105*
G01*
Y28022*
X53743Y25373*
G75*
G02X54126Y24449I-924J-925*
G01*
Y22448*
G75*
G02X56002Y20497I563J-1336*
G01*
X56519Y21015*
G75*
G02X57445Y21400I926J-923*
G01*
X57589*
G75*
G02X60250Y22019I1707J-1307*
G01*
Y50203*
X34411*
G75*
G02X34737Y49388I-1120J-921*
G01*
G75*
G02X36363Y48139I188J-1438*
G01*
X42224Y42277*
G75*
G02X42561Y41464I-813J-813*
G01*
Y31333*
G75*
G02X42467Y29456I-1150J-883*
G01*
G75*
G02X43287Y28150I-630J-1306*
G01*
G75*
G02X40954Y27000I-1450*
G01*
X40737*
G75*
G02X39924Y27337I0J1150*
G01*
X38624Y28637*
G75*
G02X38287Y29450I813J813*
G01*
Y40193*
X32478Y46002*
G75*
G02X32141Y46815I813J813*
G01*
Y48398*
G75*
G02X32172Y50203I1150J883*
G01*
X10722*
G75*
G02X10970Y49754I-1126J-913*
G01*
G75*
G02X13900Y47750I780J-2004*
G01*
G75*
G02X9600I-2150*
G01*
G75*
G02X9602Y47839I2149J-3*
G01*
G75*
G02X9398Y47853I-5J1450*
G01*
G75*
G02X9400Y47750I-2150J-101*
G01*
G75*
G02X5100I-2150*
G01*
G75*
G02X8200Y49679I2150*
G01*
G75*
G02X8470Y50203I1396J-389*
G01*
X1250*
Y9290*
G75*
G02X4900Y7750I1500J-1540*
G01*
G75*
G02X1250Y6210I-2150*
G01*
Y4290*
X1643Y27736D02*
G75*
G02X4543I1450D01*
G01*
G75*
G02X1643I-1450*
G01*
X5100Y43250D02*
G75*
G02X9400I2150D01*
G01*
G75*
G02X5100I-2150*
G01*
X10200Y41613D02*
G75*
G02X12987Y41050I1336J-563D01*
G01*
G75*
G02X10901Y39747I-1450*
G01*
G75*
G02X8115Y40310I-1336J563*
G01*
G75*
G02X10200Y41613I1450*
G01*
X11294Y9676D02*
G75*
G02X11015Y10531I1171J856D01*
G01*
G75*
G02X13915I1450*
G01*
G75*
G02X13490Y9506I-1450*
G01*
G75*
G02X14400Y7750I-1240J-1756*
G01*
G75*
G02X10100I-2150*
G01*
G75*
G02X11294Y9676I2150*
G01*
X14084Y47750D02*
G75*
G02X18384I2150D01*
G01*
G75*
G02X14084I-2150*
G01*
X17087Y44350D02*
G75*
G02X19987I1450D01*
G01*
G75*
G02X17087I-1450*
G01*
X18600Y47750D02*
G75*
G02X22900I2150D01*
G01*
G75*
G02X18600I-2150*
G01*
X31486Y31357D02*
G75*
G02X34386I1450D01*
G01*
G75*
G02X31486I-1450*
G01*
X35512Y17538D02*
G75*
G02X38412I1450D01*
G01*
G75*
G02X35512I-1450*
G01*
X40020Y22701D02*
G75*
G02X42920I1450D01*
G01*
G75*
G02X40020I-1450*
G01*
X41015Y48719D02*
G75*
G02X43915I1450D01*
G01*
G75*
G02X41015I-1450*
G01*
X45100Y21250D02*
G75*
G02X49400I2150D01*
G01*
G75*
G02X45100I-2150*
G01*
X56664Y29498D02*
G75*
G02X59564I1450D01*
G01*
G75*
G02X56664I-1450*
G01*
X1250Y27736D02*
G36*
Y9290D01*
G75*
G02X4631Y8791I1500J-1540*
G01*
X10369*
G75*
G02X11294Y9676I1881J-1041*
G01*
G75*
G02X11015Y10531I1171J856*
G01*
G75*
G02X13915I1450*
G01*
G75*
G02X13490Y9506I-1450*
G01*
G75*
G02X14131Y8791I-1240J-1756*
G01*
X14847*
G75*
G02X16697Y9939I1903J-1001*
G01*
G75*
G02X19128Y11283I1417J307*
G01*
G75*
G02X21113Y11323I1014J-1037*
G01*
X23378*
G75*
G02X22187Y12750I259J1427*
G01*
G75*
G02X23946Y14167I1450*
G01*
Y14618*
G75*
G02X24191Y16811I1057J992*
G01*
X24099Y16900*
G75*
G02X23779Y17657I738J757*
G01*
Y26179*
G75*
G02X21922Y28394I-843J1180*
G01*
G75*
G02X23779Y30602I1041J1009*
G01*
Y32358*
G75*
G02X23431Y32992I1057J992*
G01*
X23235Y32796*
G75*
G02X22422Y32459I-813J813*
G01*
X21037*
X20058Y31481*
Y28833*
G75*
G02X19721Y28020I-1150J0*
G01*
X14250Y22550*
G75*
G02X13809Y22274I-813J813*
G01*
G75*
G02X11708Y24260I-972J1076*
G01*
G75*
G02X11558Y26520I829J1190*
G01*
G75*
G02X10744Y27448I578J1330*
G01*
X10424Y27767*
G75*
G02X7760Y27736I-1339J557*
G01*
X4543*
G75*
G02X1643I-1450*
G01*
X1250*
G37*
X1643D02*
G36*
G75*
G02X4543I1450D01*
G01*
X7760*
G75*
G02X7635Y28324I1326J588*
G01*
G75*
G02X9779Y29597I1450*
G01*
Y32151*
G75*
G02X10090Y32900I1057*
G01*
X11874Y34680*
G75*
G02X11061Y35982I637J1303*
G01*
G75*
G02X13815Y36615I1450*
G01*
X17890Y40680*
X12939*
G75*
G02X10901Y39747I-1402J370*
G01*
G75*
G02X8115Y40310I-1336J563*
G01*
G75*
G02X8163Y40680I1450*
G01*
X1250*
Y27736*
X1643*
G37*
X1250Y43250D02*
G36*
Y40680D01*
X8163*
G75*
G02X10200Y41613I1402J-370*
G01*
G75*
G02X12987Y41050I1336J-563*
G01*
G75*
G02X12939Y40680I-1450*
G01*
X17890*
X20466Y43250*
X19481*
G75*
G02X17592I-945J1100*
G01*
X9400*
G75*
G02X5100I-2150*
G01*
X1250*
G37*
X5100D02*
G36*
G75*
G02X9400I2150D01*
G01*
X17592*
G75*
G02X17087Y44350I945J1100*
G01*
G75*
G02X19987I1450*
G01*
G75*
G02X19481Y43250I-1450*
G01*
X20466*
X23614Y46390*
G75*
G02X23130Y47750I1666J1360*
G01*
X22900*
G75*
G02X18600I-2150*
G01*
X18384*
G75*
G02X14084I-2150*
G01*
X13900*
G75*
G02X9600I-2150*
G01*
G75*
G02X9602Y47839I2149J-3*
G01*
G75*
G02X9398Y47853I-5J1450*
G01*
G75*
G02X9400Y47750I-2150J-101*
G01*
G75*
G02X5100I-2150*
G01*
G75*
G02X8200Y49679I2150*
G01*
G75*
G02X8470Y50203I1396J-389*
G01*
X1250*
Y43250*
X5100*
G37*
X4631Y8791D02*
G36*
G75*
G02X4900Y7750I-1881J-1041D01*
G01*
G75*
G02X1250Y6210I-2150*
G01*
Y4290*
G75*
G02X4439Y4080I1500J-1540*
G01*
X12821*
X15124Y6383*
G75*
G02X14847Y8791I1626J1406*
G01*
X14131*
G75*
G02X14400Y7750I-1881J-1041*
G01*
G75*
G02X10100I-2150*
G01*
G75*
G02X10369Y8791I2150J0*
G01*
X4631*
G37*
X14084Y47750D02*
G36*
G75*
G02X18384I2150D01*
G01*
X18600*
G75*
G02X22900I2150*
G01*
X23130*
G75*
G02X27430I2150*
G01*
G75*
G02X27379Y47286I-2150J1*
G01*
G75*
G02X27663Y47236I-111J-1447*
G01*
G75*
G02X27600Y47750I2087J515*
G01*
G75*
G02X31900I2150*
G01*
G75*
G02X31173Y46138I-2150*
G01*
G75*
G02X31678Y44582I-886J-1148*
G01*
X33386*
G75*
G02X34199Y44245I0J-1150*
G01*
X36002Y42443*
G75*
G02X36339Y41630I-813J-813*
G01*
Y37843*
G75*
G02X36465Y37250I-1323J-593*
G01*
G75*
G02X33565I-1450*
G01*
G75*
G02X34039Y38322I1450*
G01*
Y41154*
X33309Y41883*
G75*
G02X33317Y41740I-1443J-143*
G01*
G75*
G02X30417I-1450*
G01*
G75*
G02X30522Y42282I1450J0*
G01*
X30150*
G75*
G02X27446Y41242I-1374J-462*
G01*
X26803Y40598*
G75*
G02X28033Y38500I-66J-1448*
G01*
G75*
G02X29729Y38331I732J-1252*
G01*
G75*
G02X32284Y37393I1105J-939*
G01*
G75*
G02X31860Y36368I-1450*
G01*
G75*
G02X30349Y33924I-924J-1118*
G01*
G75*
G02X30077Y32360I-1331J-574*
G01*
G75*
G02X30487Y31357I-1041J-1010*
G01*
X31486*
G75*
G02X34386I1450*
G01*
X38287*
Y40193*
X32478Y46002*
G75*
G02X32141Y46815I813J813*
G01*
Y48398*
G75*
G02X32172Y50203I1150J883*
G01*
X10722*
G75*
G02X10970Y49754I-1126J-913*
G01*
G75*
G02X13900Y47750I780J-2004*
G01*
X14084*
G37*
X36752D02*
G36*
X42224Y42277D01*
G75*
G02X42561Y41464I-813J-813*
G01*
Y31333*
G75*
G02X42467Y29456I-1150J-883*
G01*
G75*
G02X43287Y28150I-630J-1306*
G01*
G75*
G02X40954Y27000I-1450*
G01*
X40737*
G75*
G02X39924Y27337I0J1150*
G01*
X38624Y28637*
G75*
G02X38287Y29450I813J813*
G01*
Y31357*
X34386*
G75*
G02X31486I-1450*
G01*
X30487*
G75*
G02X29937Y30213I-1450J-7*
G01*
Y26850*
G75*
G02X29673Y26214I-900J0*
G01*
X29201Y25742*
Y22701*
X40020*
G75*
G02X42920I1450*
G01*
X45663*
G75*
G02X48837I1587J-1451*
G01*
X51511*
Y23907*
X49381Y26038*
G75*
G02X49400Y25750I-2132J-287*
G01*
G75*
G02X45100I-2150*
G01*
G75*
G02X48480Y27513I2150*
G01*
Y28488*
G75*
G02X45098Y30250I-1232J1762*
G01*
G75*
G02X49214Y31121I2150*
G01*
X51544Y33377*
G75*
G02X50068Y35824I-526J1351*
G01*
G75*
G02X50319Y38020I1058J991*
G01*
G75*
G02X52210Y40108I1201J813*
G01*
Y43004*
G75*
G02X51316Y45737I-267J1425*
G01*
X51295Y45757*
G75*
G02X49932Y47205I87J1447*
G01*
G75*
G02X50038Y47750I1450J0*
G01*
X43543*
G75*
G02X41386I-1078J969*
G01*
X36752*
G37*
X41386D02*
G36*
G75*
G02X41015Y48719I1078J969D01*
G01*
G75*
G02X43915I1450*
G01*
G75*
G02X43543Y47750I-1450*
G01*
X50038*
G75*
G02X52163Y48426I1344J-545*
G01*
G75*
G02X52621Y48129I-467J-1221*
G01*
X53654Y47096*
G75*
G02X56166Y48349I1419J300*
G01*
G75*
G02X58600Y47283I983J-1066*
G01*
G75*
G02X56056Y46331I-1450*
G01*
G75*
G02X54619Y46020I-983J1066*
G01*
G75*
G02X54825Y45315I-1101J-705*
G01*
Y33469*
G75*
G02X54427Y32529I-1307*
G01*
X52445Y30610*
G75*
G02X52828Y30293I-719J-1259*
G01*
G75*
G02X55184Y29498I939J-1105*
G01*
X56664*
G75*
G02X59564I1450*
G01*
X60250*
Y50203*
X34411*
G75*
G02X34737Y49388I-1120J-921*
G01*
G75*
G02X36363Y48139I188J-1438*
G01*
X36752Y47750*
X41386*
G37*
X29201Y17538D02*
G36*
Y16219D01*
X29406Y16015*
G75*
G02X31938Y16520I1395J-394*
G01*
X33183*
G75*
G02X33819Y16256I0J-900*
G01*
X38046Y12030*
G75*
G02X39276Y9900I-50J-1449*
G01*
G75*
G02X41375Y8077I-26J-2150*
G01*
G75*
G02X44141Y7469I1316J-609*
G01*
G75*
G02X41293Y7081I-1450*
G01*
G75*
G02X37100Y7750I-2043J669*
G01*
G75*
G02X37640Y9175I2150*
G01*
G75*
G02X36591Y10939I356J1406*
G01*
X36407Y11123*
G75*
G02X35957Y9580I-1383J-434*
G01*
G75*
G02X36947Y7770I-1160J-1810*
G01*
G75*
G02X32647I-2150*
G01*
G75*
G02X33930Y9737I2150*
G01*
G75*
G02X35458Y12072I1094J952*
G01*
X32810Y14720*
X31938*
G75*
G02X31196Y14225I-1137J900*
G01*
X32337Y13083*
G75*
G02X32601Y12446I-636J-637*
G01*
Y11539*
G75*
G02X32130Y8813I-665J-1289*
G01*
G75*
G02X32400Y7770I-1880J-1043*
G01*
G75*
G02X28100I-2150*
G01*
G75*
G02X29427Y9756I2150*
G01*
Y10590*
G75*
G02X27137Y11772I-840J1182*
G01*
G75*
G02X28002Y13099I1450J0*
G01*
X26226Y14829*
G75*
G02X26061Y14618I-1221J782*
G01*
Y11289*
G75*
G02X25763Y10553I-1057*
G01*
X24996Y9763*
G75*
G02X27900Y7750I754J-2013*
G01*
G75*
G02X23600I-2150*
G01*
G75*
G02X24183Y9222I2150*
G01*
G75*
G02X24010Y9208I-172J1043*
G01*
X22830*
G75*
G02X20951Y5621I-1580J-1458*
G01*
G75*
G02X18052Y5679I-1449J58*
G01*
G75*
G02X18054Y5750I1453J3*
G01*
G75*
G02X17705Y5146I-1304J350*
G01*
X14335Y1776*
G75*
G02X13380Y1380I-954J955*
G01*
X4407*
G75*
G02X4290Y1250I-1657J1369*
G01*
X45210*
G75*
G02X44600Y2750I1540J1500*
G01*
G75*
G02X48750Y3539I2150*
G01*
G75*
G02X49507Y4505I2000J-789*
G01*
Y7666*
X49378Y7796*
G75*
G02Y7750I-2156J-23*
G01*
G75*
G02X45078I-2150*
G01*
G75*
G02X45483Y9006I2150*
G01*
X45339*
G75*
G02X44591Y9315J1057*
G01*
X42734Y11172*
G75*
G02X40060Y11949I-1224J777*
G01*
G75*
G02X42116Y13266I1450*
G01*
Y15995*
X41546Y16560*
G75*
G02X40215Y17538I41J1450*
G01*
X38412*
G75*
G02X35512I-1450*
G01*
X29201*
G37*
X35512D02*
G36*
G75*
G02X38412I1450D01*
G01*
X40215*
G75*
G02X40137Y18010I1371J471*
G01*
G75*
G02X43036Y18061I1450*
G01*
X43918Y17185*
G75*
G02X44231Y16435I-745J-750*
G01*
Y14525*
G75*
G02X45727Y13759I210J-1435*
G01*
G75*
G02X48008Y14265I1531J-1509*
G01*
G75*
G02X48101Y14776I1450J-1*
G01*
G75*
G02X45100Y16750I-851J1974*
G01*
G75*
G02X49400I2150*
G01*
G75*
G02X49110Y15672I-2150*
G01*
G75*
G02X50908Y14264I348J-1408*
G01*
G75*
G02X49331Y12820I-1450*
G01*
G75*
G02X49030Y11032I-2074J-570*
G01*
G75*
G02X49354Y10811I-423J-969*
G01*
X51313Y8852*
G75*
G02X51622Y8104I-748J-748*
G01*
Y4715*
G75*
G02X52756Y3524I-872J-1965*
G01*
G75*
G02X56900Y2720I1994J-804*
G01*
G75*
G02X56319Y1250I-2150*
G01*
X60250*
Y5710*
G75*
G02X56750Y6461I-1500J1540*
G01*
G75*
G02X52600Y7250I-2000J789*
G01*
G75*
G02X56750Y8039I2150*
G01*
G75*
G02X60250Y8790I2000J-789*
G01*
Y10196*
G75*
G02X56614Y11750I-1486J1554*
G01*
G75*
G02X57929Y13731I2150*
G01*
G75*
G02X57230Y16163I1321J1696*
G01*
G75*
G02X56133Y17569I353J1406*
G01*
G75*
G02X56134Y17639I1450J3*
G01*
X53961*
G75*
G02X53036Y18022I0J1307*
G01*
X51894Y19164*
G75*
G02X51691Y19428I925J926*
G01*
G75*
G02X49430Y20630I-811J1202*
G01*
G75*
G02X51511Y21935I1450*
G01*
Y22701*
X48837*
G75*
G02X49400Y21250I-1587J-1451*
G01*
G75*
G02X45100I-2150*
G01*
G75*
G02X45663Y22701I2150*
G01*
X42920*
G75*
G02X40020I-1450*
G01*
X29201*
Y17538*
X35512*
G37*
X55184Y29498D02*
G36*
G75*
G02X55217Y29189I-1417J-310D01*
G01*
G75*
G02X52666Y28246I-1450*
G01*
G75*
G02X51095Y28045I-939J1105*
G01*
Y28022*
X53743Y25373*
G75*
G02X54126Y24449I-924J-925*
G01*
Y22448*
G75*
G02X56002Y20497I563J-1336*
G01*
X56519Y21015*
G75*
G02X57445Y21400I926J-923*
G01*
X57589*
G75*
G02X60250Y22019I1707J-1307*
G01*
Y29498*
X59564*
G75*
G02X56664I-1450*
G01*
X55184*
G37*
X25195Y34755D02*
G75*
G02X25894Y32358I-358J-1405D01*
G01*
Y28558*
G75*
G02X28137Y28364I1043J-1008*
G01*
Y30213*
G75*
G02X27977Y32340I900J1137*
G01*
G75*
G02X29605Y34676I1041J1010*
G01*
G75*
G02X29911Y36275I1331J574*
G01*
G75*
G02X29870Y36309I917J1114*
G01*
G75*
G02X27469Y37898I-1105J939*
G01*
G75*
G02X26246Y37785I-732J1252*
G01*
Y36283*
G75*
G02X25909Y35470I-1150J0*
G01*
X25195Y34755*
G36*
G75*
G02X25894Y32358I-358J-1405*
G01*
Y28558*
G75*
G02X28137Y28364I1043J-1008*
G01*
Y30213*
G75*
G02X27977Y32340I900J1137*
G01*
G75*
G02X29605Y34676I1041J1010*
G01*
G75*
G02X29911Y36275I1331J574*
G01*
G75*
G02X29870Y36309I917J1114*
G01*
G75*
G02X27469Y37898I-1105J939*
G01*
G75*
G02X26246Y37785I-732J1252*
G01*
Y36283*
G75*
G02X25909Y35470I-1150J0*
G01*
X25195Y34755*
G37*
D02*
D12*
X2750Y2750D03*
Y7750D03*
X7250Y43250D03*
Y47750D03*
X11750D03*
X12250Y7750D03*
X16234Y47750D03*
X16750Y7789D03*
X20750Y47750D03*
X21250Y7750D03*
X25280Y47750D03*
X25750Y7750D03*
X29750Y47750D03*
X30250Y7770D03*
X34797D03*
X39250Y7750D03*
X46750Y2750D03*
X47228Y7750D03*
X47248Y30250D03*
X47250Y16750D03*
Y21250D03*
Y25750D03*
X47258Y12250D03*
X50750Y2750D03*
X54750Y2720D03*
Y7250D03*
X58750Y2750D03*
Y7250D03*
X58764Y11750D03*
X59250Y15427D03*
X59295Y20093D03*
D02*
D14*
X13437Y23363D02*
X18908Y28833D01*
Y31957*
X20560Y33609*
X22422*
X25096Y36283*
Y40518*
X28010Y43432*
X33386*
X35189Y41630*
Y37423*
X33291Y49281D02*
Y46815D01*
X39437Y40669*
Y29450*
X40737Y28150*
X41837*
X41411Y30450D02*
Y41464D01*
X34925Y47950*
X51697Y47205D02*
X53035Y45866D01*
X53518Y45315*
Y34665*
X53400Y34547*
Y33469*
X49787Y29856*
Y27480*
X52819Y24449*
Y20089*
X53961Y18947*
X56303*
Y18951*
X57445Y20093*
X59295*
D02*
D15*
X16750Y7789D02*
Y6100D01*
X13380Y2730*
X2770*
D02*
D95*
X3093Y27736D03*
X3137Y40706D03*
X9085Y28324D03*
X9565Y40310D03*
X9596Y49289D03*
X11537Y41050D03*
X12137Y27850D03*
Y30250D03*
X12270Y13695D03*
X12465Y10531D03*
X12511Y35982D03*
X12537Y25450D03*
X12837Y23350D03*
X15137Y27350D03*
X18114Y10246D03*
X18537Y44350D03*
X19502Y5679D03*
X20142Y10246D03*
X21037Y31250D03*
X21137Y35350D03*
X22937Y27359D03*
X22963Y29404D03*
X23054Y37274D03*
X23137Y23550D03*
X23637Y12750D03*
X24837Y33350D03*
X25004Y15610D03*
X26737Y39150D03*
X26930Y33370D03*
X26937Y27550D03*
X27031Y10207D03*
X27267Y45841D03*
X28587Y11772D03*
X28765Y37248D03*
X28776Y41820D03*
X29018Y33350D03*
X29037Y31350D03*
X30287Y44990D03*
X30801Y15620D03*
X30834Y37393D03*
X30937Y35250D03*
X31867Y41740D03*
X31937Y10250D03*
X32632Y6372D03*
X32934Y37185D03*
X32936Y31357D03*
X33291Y49281D03*
X34925Y47950D03*
X35015Y37250D03*
X35024Y10689D03*
X36962Y17538D03*
X37996Y10581D03*
X41411Y30450D03*
X41470Y22701D03*
X41498Y20333D03*
X41510Y11949D03*
X41587Y18010D03*
X41837Y28150D03*
X42465Y48719D03*
X42691Y7469D03*
X44441Y13091D03*
X49458Y14264D03*
X50880Y20630D03*
X51018Y34728D03*
X51126Y36815D03*
X51382Y47205D03*
X51520Y38833D03*
X51726Y29350D03*
X51943Y44429D03*
X53767Y29189D03*
X54689Y21112D03*
X55073Y47397D03*
X57150Y47283D03*
X57583Y17569D03*
X58114Y29498D03*
X60024Y28740D03*
D02*
D96*
X2770Y2730D02*
X2750Y2750D01*
X12137Y27850D02*
X11837D01*
X10837Y28850*
Y32151*
X10871*
X24886Y46165*
Y47356*
X25280Y47750*
X12537Y25450D02*
Y26150D01*
X13437Y27050*
Y33550*
X24397Y44511*
X27828*
X29305Y45988*
Y47305*
X29750Y47750*
X12837Y23350D02*
Y23363D01*
X13437*
X24837Y33350D02*
X24984D01*
Y17657*
X30484Y12157*
Y8004*
X30250Y7770*
X25004Y15610D02*
X25033D01*
Y11289*
X24010Y10266*
Y10246*
X20142*
X29037Y31350D02*
Y26850D01*
X28301Y26115*
Y15846*
X31701Y12446*
Y10250*
X31937*
X30801Y15620D02*
X33183D01*
X37996Y10807*
Y10581*
X35189Y37423D02*
X35015Y37250D01*
X41587Y18010D02*
X41598D01*
X43173Y16435*
Y12228*
X45339Y10063*
X48606*
X50565Y8104*
Y2935*
X50750Y2750*
X51382Y47205D02*
X51697D01*
X0Y0D02*
M02*
