%FSLAX35Y35*%
%MOIN*%
G04 EasyPC Gerber Version 18.0.9 Build 3640 *
%ADD91R,0.00984X0.01575*%
%ADD29R,0.01000X0.01000*%
%ADD94R,0.01969X0.03937*%
%ADD89R,0.02165X0.03150*%
%ADD93R,0.03937X0.04291*%
%ADD96C,0.00300*%
%ADD73C,0.00400*%
%ADD10C,0.00500*%
%ADD16C,0.00600*%
%ADD85C,0.00700*%
%ADD14C,0.00800*%
%ADD84C,0.01000*%
%ADD95C,0.01400*%
%ADD12C,0.02800*%
%ADD27R,0.01000X0.01000*%
%ADD92R,0.02756X0.01575*%
%ADD88R,0.03500X0.02800*%
%ADD90R,0.04291X0.03937*%
X0Y0D02*
D02*
D10*
X1250Y4290D02*
G75*
G02X4290Y1250I1500J-1540D01*
G01*
X9923*
Y6053*
X10215*
G75*
G02X11073Y10124I2035J1697*
G01*
G75*
G02X11015Y10531I1391J407*
G01*
G75*
G02X13915I1450*
G01*
G75*
G02X13777Y9916I-1450J0*
G01*
G75*
G02X14193Y9552I-1528J-2166*
G01*
X14647Y10007*
Y12524*
G75*
G02X14927Y13201I957J0*
G01*
X14991Y13264*
G75*
G02X13608Y13137I-823J1372*
G01*
G75*
G02X10820Y13695I-1338J558*
G01*
G75*
G02X10823Y13798I1448J2*
G01*
X10421Y14200*
X9888*
Y13900*
X8087*
Y13400*
X4587*
Y15900*
X4486*
Y19400*
X7986*
Y18900*
X9785*
Y18500*
X13170*
G75*
G02X13167Y18573I997J74*
G01*
G75*
G02X13991Y19557I1000*
G01*
G75*
G02Y21526I177J984*
G01*
G75*
G02X13318Y21982I177J985*
G01*
G75*
G02X11708Y24260I-481J1368*
G01*
G75*
G02X11558Y26520I829J1190*
G01*
G75*
G02X10775Y27351I578J1330*
G01*
G75*
G02X7642Y27013I-1690J973*
G01*
Y20850*
X1250*
Y9935*
G75*
G02X5400Y7750I1500J-2185*
G01*
G75*
G02X1250Y5565I-2650*
G01*
Y4290*
G36*
G75*
G02X4290Y1250I1500J-1540*
G01*
X9923*
Y6053*
X10215*
G75*
G02X11073Y10124I2035J1697*
G01*
G75*
G02X11015Y10531I1391J407*
G01*
G75*
G02X13915I1450*
G01*
G75*
G02X13777Y9916I-1450J0*
G01*
G75*
G02X14193Y9552I-1528J-2166*
G01*
X14647Y10007*
Y12524*
G75*
G02X14927Y13201I957J0*
G01*
X14991Y13264*
G75*
G02X13608Y13137I-823J1372*
G01*
G75*
G02X10820Y13695I-1338J558*
G01*
G75*
G02X10823Y13798I1448J2*
G01*
X10421Y14200*
X9888*
Y13900*
X8087*
Y13400*
X4587*
Y15900*
X4486*
Y19400*
X7986*
Y18900*
X9785*
Y18500*
X13170*
G75*
G02X13167Y18573I997J74*
G01*
G75*
G02X13991Y19557I1000*
G01*
G75*
G02Y21526I177J984*
G01*
G75*
G02X13318Y21982I177J985*
G01*
G75*
G02X11708Y24260I-481J1368*
G01*
G75*
G02X11558Y26520I829J1190*
G01*
G75*
G02X10775Y27351I578J1330*
G01*
G75*
G02X7642Y27013I-1690J973*
G01*
Y20850*
X1250*
Y9935*
G75*
G02X5400Y7750I1500J-2185*
G01*
G75*
G02X1250Y5565I-2650*
G01*
Y4290*
G37*
Y27642D02*
X1646D01*
G75*
G02X1643Y27736I1446J96*
G01*
G75*
G02X1780Y28350I1450J0*
G01*
X1705*
Y34142*
X4083*
X5275Y35333*
Y35955*
X2557*
Y38455*
X2807*
Y39294*
G75*
G02X1687Y40706I329J1412*
G01*
G75*
G02X4587I1450*
G01*
G75*
G02X4586Y40663I-1453J5*
G01*
G75*
G02X4807Y40035I-778J-628*
G01*
Y38455*
X7356*
Y38083*
X8577*
G75*
G02X9254Y37803I0J-957*
G01*
X10615Y36441*
G75*
G02X13296Y37767I1895J-459*
G01*
G75*
G02X13422Y38925I872J491*
G01*
G75*
G02X12670Y40145I745J1302*
G01*
G75*
G02X11384Y39608I-1133J905*
G01*
G75*
G02X7615Y40310I-1819J702*
G01*
G75*
G02X7818Y41176I1950*
G01*
G75*
G02X5100Y43250I-568J2074*
G01*
G75*
G02X9400I2150*
G01*
G75*
G02X9132Y42211I-2150J0*
G01*
G75*
G02X10473Y42035I432J-1902*
G01*
G75*
G02X11532Y42500I1064J-986*
G01*
X11659Y42628*
G75*
G02X12337Y42908I678J-677*
G01*
X15537*
G75*
G02X16214Y42628I0J-957*
G01*
X16813Y42028*
G75*
G02X17093Y41351I-678J-677*
G01*
Y40515*
G75*
G02X17120Y40403I-958J-289*
G01*
G75*
G02X19089I984J-177*
G01*
G75*
G02X20504Y41129I984J-177*
G01*
X18721Y42912*
G75*
G02X17494Y45357I-184J1438*
G01*
X17079Y45773*
G75*
G02X14084Y47750I-844J1977*
G01*
G75*
G02X18384I2150*
G01*
G75*
G02X18211Y46904I-2150*
G01*
X18466Y46648*
X18904*
G75*
G02X18600Y47750I1846J1102*
G01*
G75*
G02X22900I2150*
G01*
G75*
G02X22852Y47300I-2150*
G01*
X23177*
G75*
G02X23130Y47750I2102J450*
G01*
G75*
G02X27430I2150*
G01*
G75*
G02X27379Y47286I-2150J1*
G01*
G75*
G02X27663Y47236I-111J-1447*
G01*
G75*
G02X27600Y47750I2087J515*
G01*
G75*
G02X31900I2150*
G01*
G75*
G02X31173Y46138I-2150*
G01*
G75*
G02X29795Y43626I-886J-1148*
G01*
X29343Y43154*
G75*
G02X30092Y41211I-568J-1335*
G01*
G75*
G02X30185Y41189I-176J-983*
G01*
X30446Y41450*
G75*
G02X30417Y41740I1420J289*
G01*
G75*
G02X33317I1450*
G01*
G75*
G02X32799Y40630I-1450*
G01*
G75*
G02X32868Y40403I-916J-402*
G01*
G75*
G02X34837I984J-177*
G01*
G75*
G02X36805I984J-177*
G01*
G75*
G02X38456Y40972I984J-177*
G01*
G75*
G02X41056Y40978I1302J-745*
G01*
X45135Y45057*
X43118*
Y46882*
G75*
G02X42409Y46770I-653J1837*
G01*
Y44557*
X35618*
Y46676*
G75*
G02X33479Y47844I-693J1274*
G01*
G75*
G02X32172Y50203I-188J1438*
G01*
X11319*
G75*
G02X11454Y49880I-1723J-912*
G01*
G75*
G02X13900Y47750I296J-2130*
G01*
G75*
G02X9639Y47339I-2150*
G01*
G75*
G02X9363Y47353I-41J1948*
G01*
G75*
G02X5100Y47750I-2113J397*
G01*
G75*
G02X7728Y49846I2150*
G01*
G75*
G02X7873Y50203I1868J-556*
G01*
X1250*
Y27642*
G36*
X1646*
G75*
G02X1643Y27736I1446J96*
G01*
G75*
G02X1780Y28350I1450J0*
G01*
X1705*
Y34142*
X4083*
X5275Y35333*
Y35955*
X2557*
Y38455*
X2807*
Y39294*
G75*
G02X1687Y40706I329J1412*
G01*
G75*
G02X4587I1450*
G01*
G75*
G02X4586Y40663I-1453J5*
G01*
G75*
G02X4807Y40035I-778J-628*
G01*
Y38455*
X7356*
Y38083*
X8577*
G75*
G02X9254Y37803I0J-957*
G01*
X10615Y36441*
G75*
G02X13296Y37767I1895J-459*
G01*
G75*
G02X13422Y38925I872J491*
G01*
G75*
G02X12670Y40145I745J1302*
G01*
G75*
G02X11384Y39608I-1133J905*
G01*
G75*
G02X7615Y40310I-1819J702*
G01*
G75*
G02X7818Y41176I1950*
G01*
G75*
G02X5100Y43250I-568J2074*
G01*
G75*
G02X9400I2150*
G01*
G75*
G02X9132Y42211I-2150J0*
G01*
G75*
G02X10473Y42035I432J-1902*
G01*
G75*
G02X11532Y42500I1064J-986*
G01*
X11659Y42628*
G75*
G02X12337Y42908I678J-677*
G01*
X15537*
G75*
G02X16214Y42628I0J-957*
G01*
X16813Y42028*
G75*
G02X17093Y41351I-678J-677*
G01*
Y40515*
G75*
G02X17120Y40403I-958J-289*
G01*
G75*
G02X19089I984J-177*
G01*
G75*
G02X20504Y41129I984J-177*
G01*
X18721Y42912*
G75*
G02X17494Y45357I-184J1438*
G01*
X17079Y45773*
G75*
G02X14084Y47750I-844J1977*
G01*
G75*
G02X18384I2150*
G01*
G75*
G02X18211Y46904I-2150*
G01*
X18466Y46648*
X18904*
G75*
G02X18600Y47750I1846J1102*
G01*
G75*
G02X22900I2150*
G01*
G75*
G02X22852Y47300I-2150*
G01*
X23177*
G75*
G02X23130Y47750I2102J450*
G01*
G75*
G02X27430I2150*
G01*
G75*
G02X27379Y47286I-2150J1*
G01*
G75*
G02X27663Y47236I-111J-1447*
G01*
G75*
G02X27600Y47750I2087J515*
G01*
G75*
G02X31900I2150*
G01*
G75*
G02X31173Y46138I-2150*
G01*
G75*
G02X29795Y43626I-886J-1148*
G01*
X29343Y43154*
G75*
G02X30092Y41211I-568J-1335*
G01*
G75*
G02X30185Y41189I-176J-983*
G01*
X30446Y41450*
G75*
G02X30417Y41740I1420J289*
G01*
G75*
G02X33317I1450*
G01*
G75*
G02X32799Y40630I-1450*
G01*
G75*
G02X32868Y40403I-916J-402*
G01*
G75*
G02X34837I984J-177*
G01*
G75*
G02X36805I984J-177*
G01*
G75*
G02X38456Y40972I984J-177*
G01*
G75*
G02X41056Y40978I1302J-745*
G01*
X45135Y45057*
X43118*
Y46882*
G75*
G02X42409Y46770I-653J1837*
G01*
Y44557*
X35618*
Y46676*
G75*
G02X33479Y47844I-693J1274*
G01*
G75*
G02X32172Y50203I-188J1438*
G01*
X11319*
G75*
G02X11454Y49880I-1723J-912*
G01*
G75*
G02X13900Y47750I296J-2130*
G01*
G75*
G02X9639Y47339I-2150*
G01*
G75*
G02X9363Y47353I-41J1948*
G01*
G75*
G02X5100Y47750I-2113J397*
G01*
G75*
G02X7728Y49846I2150*
G01*
G75*
G02X7873Y50203I1868J-556*
G01*
X1250*
Y27642*
G37*
X4423Y33209D02*
X6175Y34961D01*
Y37137*
X5007Y24246D02*
X9085Y28324D01*
X14167Y14636D03*
Y16604D03*
Y18573D03*
Y20541D03*
Y22510D03*
Y24478D03*
Y26447D03*
Y28415D03*
Y30384D03*
Y32352D03*
Y34321D03*
Y36289D03*
Y38258D03*
Y40226D03*
X16126Y22510D02*
X15152Y21535D01*
X11972*
X10201Y23307*
Y27209*
X9085Y28324*
X16136Y14636D03*
Y16604D03*
Y18573D03*
Y20541D03*
Y22510D03*
Y24478D03*
Y26447D03*
Y28415D03*
Y30384D03*
Y32352D03*
Y34321D03*
Y36289D03*
Y38258D03*
Y40226D03*
X18104Y14636D03*
Y16604D03*
Y18573D03*
Y20541D03*
Y22510D03*
Y24478D03*
Y26447D03*
Y28415D03*
Y30384D03*
Y32352D03*
Y34321D03*
Y36289D03*
Y38258D03*
Y40226D03*
X20073Y14636D03*
Y16604D03*
Y18573D03*
Y20541D03*
Y22510D03*
Y24478D03*
Y26447D03*
Y28415D03*
Y30384D03*
Y32352D03*
Y34321D03*
Y36289D03*
Y38258D03*
Y40226D03*
X22041Y14636D03*
Y16604D03*
Y18573D03*
Y20541D03*
Y22510D03*
Y24478D03*
Y26447D03*
Y28415D03*
Y30384D03*
Y32352D03*
Y34321D03*
Y36289D03*
Y38258D03*
Y40226D03*
X23098Y27359D02*
X24010Y26447D01*
Y14636D03*
Y16604D03*
Y18573D03*
Y20541D03*
Y22510D03*
Y24478D03*
Y26447D02*
Y28415D01*
Y26447D03*
Y28415D02*
X25978Y30384D01*
X24010Y28415D03*
Y30384D03*
Y32352D03*
Y34321D03*
Y36289D03*
Y38258D03*
Y40226D03*
X25978Y14636D03*
Y16604D03*
Y18573D03*
Y20541D03*
Y22510D03*
Y24478D02*
X24010Y26447D01*
X25978Y24478D03*
Y26447D02*
X25888D01*
X25637Y26698*
Y28074*
X25978Y28415*
Y26447D03*
Y28415D03*
Y30384D02*
X27947D01*
X25978D03*
Y32352D03*
Y34321D03*
Y36108D02*
X26930Y35157D01*
Y33370*
X25978Y36289D03*
Y38258D03*
Y40226D03*
X26002Y28415D02*
X26437Y28850D01*
X27512*
X27947Y28415*
X27933Y26447D02*
X27537Y26050D01*
X26375*
X25978Y26447*
X27947Y14636D03*
Y16604D03*
Y18573D03*
Y20541D03*
Y22510D03*
Y24478D02*
X25978D01*
X27947D03*
Y26447D03*
Y26540D02*
X26937Y27550D01*
X27947Y28415D03*
Y30384D03*
Y32352D03*
Y34321D03*
Y36289D03*
Y38258D03*
Y40226D03*
X28113Y18573D02*
X29032Y19492D01*
X32933*
X33852Y18573*
X29915Y14636D03*
Y16604D03*
Y18573D03*
Y20541D03*
Y22510D03*
Y24478D03*
Y26447D02*
Y28415D01*
Y26447D03*
Y28415D02*
X27947Y30384D01*
X29915Y28415D03*
Y30384D03*
Y32352D03*
Y34321D03*
Y36289D03*
Y38258D03*
Y40226D03*
X31884Y14636D03*
Y16604D03*
Y18573D03*
Y20541D03*
Y22510D03*
Y24478D03*
Y26447D03*
Y28415D03*
Y30384D03*
Y32352D03*
Y34321D03*
Y36289D03*
Y38258D03*
Y40226D03*
X33852Y14636D03*
Y16604D03*
Y18573D02*
X35821D01*
X33852D02*
Y20541D01*
Y18573D03*
Y20541D03*
Y22510D02*
Y20541D01*
Y22510D03*
Y24478D03*
Y26447D03*
Y28415D03*
Y30384D03*
Y32352D02*
Y32813D01*
X32875Y33790*
Y35312*
X33852Y36289*
Y32352D03*
Y34321D03*
Y36289D02*
Y36357D01*
X33026Y37184*
X35821Y34321*
X33852Y36289D03*
Y38258D03*
Y40226D03*
X35821Y14636D03*
Y16604D03*
Y18573D03*
Y20541D03*
Y22510D03*
Y24478D03*
Y26447D03*
Y28415D03*
Y30384D03*
Y32352D03*
Y34321D03*
Y36289D03*
Y38258D03*
Y40226D03*
X35881Y20541D02*
X36835Y19587D01*
X35821Y18573*
X37536Y32352D02*
X36541Y31357D01*
X32936*
X37789Y14636D03*
Y16604D03*
Y16711D02*
X36962Y17538D01*
X37789Y18573D03*
Y20541D03*
Y22510D03*
Y24478D03*
Y26447D03*
Y28415D03*
Y30384D03*
Y32352D03*
Y32485D02*
X38703Y33399D01*
Y35376*
X37789Y36289*
Y34321D03*
Y36289D03*
Y38258D03*
Y40226D03*
X39532Y18573D02*
X38403Y19702D01*
X36950*
X36835Y19587*
X39758Y14636D02*
X43045D01*
X44591Y13091*
X44441*
X39758Y14636D03*
Y16604D03*
Y18573D02*
X39878D01*
Y18594*
X41226Y19942*
Y20061*
X39758Y18573D03*
Y20541D03*
Y22510D03*
Y24478D03*
Y26447D03*
Y28415D03*
Y30384D03*
Y32352D03*
Y34321D03*
Y36289D03*
Y38258D03*
Y40226D03*
X39935Y31368D02*
G75*
G02X40217Y31272I-177J-984D01*
G01*
G75*
G02X42861Y30450I1194J-822*
G01*
G75*
G02X42467Y29456I-1450*
G01*
G75*
G02X42711Y26993I-630J-1306*
G01*
X42790*
X44490Y28693*
G75*
G02X45161Y28972I672J-672*
G01*
X45519*
G75*
G02X45098Y30250I1729J1278*
G01*
G75*
G02X49398I2150*
G01*
G75*
G02X48997Y29000I-2150*
G01*
X49808*
G75*
G02X49776Y29350I1918J351*
G01*
G75*
G02X49805Y29683I1950J-1*
G01*
X49411*
Y34333*
X49623*
G75*
G02X49750Y35433I1394J396*
G01*
G75*
G02X49276Y36200I1376J1382*
G01*
Y33474*
X45791*
Y33974*
X44717*
Y34612*
X43290*
X40702Y32024*
G75*
G02X39935Y31368I-944J328*
G01*
G36*
G75*
G02X40217Y31272I-177J-984*
G01*
G75*
G02X42861Y30450I1194J-822*
G01*
G75*
G02X42467Y29456I-1450*
G01*
G75*
G02X42711Y26993I-630J-1306*
G01*
X42790*
X44490Y28693*
G75*
G02X45161Y28972I672J-672*
G01*
X45519*
G75*
G02X45098Y30250I1729J1278*
G01*
G75*
G02X49398I2150*
G01*
G75*
G02X48997Y29000I-2150*
G01*
X49808*
G75*
G02X49776Y29350I1918J351*
G01*
G75*
G02X49805Y29683I1950J-1*
G01*
X49411*
Y34333*
X49623*
G75*
G02X49750Y35433I1394J396*
G01*
G75*
G02X49276Y36200I1376J1382*
G01*
Y33474*
X45791*
Y33974*
X44717*
Y34612*
X43290*
X40702Y32024*
G75*
G02X39935Y31368I-944J328*
G01*
G37*
X42409Y19204D02*
G75*
G02X42986Y17631I-822J-1194D01*
G01*
X45071Y19717*
G75*
G02X45541Y19946I566J-565*
G01*
G75*
G02X45494Y22491I1709J1304*
G01*
G75*
G02X45026Y22748I209J934*
G01*
X44555Y23220*
X43350*
G75*
G02X42681Y21172I-1880J-519*
G01*
G75*
G02X42409Y19204I-1183J-839*
G01*
G36*
G75*
G02X42986Y17631I-822J-1194*
G01*
X45071Y19717*
G75*
G02X45541Y19946I566J-565*
G01*
G75*
G02X45494Y22491I1709J1304*
G01*
G75*
G02X45026Y22748I209J934*
G01*
X44555Y23220*
X43350*
G75*
G02X42681Y21172I-1880J-519*
G01*
G75*
G02X42409Y19204I-1183J-839*
G01*
G37*
X45959Y35512D02*
X42917D01*
X39758Y32352*
X50732Y19187D02*
X55019Y14900D01*
X56388*
Y12150*
X56651*
G75*
G02X57929Y13731I2113J-400*
G01*
G75*
G02X57100Y15427I1321J1696*
G01*
G75*
G02X57115Y15676I2150J-1*
G01*
G75*
G02X57232Y19487I468J1893*
G01*
G75*
G02X58626Y22136I2063J606*
G01*
X55911*
Y26435*
X57427*
Y27002*
G75*
G02X57604Y27616I1150*
G01*
G75*
G02X56164Y29498I510J1882*
G01*
G75*
G02X56173Y29683I1950J2*
G01*
X55130*
G75*
G02X53715Y27739I-1363J-494*
G01*
Y26500*
X53622*
Y26435*
X55809*
Y22136*
X55716*
G75*
G02X56139Y21112I-1027J-1023*
G01*
G75*
G02X53263Y20850I-1450*
G01*
X52997Y21116*
X52246*
G75*
G02X50732Y19187I-1366J-486*
G01*
G36*
X55019Y14900*
X56388*
Y12150*
X56651*
G75*
G02X57929Y13731I2113J-400*
G01*
G75*
G02X57100Y15427I1321J1696*
G01*
G75*
G02X57115Y15676I2150J-1*
G01*
G75*
G02X57232Y19487I468J1893*
G01*
G75*
G02X58626Y22136I2063J606*
G01*
X55911*
Y26435*
X57427*
Y27002*
G75*
G02X57604Y27616I1150*
G01*
G75*
G02X56164Y29498I510J1882*
G01*
G75*
G02X56173Y29683I1950J2*
G01*
X55130*
G75*
G02X53715Y27739I-1363J-494*
G01*
Y26500*
X53622*
Y26435*
X55809*
Y22136*
X55716*
G75*
G02X56139Y21112I-1027J-1023*
G01*
G75*
G02X53263Y20850I-1450*
G01*
X52997Y21116*
X52246*
G75*
G02X50732Y19187I-1366J-486*
G01*
G37*
X52351Y35298D02*
G75*
G02X52399Y35170I-1334J-568D01*
G01*
X54034Y36805*
Y39132*
X53152*
Y43628*
G75*
G02X53077Y43525I-1209J802*
G01*
Y39132*
X52939*
G75*
G02X52691Y37978I-1419J-299*
G01*
G75*
G02X52351Y35298I-1565J-1163*
G01*
G36*
G75*
G02X52399Y35170I-1334J-568*
G01*
X54034Y36805*
Y39132*
X53152*
Y43628*
G75*
G02X53077Y43525I-1209J802*
G01*
Y39132*
X52939*
G75*
G02X52691Y37978I-1419J-299*
G01*
G75*
G02X52351Y35298I-1565J-1163*
G01*
G37*
X54249Y34333D02*
X56392D01*
Y34833*
X60537*
Y38131*
X60069Y37662*
G75*
G02X59285Y37337I-783J783*
G01*
X57543*
G75*
G02X56760Y37662J1107*
G01*
X55934Y38488*
Y36411*
G75*
G02X55656Y35740I-950*
G01*
X54249Y34333*
G36*
X56392*
Y34833*
X60537*
Y38131*
X60069Y37662*
G75*
G02X59285Y37337I-783J783*
G01*
X57543*
G75*
G02X56760Y37662J1107*
G01*
X55934Y38488*
Y36411*
G75*
G02X55656Y35740I-950*
G01*
X54249Y34333*
G37*
X55539Y5250D02*
G75*
G02X57040Y4054I-789J-2530D01*
G01*
G75*
G02X60537Y3945I1710J-1304*
G01*
Y6055*
G75*
G02X56750Y6461I-1787J1195*
G01*
G75*
G02X55539Y5250I-2000J789*
G01*
G36*
G75*
G02X57040Y4054I-789J-2530*
G01*
G75*
G02X60537Y3945I1710J-1304*
G01*
Y6055*
G75*
G02X56750Y6461I-1787J1195*
G01*
G75*
G02X55539Y5250I-2000J789*
G01*
G37*
X58902Y45009D02*
Y41634D01*
D02*
D12*
X2750Y2750D03*
Y7750D03*
X7250Y43250D03*
Y47750D03*
X11750D03*
X12250Y7750D03*
X16234Y47750D03*
X16750Y7789D03*
X20750Y47750D03*
X21250Y7750D03*
X25280Y47750D03*
X25750Y7750D03*
X29750Y47750D03*
X30250Y7770D03*
X34797D03*
X39250Y7750D03*
X46750Y2750D03*
X47228Y7750D03*
X47248Y30250D03*
X47250Y16750D03*
Y21250D03*
Y25750D03*
X47258Y12250D03*
X50750Y2750D03*
X54750Y2720D03*
Y7250D03*
X58750Y2750D03*
Y7250D03*
X58764Y11750D03*
X59250Y15427D03*
X59295Y20093D03*
D02*
D14*
X41156Y38081D02*
Y39593D01*
X46337Y44774*
X48705*
X51136Y47205*
X51382*
D02*
D16*
X8637Y15150D02*
X10815D01*
X12270Y13695*
X35015Y37250D02*
X40325D01*
X39758Y24636D02*
X41165Y26043D01*
X43183*
X45161Y28022*
X49894*
X50166Y27750*
X54984Y41004D02*
X57543Y38445D01*
X59285*
X60486Y39646*
Y48533*
X59443Y49577*
X54620*
X53787Y48744*
X52665*
X52642Y48720*
X46959*
X54984Y41457D02*
Y36411D01*
X51244Y32671*
D02*
D27*
X3807Y37205D03*
X6107D03*
X6237Y17650D03*
X6337Y15150D03*
X8537Y17650D03*
X8637Y15150D03*
X49686Y5550D03*
X49737Y8850D03*
X50067Y11950D03*
X50166Y27750D03*
X51986Y5550D03*
X52037Y8850D03*
X52367Y11950D03*
X52466Y27750D03*
D02*
D29*
X55137Y11350D03*
Y13650D03*
X58902Y45009D03*
Y47309D03*
D02*
D73*
X8537Y17650D02*
X15090D01*
X16136Y16604*
X8637Y15150D02*
Y17550D01*
X14167Y38258D02*
X16136D01*
X15137Y27350D02*
X17201D01*
X18104Y26447*
X16136Y38258D02*
Y37351D01*
X17037Y36450*
Y35850*
X17637Y35250*
X19033*
X16291Y16604D02*
X17237Y17550D01*
X19050*
X20073Y18573*
X17137Y27450D02*
Y30850D01*
X16537Y31450*
X13337*
X12937Y31850*
X10447*
X6333Y27736*
X3093*
X20073Y32514D02*
X19237Y33350D01*
Y35453*
X20073Y36289*
D02*
D84*
X2750Y8650D02*
Y10650D01*
X3650Y7750D02*
X5650D01*
X4423Y22600D02*
Y20600D01*
X5892Y24246D02*
X7892D01*
X6237Y17650D02*
Y15250D01*
Y17650D02*
X4238D01*
X6237D02*
Y19652D01*
X6337Y15150D02*
Y12598D01*
X10407Y8528*
X11472*
X12250Y7750*
X6337Y15150D02*
Y13152D01*
Y15150D02*
X4337D01*
X9085Y28124D02*
Y26124D01*
X9365Y40310D02*
X7365D01*
X9565Y40110D02*
Y38110D01*
Y40510D02*
Y42510D01*
X11350Y7750D02*
X9350D01*
X12511Y36182D02*
Y38182D01*
X14167Y14886D02*
Y12786D01*
X14344Y40403D02*
X12930Y38989D01*
X37399Y46161D02*
X35545Y44307D01*
X39581Y40050D02*
X40995Y41464D01*
X39935Y40050D02*
X38520Y41464D01*
X40629Y46161D02*
X42482Y44307D01*
X41670Y22701D02*
X43670D01*
X47533Y35224D02*
Y33224D01*
X51244Y41457D02*
Y43730D01*
X51943Y44429*
X51326Y36815D02*
X53326D01*
X51526Y29350D02*
X49526D01*
X55386Y3357D02*
X56801Y4771D01*
X57441Y17428D02*
X56027Y16013D01*
X57441Y17710D02*
X56027Y19124D01*
X57973Y29357D02*
X56559Y27943D01*
X58410Y24285D02*
X58577D01*
Y27002*
X60024Y28449*
Y28740*
X58724Y33083D02*
Y35083D01*
D02*
D85*
X3807Y37205D02*
Y40035D01*
X3137Y40706*
X14167Y14636D02*
Y9667D01*
X12250Y7750*
X40325Y37250D02*
X41156Y38081D01*
X53310Y24285D02*
X53016D01*
X52465Y24837*
Y27750*
X52466*
X54984Y41457D02*
X55516D01*
Y42451*
X58724Y32008D02*
Y32362D01*
X59118*
Y30502*
X58114Y29498*
D02*
D88*
X53310Y24285D03*
X58410D03*
D02*
D89*
X51244Y32008D03*
Y41457D03*
X54984Y32008D03*
Y41457D03*
X58724Y32008D03*
Y41457D03*
D02*
D90*
X39014Y47776D03*
X46014D03*
D02*
D91*
X45959Y35512D03*
X47533D03*
D02*
D92*
X46746Y38268D03*
D02*
D93*
X4423Y24246D03*
Y31246D03*
D02*
D94*
X11659Y3335D03*
X15989D03*
X20320D03*
X24651D03*
X27604D03*
X30359D03*
X33312D03*
X37643D03*
X41974D03*
D02*
D95*
X3093Y27736D03*
X3137Y40706D03*
X9085Y28324D03*
X9565Y40310D03*
X9596Y49289D03*
X11537Y41050D03*
X12137Y27850D03*
Y30250D03*
X12270Y13695D03*
X12465Y10531D03*
X12511Y35982D03*
X12537Y25450D03*
X12837Y23350D03*
X15137Y27350D03*
X18114Y10246D03*
X18537Y44350D03*
X19502Y5679D03*
X20142Y10246D03*
X21037Y31250D03*
X21137Y35350D03*
X22937Y27359D03*
X22963Y29404D03*
X23054Y37274D03*
X23137Y23550D03*
X23637Y12750D03*
X24837Y33350D03*
X25004Y15610D03*
X26737Y39150D03*
X26930Y33370D03*
X26937Y27550D03*
X27031Y10207D03*
X27267Y45841D03*
X28587Y11772D03*
X28765Y37248D03*
X28776Y41820D03*
X29018Y33350D03*
X29037Y31350D03*
X30287Y44990D03*
X30801Y15620D03*
X30834Y37393D03*
X30937Y35250D03*
X31867Y41740D03*
X31937Y10250D03*
X32632Y6372D03*
X32934Y37185D03*
X32936Y31357D03*
X33291Y49281D03*
X34925Y47950D03*
X35015Y37250D03*
X35024Y10689D03*
X36962Y17538D03*
X37996Y10581D03*
X41411Y30450D03*
X41470Y22701D03*
X41498Y20333D03*
X41510Y11949D03*
X41587Y18010D03*
X41837Y28150D03*
X42465Y48719D03*
X42691Y7469D03*
X44441Y13091D03*
X49458Y14264D03*
X50880Y20630D03*
X51018Y34728D03*
X51126Y36815D03*
X51382Y47205D03*
X51520Y38833D03*
X51726Y29350D03*
X51943Y44429D03*
X53767Y29189D03*
X54689Y21112D03*
X55073Y47397D03*
X57150Y47283D03*
X57583Y17569D03*
X58114Y29498D03*
X60024Y28740D03*
D02*
D96*
X4423Y24246D02*
X5007D01*
X4423Y31246D02*
Y33209D01*
X6175Y37137D02*
X6107Y37205D01*
X6237Y15250D02*
X6337Y15150D01*
X8637Y17550D02*
X8537Y17650D01*
X14167Y26447D02*
X13533D01*
X12537Y25450*
X14167Y28415D02*
X12702D01*
X12137Y27850*
X14167Y32352D02*
X13350D01*
X8577Y37126*
X6186*
X6107Y37205*
X14167Y40226D02*
X13870D01*
X12211Y38567*
Y36282*
X12511Y35982*
X15989Y3335D02*
Y4050D01*
X18783Y6844*
Y8888*
X20142Y10246*
X16136Y16604D02*
X16291D01*
X16136Y22510D02*
X16126D01*
X16136Y28415D02*
Y28451D01*
X15237Y29350*
X13037*
X12137Y30250*
X16136Y32352D02*
Y32539D01*
X15395Y33280*
X13800*
X12511Y34570*
Y35982*
X16136Y40226D02*
Y41351D01*
X15537Y41950*
X12337*
X11537Y41150*
Y41050*
X18104Y14636D02*
Y14718D01*
X19137Y15750*
X22537*
X23037Y15250*
Y13350*
X23637Y12750*
X18104Y14636D02*
X17922D01*
X18104Y18573D02*
X17970D01*
X17081Y19463*
Y21565*
X16136Y22510*
X18104Y26447D02*
Y26482D01*
X17137Y27450*
X18104Y36289D02*
Y36819D01*
X17077Y37846*
Y38895*
X16595Y39377*
X15017*
X14167Y40226*
X18104Y38258D02*
X18129D01*
X19137Y37250*
X20637*
X21037Y36850*
Y35450*
X21137Y35350*
X18104Y38258D02*
X18029D01*
X19033Y35250D02*
X20073Y36289D01*
Y14636D02*
X19970D01*
X19118Y13783*
X16864*
X15604Y12524*
Y9610*
X14522Y8528*
Y6198*
X11659Y3335*
X20073Y22510D02*
X20094D01*
X21137Y23553*
X22637*
X22639Y23550*
X23137*
X20073Y28415D02*
X20293D01*
X21371Y29493*
X22873*
X22963Y29404*
X20073Y32352D02*
Y32514D01*
X21037Y31250D02*
Y31389D01*
X20073Y32352*
X21250Y7750D02*
Y8085D01*
X21254*
X25969Y12799*
Y14409*
X25978Y14419*
Y14636*
X22041Y16604D02*
Y16845D01*
X21137Y17750*
Y19050*
X20537Y19650*
X19181*
X18104Y18573*
X22041Y28415D02*
Y28362D01*
X21161Y27481*
X19659*
X19209Y27031*
Y21924*
X19689Y21444*
X32215*
X32906Y22135*
Y22616*
X33837Y23547*
X40415*
X41046Y24178*
X44951*
X45704Y23425*
X48665*
X50017Y22073*
X53393*
X54320Y21146*
X54689*
Y21112*
X22041Y28415D02*
Y28545D01*
Y38258D02*
X22070D01*
X23054Y37274*
X22041Y40226D02*
Y40945D01*
X18637Y44350*
X18537*
X22937Y27359D02*
X23098D01*
X24010Y30384D02*
X24570D01*
X25037Y30850*
Y33350*
X24837*
X24010Y38258D02*
Y38350D01*
X25037Y39377*
Y44568*
X23262Y46343*
X22157*
X20750Y47750*
X24010Y40226D02*
Y40777D01*
X18937Y45850*
X18134*
X16234Y47750*
X25978Y18573D02*
X25992D01*
X26992Y17573*
Y12248*
X23537Y8793*
Y4448*
X24651Y3335*
X25978Y20541D02*
X25791D01*
X24768Y19518*
Y15768*
X25004Y15610*
X25978Y28415D02*
X26002D01*
X25978Y36289D02*
Y36108D01*
Y38258D02*
Y38392D01*
X26737Y39150*
X25978Y38258D02*
Y38408D01*
Y40226D02*
Y44552D01*
X27267Y45841*
X27947Y16604D02*
X27951D01*
X28852Y15703*
Y13902*
X30024Y12730*
Y10850*
X28035Y8862*
Y3767*
X27604Y3335*
X27947Y18573D02*
X28113D01*
X27947Y26447D02*
X27933D01*
X27947D02*
Y26540D01*
Y28415D02*
Y28440D01*
Y32352D02*
X28034D01*
X29037Y31350*
X27947Y36289D02*
Y36240D01*
X28837Y35350*
Y33350*
X29018*
X27947Y38258D02*
Y38067D01*
X28765Y37248*
X27947Y40226D02*
X27917D01*
Y40311*
X27319Y40909*
Y42452*
X27917Y43050*
X27937*
Y43150*
X29777Y44990*
X30287*
X28587Y11772D02*
Y11998D01*
X27976Y12608*
Y14606*
X27947Y14636*
X29915Y16604D02*
Y16506D01*
X30801Y15620*
X29915Y36289D02*
Y36271D01*
X30937Y35250*
X29915Y38258D02*
X29829D01*
X28837Y39250*
Y41759*
X28776Y41820*
X29915Y40226D02*
X30353D01*
X31867Y41740*
X30359Y3335D02*
Y4100D01*
X32632Y6372*
X31884Y16604D02*
Y16634D01*
X32878Y17628*
X36872*
X36962Y17538*
X31884Y38258D02*
X31700D01*
X30834Y37393*
X32934Y37185D02*
X32957D01*
X33852Y36289*
X33312Y3335D02*
X33748D01*
X37022Y6608*
Y8691*
X35024Y10689*
X33852Y16604D02*
X34737Y15720D01*
Y14185*
X36126Y12795*
X40713*
X41510Y11949*
X35821Y20541D02*
X35881D01*
X37643Y3335D02*
X38040D01*
X41254Y6549*
Y8872*
X40270Y9856*
X38720*
X37996Y10581*
X37789Y16604D02*
Y16711D01*
Y18573D02*
Y18497D01*
X38637Y17650*
X41227*
X41587Y18010*
X37789Y22510D02*
Y22448D01*
X38703Y21534*
X40304*
X41470Y22701*
X37789Y32352D02*
X37536D01*
X37789D02*
Y32485D01*
X39758Y16604D02*
X43091D01*
X45637Y19150*
X49637*
X55137Y13650*
X39758Y18573D02*
X39532D01*
X39758Y24478D02*
Y24636D01*
X41226Y20061D02*
X41498Y20333D01*
X41974Y3335D02*
Y3391D01*
X44197Y5614*
Y8892*
X42514Y10575*
X40407*
X38852Y12130*
X34390*
X31884Y14636*
X46746Y38268D02*
Y41136D01*
X51382Y45772*
X54409*
X58724Y41457*
X46959Y48720D02*
X46014Y47776D01*
X49686Y5550D02*
X50952Y6816D01*
X52460*
Y6760*
X54748Y4472*
Y2722*
X54750Y2720*
X49686Y5550D02*
Y8800D01*
X49737Y8850*
X50067Y11950D02*
Y13656D01*
X49458Y14264*
X51244Y32008D02*
X51106D01*
X51244D02*
Y31545D01*
X50663Y30965*
X51244Y32671D02*
Y32008D01*
X51986Y5550D02*
Y3986D01*
X50750Y2750*
X52037Y8850D02*
Y8350D01*
X52837Y7550*
X54450*
X54750Y7250*
X52037Y8850D02*
Y9150D01*
X50901Y10285*
X45230*
X41930Y13585*
X38840*
X37789Y14636*
X52367Y11950D02*
Y13390D01*
X51607Y14149*
X51587*
X50119Y15618*
X48971*
X47894Y14541*
X45936*
X44925Y15551*
X41835*
X41833Y15550*
X36875*
X35821Y16604*
X52367Y11950D02*
X52337D01*
Y10750*
X53637Y9450*
X56550*
X58750Y7250*
X54984Y41457D02*
Y41004D01*
X55137Y11350D02*
X58364D01*
X58764Y11750*
X55191Y42598D02*
X54984D01*
Y41457*
X58902Y41634D02*
X58724Y41457D01*
X58902Y47309D02*
X57150D01*
Y47283*
X0Y0D02*
M02*
