%FSLAX35Y35*%
%MOIN*%
G04 EasyPC Gerber Version 18.0.9 Build 3640 *
%ADD17C,0.00100*%
%ADD126C,0.00118*%
%ADD26C,0.00200*%
%ADD96C,0.00300*%
%ADD125C,0.00315*%
%ADD124C,0.00354*%
%ADD10C,0.00500*%
X0Y0D02*
D02*
D10*
X1175Y49556D02*
Y47656D01*
X5175*
Y49556*
X1175*
X4637Y5650D02*
X7437D01*
Y11650*
X4637*
Y5650*
X5387Y12100D02*
X10687D01*
Y24400*
X5387*
Y12100*
X5887Y22600D02*
X8387D01*
X5907Y33896D02*
X607D01*
Y21596*
X5907*
Y33896*
X5917Y46856D02*
X617D01*
Y34556*
X5917*
Y46856*
X6437Y29139D02*
X10237D01*
Y38739*
X6437*
Y29139*
Y30639D02*
X8937D01*
X6637Y27350D02*
Y25450D01*
X10637*
Y27350*
X6637*
X7137Y21350D02*
Y23850D01*
X7687Y29389D02*
Y31889D01*
X8037Y5650D02*
X10837D01*
Y11650*
X8037*
Y5650*
X9574Y18475D02*
X9887Y18787D01*
X10199Y19413*
Y20350*
X9887Y20975*
X9574Y21287*
X8949Y21600*
X7699*
X7074Y21287*
X6761Y20975*
X6449Y20350*
Y19413*
X6761Y18787*
X7074Y18475*
X9887Y16287D02*
X10199Y15663D01*
Y15037*
X9887Y14413*
X9261Y14100*
X8637Y14413*
X8324Y15037*
Y15663*
Y15037D02*
X8011Y14413D01*
X7387Y14100*
X6761Y14413*
X6449Y15037*
Y15663*
X6761Y16287*
X12887Y1250D02*
Y3750D01*
X14137Y2500D02*
X11637D01*
X14387Y1250D02*
Y5050D01*
X4787*
Y1250*
X14387*
X14886Y5587D02*
Y3687D01*
X18886*
Y5587*
X14886*
X14945Y3350D02*
Y1450D01*
X18945*
Y3350*
X14945*
X15737Y35350D02*
X13837D01*
Y31350*
X15737*
Y35350*
X16537Y26160D02*
X18437D01*
Y30160*
X16537*
Y26160*
X18537Y35350D02*
X16637D01*
Y31350*
X18537*
Y35350*
X19237Y26150D02*
X21137D01*
Y30150*
X19237*
Y26150*
X20337Y42450D02*
X13644D01*
Y37332*
X18368*
X20337Y39300*
Y42450*
X22120Y42333D02*
Y40433D01*
X26120*
Y42333*
X22120*
X22169Y44882D02*
Y42982D01*
X26169*
Y44882*
X22169*
X24238Y24380D02*
X12427D01*
Y12569*
X21384*
X24238Y15423*
Y24380*
X26837Y35050D02*
Y36950D01*
X22837*
Y35050*
X26837*
X28287Y1650D02*
Y4150D01*
X28437Y40650D02*
Y38750D01*
X32437*
Y40650*
X28437*
X29537Y2900D02*
X27037D01*
X29787Y1650D02*
Y5450D01*
X20187*
Y1650*
X29787*
X31937Y43950D02*
X33837D01*
Y47950*
X31937*
Y43950*
X32437Y5709D02*
X30537D01*
Y1709*
X32437*
Y5709*
X33037Y1770D02*
X34937D01*
Y5770*
X33037*
Y1770*
X33237Y38750D02*
X35137D01*
Y42750*
X33237*
Y38750*
X34287Y11300D02*
X39587D01*
Y23600*
X34287*
Y11300*
X34787Y21800D02*
X37287D01*
X35787Y5750D02*
Y1950D01*
X45387*
Y5750*
X35787*
X36037Y4500D02*
X38537D01*
X36037Y20550D02*
Y23050D01*
X37137Y48150D02*
Y32402D01*
X48948*
Y45394*
X46192Y48150*
X37137*
X37287Y5750D02*
Y3250D01*
X38737Y29450D02*
Y31350D01*
X34737*
Y29450*
X38737*
X38474Y20175D02*
X38787Y20487D01*
X39099Y21113*
Y22050*
X38787Y22675*
X38474Y22987*
X37849Y23300*
X36599*
X35974Y22987*
X35661Y22675*
X35349Y22050*
Y21113*
X35661Y20487*
X35974Y20175*
X39099Y15800D02*
Y18300D01*
X36911Y16113*
X36287Y15800*
X35661Y16113*
X35349Y16737*
Y17675*
X35661Y18300*
X37224Y12363D02*
Y11737D01*
X36911Y11113*
X36287Y10800*
X35661Y11113*
X35349Y11737*
Y12363*
X35661Y12987*
X36287Y13300*
X36911Y12987*
X37224Y12363*
X37537Y12987*
X38161Y13300*
X38787Y12987*
X39099Y12363*
Y11737*
X38787Y11113*
X38161Y10800*
X37537Y11113*
X37224Y11737*
X40397Y25150D02*
Y27950D01*
X34397*
Y25150*
X40397*
X45000Y26904D02*
X43100D01*
Y22904*
X45000*
Y26904*
X45108Y31864D02*
X43208D01*
Y27864*
X45108*
Y31864*
X45537Y10350D02*
X43637D01*
Y6350*
X45537*
Y10350*
X55424Y16650D02*
X51674D01*
Y19775*
Y22275D02*
Y23525D01*
Y22900D02*
X55424D01*
X54799Y22275*
X51337Y49950D02*
Y48050D01*
X55337*
Y49950*
X51337*
X52512Y37200D02*
X56312D01*
Y46800*
X52512*
Y37200*
Y38700D02*
X55012D01*
X53762Y37450D02*
Y39950D01*
X54587Y36756D02*
X52687D01*
Y32756*
X54587*
Y36756*
X54837Y29250D02*
X56737D01*
Y33250*
X54837*
Y29250*
X54867Y36550D02*
Y33750D01*
X60867*
Y36550*
X54867*
X57237Y28650D02*
Y12650D01*
X50237*
Y28650*
X57237*
X57837Y22050D02*
X60637D01*
Y28050*
X57837*
Y22050*
X60537Y47850D02*
Y49750D01*
X56537*
Y47850*
X60537*
D02*
D17*
X3950Y48368D02*
X4013Y48306D01*
X4138Y48243*
X4325*
X4450Y48306*
X4513Y48368*
X4575Y48493*
Y48743*
X4513Y48868*
X4450Y48931*
X4325Y48993*
X4138*
X4013Y48931*
X3950Y48868*
X3575Y48306D02*
X3450Y48243D01*
X3263*
X3138Y48306*
X3075Y48431*
Y48493*
X3138Y48618*
X3263Y48681*
X3575*
Y48993*
X3075*
X2263Y48243D02*
Y48993D01*
X2575Y48493*
X2075*
X10037Y26037D02*
Y26787D01*
X9599*
X9474Y26725*
X9411Y26600*
X9474Y26475*
X9599Y26413*
X10037*
X9599D02*
X9411Y26037D01*
X8974Y26100D02*
X8849Y26037D01*
X8724*
X8599Y26100*
X8537Y26225*
X8599Y26350*
X8724Y26413*
X8849*
X8724D02*
X8599Y26475D01*
X8537Y26600*
X8599Y26725*
X8724Y26787*
X8849*
X8974Y26725*
X7974Y26100D02*
X7849Y26037D01*
X7724*
X7599Y26100*
X7537Y26225*
X7599Y26350*
X7724Y26413*
X7849*
X7724D02*
X7599Y26475D01*
X7537Y26600*
X7599Y26725*
X7724Y26787*
X7849*
X7974Y26725*
X14549Y32575D02*
X14487Y32513D01*
X14424Y32387*
Y32200*
X14487Y32075*
X14549Y32013*
X14674Y31950*
X14924*
X15049Y32013*
X15112Y32075*
X15174Y32200*
Y32387*
X15112Y32513*
X15049Y32575*
X14424Y33263D02*
X15174D01*
X14674Y32950*
Y33450*
X14487Y34013D02*
X14424Y34137D01*
Y34263*
X14487Y34387*
X14612Y34450*
X14737Y34387*
X14799Y34263*
Y34137*
Y34263D02*
X14862Y34387D01*
X14987Y34450*
X15112Y34387*
X15174Y34263*
Y34137*
X15112Y34013*
X17661Y4399D02*
X17723Y4337D01*
X17848Y4274*
X18036*
X18161Y4337*
X18223Y4399*
X18286Y4524*
Y4774*
X18223Y4899*
X18161Y4962*
X18036Y5024*
X17848*
X17723Y4962*
X17661Y4899*
X16973Y4274D02*
Y5024D01*
X17286Y4524*
X16786*
X16098Y4649D02*
X15973D01*
X15848Y4712*
X15786Y4837*
X15848Y4962*
X15973Y5024*
X16098*
X16223Y4962*
X16286Y4837*
X16223Y4712*
X16098Y4649*
X16223Y4587*
X16286Y4462*
X16223Y4337*
X16098Y4274*
X15973*
X15848Y4337*
X15786Y4462*
X15848Y4587*
X15973Y4649*
X17720Y2163D02*
X17782Y2100D01*
X17907Y2037*
X18095*
X18220Y2100*
X18282Y2163*
X18345Y2287*
Y2537*
X18282Y2663*
X18220Y2725*
X18095Y2787*
X17907*
X17782Y2725*
X17720Y2663*
X17032Y2037D02*
Y2787D01*
X17345Y2287*
X16845*
X16157Y2037D02*
X16032Y2100D01*
X15907Y2225*
X15845Y2413*
Y2600*
X15907Y2725*
X16032Y2787*
X16157*
X16282Y2725*
X16345Y2600*
X16282Y2475*
X16157Y2413*
X16032*
X15907Y2475*
X15845Y2600*
X17349Y32575D02*
X17287Y32513D01*
X17224Y32387*
Y32200*
X17287Y32075*
X17349Y32013*
X17474Y31950*
X17724*
X17849Y32013*
X17912Y32075*
X17974Y32200*
Y32387*
X17912Y32513*
X17849Y32575*
X17224Y33263D02*
X17974D01*
X17474Y32950*
Y33450*
X17224Y34450D02*
Y33950D01*
X17662Y34387*
X17787Y34450*
X17912Y34387*
X17974Y34263*
Y34075*
X17912Y33950*
X17724Y28935D02*
X17787Y28997D01*
X17849Y29122*
Y29310*
X17787Y29435*
X17724Y29497*
X17599Y29560*
X17349*
X17224Y29497*
X17161Y29435*
X17099Y29310*
Y29122*
X17161Y28997*
X17224Y28935*
X17787Y28497D02*
X17849Y28372D01*
Y28247*
X17787Y28122*
X17661Y28060*
X17537Y28122*
X17474Y28247*
Y28372*
Y28247D02*
X17411Y28122D01*
X17287Y28060*
X17161Y28122*
X17099Y28247*
Y28372*
X17161Y28497*
X17661Y27560D02*
X17537Y27497D01*
X17474Y27372*
Y27247*
X17537Y27122*
X17661Y27060*
X17787Y27122*
X17849Y27247*
Y27372*
X17787Y27497*
X17661Y27560*
X17474*
X17287Y27497*
X17161Y27372*
X17099Y27247*
X20424Y28925D02*
X20487Y28987D01*
X20549Y29113*
Y29300*
X20487Y29425*
X20424Y29487*
X20299Y29550*
X20049*
X19924Y29487*
X19861Y29425*
X19799Y29300*
Y29113*
X19861Y28987*
X19924Y28925*
X20487Y28487D02*
X20549Y28363D01*
Y28237*
X20487Y28113*
X20361Y28050*
X20237Y28113*
X20174Y28237*
Y28363*
Y28237D02*
X20111Y28113D01*
X19987Y28050*
X19861Y28113*
X19799Y28237*
Y28363*
X19861Y28487*
X20549Y27550D02*
X19799Y27050D01*
Y27550*
X24895Y41145D02*
X24957Y41083D01*
X25083Y41020*
X25270*
X25395Y41083*
X25457Y41145*
X25520Y41270*
Y41520*
X25457Y41645*
X25395Y41708*
X25270Y41770*
X25083*
X24957Y41708*
X24895Y41645*
X24520Y41083D02*
X24395Y41020D01*
X24207*
X24083Y41083*
X24020Y41208*
Y41270*
X24083Y41395*
X24207Y41458*
X24520*
Y41770*
X24020*
X23520Y41208D02*
X23457Y41333D01*
X23333Y41395*
X23207*
X23083Y41333*
X23020Y41208*
X23083Y41083*
X23207Y41020*
X23333*
X23457Y41083*
X23520Y41208*
Y41395*
X23457Y41583*
X23333Y41708*
X23207Y41770*
X24944Y43694D02*
X25007Y43632D01*
X25132Y43569*
X25319*
X25444Y43632*
X25507Y43694*
X25569Y43819*
Y44069*
X25507Y44194*
X25444Y44257*
X25319Y44319*
X25132*
X25007Y44257*
X24944Y44194*
X24569Y43632D02*
X24444Y43569D01*
X24257*
X24132Y43632*
X24069Y43757*
Y43819*
X24132Y43944*
X24257Y44007*
X24569*
Y44319*
X24069*
X23569Y43632D02*
X23444Y43569D01*
X23257*
X23132Y43632*
X23069Y43757*
Y43819*
X23132Y43944*
X23257Y44007*
X23569*
Y44319*
X23069*
X24062Y36237D02*
X23999Y36300D01*
X23874Y36363*
X23687*
X23562Y36300*
X23499Y36237*
X23437Y36113*
Y35863*
X23499Y35737*
X23562Y35675*
X23687Y35613*
X23874*
X23999Y35675*
X24062Y35737*
X24749Y36363D02*
Y35613D01*
X24437Y36113*
X24937*
X25437Y36175D02*
X25499Y36050D01*
X25624Y35987*
X25749*
X25874Y36050*
X25937Y36175*
X25874Y36300*
X25749Y36363*
X25624*
X25499Y36300*
X25437Y36175*
Y35987*
X25499Y35800*
X25624Y35675*
X25749Y35613*
X31211Y39463D02*
X31274Y39400D01*
X31399Y39337*
X31587*
X31711Y39400*
X31774Y39463*
X31837Y39587*
Y39837*
X31774Y39963*
X31711Y40025*
X31587Y40087*
X31399*
X31274Y40025*
X31211Y39963*
X30524Y39337D02*
Y40087D01*
X30837Y39587*
X30337*
X29837Y39337D02*
X29337Y40087D01*
X29837*
X31124Y2309D02*
X31874D01*
Y2746*
X31812Y2872*
X31687Y2934*
X31562Y2872*
X31499Y2746*
Y2309*
Y2746D02*
X31124Y2934D01*
Y3622D02*
X31874D01*
X31374Y3309*
Y3809*
X31187Y4372D02*
X31124Y4496D01*
Y4622*
X31187Y4746*
X31312Y4809*
X31437Y4746*
X31499Y4622*
Y4496*
Y4622D02*
X31562Y4746D01*
X31687Y4809*
X31812Y4746*
X31874Y4622*
Y4496*
X31812Y4372*
X33124Y46725D02*
X33187Y46787D01*
X33249Y46913*
Y47100*
X33187Y47225*
X33124Y47287*
X32999Y47350*
X32749*
X32624Y47287*
X32561Y47225*
X32499Y47100*
Y46913*
X32561Y46787*
X32624Y46725*
X33249Y45850D02*
Y46350D01*
X32811Y45913*
X32687Y45850*
X32561Y45913*
X32499Y46037*
Y46225*
X32561Y46350*
X33187Y45287D02*
X33249Y45163D01*
Y45037*
X33187Y44913*
X33061Y44850*
X32937Y44913*
X32874Y45037*
Y45163*
Y45037D02*
X32811Y44913D01*
X32687Y44850*
X32561Y44913*
X32499Y45037*
Y45163*
X32561Y45287*
X34224Y4544D02*
X34287Y4607D01*
X34349Y4732*
Y4920*
X34287Y5044*
X34224Y5107*
X34099Y5170*
X33849*
X33724Y5107*
X33661Y5044*
X33599Y4920*
Y4732*
X33661Y4607*
X33724Y4544*
X34287Y4170D02*
X34349Y4044D01*
Y3857*
X34287Y3732*
X34161Y3670*
X34099*
X33974Y3732*
X33911Y3857*
Y4170*
X33599*
Y3670*
X34349Y2982D02*
X34287Y2857D01*
X34161Y2732*
X33974Y2670*
X33787*
X33661Y2732*
X33599Y2857*
Y2982*
X33661Y3107*
X33787Y3170*
X33911Y3107*
X33974Y2982*
Y2857*
X33911Y2732*
X33787Y2670*
X34549Y42150D02*
X33799D01*
Y41713*
X33861Y41587*
X33987Y41525*
X34111Y41587*
X34174Y41713*
Y42150*
Y41713D02*
X34549Y41525D01*
Y41025D02*
Y40775D01*
Y40900D02*
X33799D01*
X33924Y41025*
X34549Y40025D02*
Y39775D01*
Y39900D02*
X33799D01*
X33924Y40025*
X35962Y30637D02*
X35899Y30700D01*
X35774Y30763*
X35587*
X35462Y30700*
X35399Y30637*
X35337Y30513*
Y30263*
X35399Y30137*
X35462Y30075*
X35587Y30013*
X35774*
X35899Y30075*
X35962Y30137*
X36837Y30763D02*
X36337D01*
X36774Y30325*
X36837Y30200*
X36774Y30075*
X36649Y30013*
X36462*
X36337Y30075*
X37337Y30763D02*
X37837Y30013D01*
X37337*
X43687Y23504D02*
X44437D01*
Y23941*
X44375Y24066*
X44250Y24129*
X44125Y24066*
X44063Y23941*
Y23504*
Y23941D02*
X43687Y24129D01*
Y24629D02*
Y24879D01*
Y24754D02*
X44437D01*
X44313Y24629*
X43750Y25566D02*
X43687Y25691D01*
Y25816*
X43750Y25941*
X43875Y26004*
X44000Y25941*
X44063Y25816*
Y25691*
Y25816D02*
X44125Y25941D01*
X44250Y26004*
X44375Y25941*
X44437Y25816*
Y25691*
X44375Y25566*
X43921Y29089D02*
X43858Y29027D01*
X43796Y28902*
Y28714*
X43858Y28589*
X43921Y28527*
X44046Y28464*
X44296*
X44421Y28527*
X44483Y28589*
X44546Y28714*
Y28902*
X44483Y29027*
X44421Y29089*
X43796Y29964D02*
Y29464D01*
X44233Y29902*
X44358Y29964*
X44483Y29902*
X44546Y29777*
Y29589*
X44483Y29464*
X43858Y30464D02*
X43796Y30589D01*
Y30777*
X43858Y30902*
X43983Y30964*
X44046*
X44171Y30902*
X44233Y30777*
Y30464*
X44546*
Y30964*
X44225Y7450D02*
X44975D01*
Y7887*
X44913Y8013*
X44787Y8075*
X44663Y8013*
X44600Y7887*
Y7450*
Y7887D02*
X44225Y8075D01*
Y8763D02*
X44975D01*
X44475Y8450*
Y8950*
X53399Y33981D02*
X53337Y33919D01*
X53274Y33793*
Y33606*
X53337Y33481*
X53399Y33419*
X53524Y33356*
X53774*
X53899Y33419*
X53962Y33481*
X54024Y33606*
Y33793*
X53962Y33919*
X53899Y33981*
X53274Y34856D02*
Y34356D01*
X53712Y34793*
X53837Y34856*
X53962Y34793*
X54024Y34669*
Y34481*
X53962Y34356*
X53462Y35356D02*
X53587Y35419D01*
X53649Y35543*
Y35669*
X53587Y35793*
X53462Y35856*
X53337Y35793*
X53274Y35669*
Y35543*
X53337Y35419*
X53462Y35356*
X53649*
X53837Y35419*
X53962Y35543*
X54024Y35669*
X54737Y48637D02*
Y49387D01*
X54299*
X54174Y49325*
X54111Y49200*
X54174Y49075*
X54299Y49013*
X54737*
X54299D02*
X54111Y48637D01*
X53611D02*
X53361D01*
X53487D02*
Y49387D01*
X53611Y49263*
X52237Y48637D02*
X52737D01*
X52299Y49075*
X52237Y49200*
X52299Y49325*
X52424Y49387*
X52611*
X52737Y49325*
X56149Y32150D02*
X55399D01*
Y31713*
X55461Y31587*
X55587Y31525*
X55711Y31587*
X55774Y31713*
Y32150*
Y31713D02*
X56149Y31525D01*
Y31150D02*
X55399Y30650D01*
Y31150*
X57762Y49037D02*
X57699Y49100D01*
X57574Y49163*
X57387*
X57262Y49100*
X57199Y49037*
X57137Y48913*
Y48663*
X57199Y48537*
X57262Y48475*
X57387Y48413*
X57574*
X57699Y48475*
X57762Y48537*
X58637Y49163D02*
X58137D01*
X58574Y48725*
X58637Y48600*
X58574Y48475*
X58449Y48413*
X58262*
X58137Y48475*
X59449Y49163D02*
Y48413D01*
X59137Y48913*
X59637*
D02*
D26*
X6556Y10600D02*
X5430D01*
Y9944*
X5524Y9756*
X5711Y9663*
X5899Y9756*
X5993Y9944*
Y10600*
Y9944D02*
X6556Y9663D01*
X6461Y9006D02*
X6556Y8819D01*
Y8631*
X6461Y8444*
X6274Y8350*
X6087Y8444*
X5993Y8631*
Y8819*
Y8631D02*
X5899Y8444D01*
X5711Y8350*
X5524Y8444*
X5430Y8631*
Y8819*
X5524Y9006*
X6556Y6850D02*
Y7600D01*
X5899Y6944*
X5711Y6850*
X5524Y6944*
X5430Y7131*
Y7413*
X5524Y7600*
X9956Y10600D02*
X8830D01*
Y9944*
X8924Y9756*
X9111Y9663*
X9299Y9756*
X9393Y9944*
Y10600*
Y9944D02*
X9956Y9663D01*
Y8350D02*
Y9100D01*
X9299Y8444*
X9111Y8350*
X8924Y8444*
X8830Y8631*
Y8913*
X8924Y9100*
X9956Y7319D02*
X9861Y7131D01*
X9674Y6944*
X9393Y6850*
X9111*
X8924Y6944*
X8830Y7131*
Y7319*
X8924Y7506*
X9111Y7600*
X9299Y7506*
X9393Y7319*
Y7131*
X9299Y6944*
X9111Y6850*
X35447Y27069D02*
Y25944D01*
X36104*
X36291Y26037*
X36385Y26225*
X36291Y26413*
X36104Y26506*
X35447*
X36104D02*
X36385Y27069D01*
X37041Y26975D02*
X37228Y27069D01*
X37416*
X37604Y26975*
X37697Y26787*
X37604Y26600*
X37416Y26506*
X37228*
X37416D02*
X37604Y26413D01*
X37697Y26225*
X37604Y26037*
X37416Y25944*
X37228*
X37041Y26037*
X38541Y26975D02*
X38728Y27069D01*
X38916*
X39104Y26975*
X39197Y26787*
Y26225*
X39104Y26037*
X38916Y25944*
X38728*
X38541Y26037*
X38447Y26225*
Y26787*
X38541Y26975*
X39104Y26037*
X59817Y34631D02*
Y35756D01*
X59160*
X58973Y35663*
X58879Y35475*
X58973Y35287*
X59160Y35194*
X59817*
X59160D02*
X58879Y34631D01*
X58223Y34725D02*
X58035Y34631D01*
X57848*
X57660Y34725*
X57567Y34913*
X57660Y35100*
X57848Y35194*
X58035*
X57848D02*
X57660Y35287D01*
X57567Y35475*
X57660Y35663*
X57848Y35756*
X58035*
X58223Y35663*
X56629Y34631D02*
X56254D01*
X56441D02*
Y35756D01*
X56629Y35569*
X59568Y26063D02*
X59661Y26156D01*
X59756Y26344*
Y26625*
X59661Y26813*
X59568Y26906*
X59380Y27000*
X59006*
X58818Y26906*
X58724Y26813*
X58630Y26625*
Y26344*
X58724Y26156*
X58818Y26063*
X59756Y25500D02*
X58630Y24750D01*
Y25500*
X59756Y23531D02*
X58630D01*
X59380Y24000*
Y23250*
D02*
D96*
X1947Y15650D02*
X1791Y15493D01*
X1635Y15181*
Y14712*
X1791Y14400*
X1947Y14243*
X2260Y14087*
X2885*
X3197Y14243*
X3354Y14400*
X3510Y14712*
Y15181*
X3354Y15493*
X3197Y15650*
X1635Y17056D02*
X1791Y17368D01*
X2104Y17681*
X2572Y17837*
X3041*
X3354Y17681*
X3510Y17368*
Y17056*
X3354Y16743*
X3041Y16587*
X2729Y16743*
X2572Y17056*
Y17368*
X2729Y17681*
X3041Y17837*
X2376Y21996D02*
X4250D01*
Y23559*
X3313Y23246D02*
Y21996D01*
X2376Y24496D02*
X4250D01*
Y26059*
X3313Y25746D02*
Y24496D01*
X2376D02*
Y26059D01*
Y26996D02*
X4250D01*
Y28090*
X4094Y28402*
X3782Y28559*
X3469Y28402*
X3313Y28090*
Y26996*
Y28090D02*
X2376Y28559D01*
Y29496D02*
X4250D01*
Y30590*
X4094Y30902*
X3782Y31059*
X3469Y30902*
X3313Y30590*
Y29496*
Y30590D02*
X2376Y31059D01*
Y32309D02*
Y32933D01*
Y32621D02*
X4250D01*
X3938Y32309*
X4261Y38706D02*
X2386D01*
Y40269*
Y42456D02*
Y41206D01*
X3480Y42300*
X3792Y42456*
X4104Y42300*
X4261Y41987*
Y41519*
X4104Y41206*
X9156Y34327D02*
X9311Y34483D01*
X9468Y34796*
Y35264*
X9311Y35577*
X9156Y35733*
X8843Y35889*
X8218*
X7906Y35733*
X7749Y35577*
X7593Y35264*
Y34796*
X7749Y34483*
X7906Y34327*
X9311Y33389D02*
X9468Y33077D01*
Y32608*
X9311Y32296*
X8999Y32139*
X8843*
X8530Y32296*
X8374Y32608*
Y33389*
X7593*
Y32139*
X7949Y3969D02*
X7793Y4125D01*
X7480Y4281*
X7012*
X6699Y4125*
X6543Y3969*
X6387Y3656*
Y3031*
X6543Y2719*
X6699Y2563*
X7012Y2406*
X7480*
X7793Y2563*
X7949Y2719*
X9199Y4281D02*
X9824D01*
X9512D02*
Y2406D01*
X9199Y2719*
X11543Y4125D02*
X11856Y4281D01*
X12168*
X12480Y4125*
X12637Y3813*
Y2875*
X12480Y2563*
X12168Y2406*
X11856*
X11543Y2563*
X11387Y2875*
Y3813*
X11543Y4125*
X12480Y2563*
X23349Y4369D02*
X23193Y4525D01*
X22880Y4681*
X22412*
X22099Y4525*
X21943Y4369*
X21787Y4056*
Y3431*
X21943Y3119*
X22099Y2963*
X22412Y2806*
X22880*
X23193Y2963*
X23349Y3119*
X24287Y4525D02*
X24599Y4681D01*
X25068*
X25380Y4525*
X25537Y4213*
Y4056*
X25380Y3744*
X25068Y3587*
X24287*
Y2806*
X25537*
X27256Y3744D02*
X27568D01*
X27880Y3587*
X28037Y3275*
X27880Y2963*
X27568Y2806*
X27256*
X26943Y2963*
X26787Y3275*
X26943Y3587*
X27256Y3744*
X26943Y3900*
X26787Y4213*
X26943Y4525*
X27256Y4681*
X27568*
X27880Y4525*
X28037Y4213*
X27880Y3900*
X27568Y3744*
X27100Y17230D02*
X26944Y17074D01*
X26788Y16761*
Y16293*
X26944Y15980*
X27100Y15824*
X27413Y15667*
X28038*
X28350Y15824*
X28506Y15980*
X28663Y16293*
Y16761*
X28506Y17074*
X28350Y17230*
X26788Y18948D02*
X28663D01*
X27413Y18167*
Y19417*
X31244Y23363D02*
X31088Y23206D01*
X30931Y22894*
Y22425*
X31088Y22113*
X31244Y21956*
X31556Y21800*
X32181*
X32494Y21956*
X32650Y22113*
X32806Y22425*
Y22894*
X32650Y23206*
X32494Y23363*
X30931Y25550D02*
Y24300D01*
X32025Y25394*
X32338Y25550*
X32650Y25394*
X32806Y25081*
Y24613*
X32650Y24300*
X30931Y27269D02*
X31088Y27581D01*
X31400Y27894*
X31869Y28050*
X32338*
X32650Y27894*
X32806Y27581*
Y27269*
X32650Y26956*
X32338Y26800*
X32025Y26956*
X31869Y27269*
Y27581*
X32025Y27894*
X32338Y28050*
X42224Y3031D02*
X42380Y2875D01*
X42693Y2719*
X43161*
X43474Y2875*
X43630Y3031*
X43787Y3344*
Y3969*
X43630Y4281*
X43474Y4437*
X43161Y4594*
X42693*
X42380Y4437*
X42224Y4281*
X41287Y2875D02*
X40974Y2719D01*
X40506*
X40193Y2875*
X40037Y3187*
Y3344*
X40193Y3656*
X40506Y3813*
X41287*
Y4594*
X40037*
X38787Y2719D02*
X37537Y4594D01*
X38787*
X55231Y43637D02*
X55387Y43794D01*
X55543Y44106*
Y44575*
X55387Y44887*
X55231Y45044*
X54918Y45200*
X54293*
X53981Y45044*
X53824Y44887*
X53668Y44575*
Y44106*
X53824Y43794*
X53981Y43637*
X55543Y41450D02*
Y42700D01*
X54449Y41606*
X54137Y41450*
X53824Y41606*
X53668Y41919*
Y42387*
X53824Y42700*
X55543Y39887D02*
Y39263D01*
Y39575D02*
X53668D01*
X53981Y39887*
X58118Y40263D02*
X57962Y40106D01*
X57806Y39794*
Y39325*
X57962Y39013*
X58118Y38856*
X58430Y38700*
X59056*
X59368Y38856*
X59524Y39013*
X59680Y39325*
Y39794*
X59524Y40106*
X59368Y40263*
X57806Y42450D02*
Y41200D01*
X58899Y42294*
X59212Y42450*
X59524Y42294*
X59680Y41981*
Y41513*
X59524Y41200*
X57806Y44950D02*
Y43700D01*
X58899Y44794*
X59212Y44950*
X59524Y44794*
X59680Y44481*
Y44013*
X59524Y43700*
D02*
D124*
X41320Y43426D02*
X43534D01*
X44026Y43180*
X44272Y42687*
Y41703*
X44026Y41211*
X43534Y40965*
X41320*
X44026Y39489D02*
X44272Y38996D01*
Y38258*
X44026Y37766*
X43534Y37520*
X43288*
X42796Y37766*
X42550Y38258*
Y39489*
X41320*
Y37520*
D02*
D125*
X21089Y19828D02*
Y17835D01*
X20867Y17392*
X20424Y17170*
X19538*
X19095Y17392*
X18874Y17835*
Y19828*
X16881Y18499D02*
X16438D01*
X15995Y18720*
X15774Y19163*
X15995Y19606*
X16438Y19828*
X16881*
X17324Y19606*
X17545Y19163*
X17324Y18720*
X16881Y18499*
X17324Y18278*
X17545Y17835*
X17324Y17392*
X16881Y17170*
X16438*
X15995Y17392*
X15774Y17835*
X15995Y18278*
X16438Y18499*
D02*
D126*
X20337Y39768D02*
Y40260D01*
X20213Y40506*
X20091Y40629*
X19844Y40752*
X19598*
X19352Y40629*
X19229Y40506*
X19106Y40260*
Y39768*
X19229Y39522*
X19352Y39399*
X19598Y39276*
X19844*
X20091Y39399*
X20213Y39522*
X20337Y39768*
X18368Y39645D02*
X18245Y39399D01*
X17999Y39276*
X17507*
X17261Y39399*
X17138Y39645*
X17261Y39891*
X17507Y40014*
X17999*
X18245Y40137*
X18368Y40383*
X18245Y40629*
X17999Y40752*
X17507*
X17261Y40629*
X17138Y40383*
X15169Y39522D02*
X15292Y39399D01*
X15538Y39276*
X15907*
X16154Y39399*
X16276Y39522*
X16400Y39768*
Y40260*
X16276Y40506*
X16154Y40629*
X15907Y40752*
X15538*
X15292Y40629*
X15169Y40506*
X14185Y39276D02*
X13693D01*
X13939D02*
Y40752D01*
X14185Y40506*
X0Y0D02*
M02*
