%FSLAX35Y35*%
%MOIN*%
G04 EasyPC Gerber Version 18.0.9 Build 3640 *
%ADD118R,0.01584X0.03356*%
%ADD23R,0.01600X0.01600*%
%ADD120R,0.02400X0.02600*%
%ADD117R,0.03400X0.04100*%
%ADD103R,0.04537X0.04891*%
%ADD116R,0.06100X0.06600*%
%ADD115R,0.06899X0.13592*%
%ADD114R,0.03356X0.01584*%
%ADD21R,0.01600X0.01600*%
%ADD122R,0.02600X0.02000*%
%ADD22R,0.02600X0.02400*%
%ADD25C,0.03400*%
%ADD121R,0.02962X0.02569*%
%ADD98R,0.04100X0.03400*%
%ADD119R,0.09970X0.07096*%
X0Y0D02*
D02*
D21*
X2075Y48556D03*
X4375D03*
X7537Y26350D03*
X9837D03*
X15786Y4587D03*
X15845Y2350D03*
X18086Y4587D03*
X18145Y2350D03*
X23020Y41333D03*
X23069Y43882D03*
X23637Y36050D03*
X25320Y41333D03*
X25369Y43882D03*
X25937Y36050D03*
X29337Y39650D03*
X31637D03*
X35537Y30450D03*
X37837D03*
X52237Y48950D03*
X54537D03*
X57337Y48850D03*
X59637D03*
D02*
D22*
X35897Y26550D03*
X38897D03*
X56367Y35150D03*
X59367D03*
D02*
D23*
X14737Y32150D03*
Y34450D03*
X17537Y27060D03*
Y29360D03*
Y32150D03*
Y34450D03*
X20237Y27050D03*
Y29350D03*
X31437Y2509D03*
Y4809D03*
X32937Y44850D03*
Y47150D03*
X34037Y2670D03*
Y4970D03*
X34237Y39650D03*
Y41950D03*
X44000Y23704D03*
Y26004D03*
X44108Y28664D03*
Y30964D03*
X44537Y7150D03*
Y9450D03*
X53587Y33556D03*
Y35856D03*
X55837Y30150D03*
Y32450D03*
D02*
D25*
X2750Y2750D03*
Y7750D03*
X7250Y43250D03*
Y47750D03*
X11750D03*
X12250Y7750D03*
X16234Y47750D03*
X16750Y7789D03*
X20750Y47750D03*
X21250Y7750D03*
X25280Y47750D03*
X25750Y7750D03*
X29750Y47750D03*
X30250Y7770D03*
X34797D03*
X39250Y7750D03*
X46750Y2750D03*
X47228Y7750D03*
X47248Y30250D03*
X47250Y16750D03*
Y21250D03*
Y25750D03*
X47258Y12250D03*
X50750Y2750D03*
X54750Y2720D03*
Y7250D03*
X58750Y2750D03*
Y7250D03*
X58764Y11750D03*
X59250Y15427D03*
X59295Y20093D03*
D02*
D98*
X7087Y3250D03*
X12187D03*
X22487Y3650D03*
X27587D03*
X37987Y3750D03*
X43087D03*
D02*
D103*
X3157Y24246D03*
Y31246D03*
X3167Y37206D03*
Y44206D03*
X8137Y14850D03*
Y21850D03*
X37037Y14050D03*
Y21050D03*
D02*
D114*
X37530Y34370D03*
Y36339D03*
Y38307D03*
Y40276D03*
Y42244D03*
Y44213D03*
Y46181D03*
X48554Y34370D03*
Y36339D03*
Y38307D03*
Y40276D03*
Y42244D03*
Y44213D03*
Y46181D03*
D02*
D115*
X43042Y40276D03*
D02*
D116*
X53737Y16150D03*
Y25150D03*
D02*
D117*
X2666Y13537D03*
Y18637D03*
X8437Y31339D03*
Y36439D03*
X27819Y15117D03*
Y20217D03*
X31963Y22500D03*
Y27600D03*
X54512Y39400D03*
Y44500D03*
X58837Y39400D03*
Y44500D03*
D02*
D118*
X15478Y12667D03*
Y24478D03*
X17447Y12667D03*
Y24478D03*
X19415Y12667D03*
Y24478D03*
X21384Y12667D03*
Y24478D03*
D02*
D119*
X18431Y18573D03*
D02*
D120*
X6037Y7150D03*
Y10150D03*
X9437Y7150D03*
Y10150D03*
X59237Y23550D03*
Y26550D03*
D02*
D121*
X14431Y37726D03*
Y42056D03*
X19549Y37726D03*
Y42056D03*
D02*
D122*
X59652Y31132D03*
X59681Y32953D03*
X0Y0D02*
M02*
