%FSLAX35Y35*%
%MOIN*%
G04 EasyPC Gerber Version 18.0.9 Build 3640 *
%ADD17C,0.00100*%
%ADD86C,0.00197*%
%ADD87C,0.00276*%
%ADD10C,0.00500*%
%ADD16C,0.00600*%
%ADD85C,0.00700*%
X0Y0D02*
D02*
D10*
X2907Y36305D02*
Y38205D01*
X6907*
Y36305*
X2907*
X3783Y2179D02*
X48980D01*
Y30368*
X3783*
Y2179*
X7073Y21596D02*
X1773D01*
Y33896*
X7073*
Y21596*
X7278Y47313D02*
X46648D01*
Y7943*
X7278*
Y47313*
X8656Y21919D02*
X8459D01*
X8852Y21821D02*
Y21526D01*
X8951*
Y21919D02*
Y21427D01*
X9049*
X9173Y29996D02*
Y32496D01*
X9344Y21919D02*
Y21427D01*
X9246*
X9437Y18550D02*
Y16650D01*
X5437*
Y18550*
X9437*
X9443Y21821D02*
Y21526D01*
X9344*
X9537Y16050D02*
Y14150D01*
X5537*
Y16050*
X9537*
X9640Y21919D02*
X9837D01*
X10423Y23996D02*
X7923D01*
X10423Y31246D02*
X7923D01*
X11215Y43376D02*
X42711D01*
Y11880*
X11215*
Y43376*
X31785Y44852D02*
Y44656D01*
Y45148D02*
X32278D01*
Y45246*
X31785Y45541D02*
X32278D01*
Y45443*
X31785Y45837D02*
Y46033D01*
X31884Y45049D02*
X32179D01*
Y45148*
X31884Y45640D02*
X32179D01*
Y45541*
X44985Y34331D02*
Y39449D01*
X48518*
Y34331*
X44985*
X48664Y50426D02*
Y45126D01*
X36364*
Y50426*
X48664*
X49157Y39961D02*
X60850D01*
Y33346*
X49157*
Y39961*
X49266Y26850D02*
Y28750D01*
X53266*
Y26850*
X49266*
X52886Y6450D02*
Y4550D01*
X48886*
Y6450*
X52886*
X52937Y9750D02*
Y7850D01*
X48937*
Y9750*
X52937*
X53267Y12850D02*
Y10950D01*
X49267*
Y12850*
X53267*
X54237Y14550D02*
X56137D01*
Y10550*
X54237*
Y14550*
X58002Y48209D02*
X59902D01*
Y44209*
X58002*
Y48209*
X59610Y29285D02*
Y26785D01*
X60660Y26185D02*
Y22385D01*
X51060*
Y26185*
X60660*
X60860Y28035D02*
X58360D01*
D02*
D16*
X3114Y3037D02*
X7114D01*
X5114Y1037D02*
Y5037D01*
X4959Y7539D02*
Y11539D01*
X55368Y21197D02*
X59368D01*
X57368Y19197D02*
Y23197D01*
X57429Y12825D02*
Y16825D01*
D02*
D17*
X8656Y9002D02*
X9437Y10877D01*
X10218Y9002*
X8968Y9783D02*
X9906D01*
X12249D02*
X12718D01*
Y9627*
X12562Y9315*
X12406Y9159*
X12093Y9002*
X11781*
X11468Y9159*
X11312Y9315*
X11156Y9627*
Y10252*
X11312Y10565*
X11468Y10721*
X11781Y10877*
X12093*
X12406Y10721*
X12562Y10565*
X12718Y10252*
X13656Y10877D02*
Y9002D01*
X15218*
X16937D02*
Y10877D01*
X16156Y9627*
X17406*
X18812Y9159D02*
X19124Y9002D01*
X19437*
X19749Y9159*
X19906Y9471*
Y10409*
X19749Y10721*
X19437Y10877*
X19124*
X18812Y10721*
X18656Y10409*
Y9471*
X18812Y9159*
X19749Y10721*
X21312Y9159D02*
X21624Y9002D01*
X21937*
X22249Y9159*
X22406Y9471*
Y10409*
X22249Y10721*
X21937Y10877*
X21624*
X21312Y10721*
X21156Y10409*
Y9471*
X21312Y9159*
X22249Y10721*
X23656Y10877D02*
X24437Y9002D01*
X25218Y10877*
X26156Y9159D02*
X26468Y9002D01*
X26937*
X27249Y9159*
X27406Y9471*
Y9627*
X27249Y9940*
X26937Y10096*
X26156*
Y10877*
X27406*
X28656Y9627D02*
X29906D01*
X32718Y9315D02*
X32562Y9159D01*
X32249Y9002*
X31781*
X31468Y9159*
X31312Y9315*
X31156Y9627*
Y10252*
X31312Y10565*
X31468Y10721*
X31781Y10877*
X32249*
X32562Y10721*
X32718Y10565*
X33656Y9471D02*
X33812Y9159D01*
X34124Y9002*
X34749*
X35062Y9159*
X35218Y9471*
X35062Y9783*
X34749Y9940*
X34124*
X33812Y10096*
X33656Y10409*
X33812Y10721*
X34124Y10877*
X34749*
X35062Y10721*
X35218Y10409*
X37249Y9783D02*
X37718D01*
Y9627*
X37562Y9315*
X37406Y9159*
X37093Y9002*
X36781*
X36468Y9159*
X36312Y9315*
X36156Y9627*
Y10252*
X36312Y10565*
X36468Y10721*
X36781Y10877*
X37093*
X37406Y10721*
X37562Y10565*
X37718Y10252*
X38968Y9002D02*
X39593D01*
X39281D02*
Y10877D01*
X38968Y10565*
X41624Y9002D02*
X41937Y9159D01*
X42249Y9471*
X42406Y9940*
Y10409*
X42249Y10721*
X41937Y10877*
X41624*
X41312Y10721*
X41156Y10409*
X41312Y10096*
X41624Y9940*
X41937*
X42249Y10096*
X42406Y10409*
X43656Y9471D02*
X43812Y9783D01*
X44124Y9940*
X44437*
X44749Y9783*
X44906Y9471*
X44749Y9159*
X44437Y9002*
X44124*
X43812Y9159*
X43656Y9471*
Y9940*
X43812Y10409*
X44124Y10721*
X44437Y10877*
D02*
D85*
X9481Y2785D02*
X7231D01*
Y4098*
X7418Y4473*
X7793Y4661*
X8168Y4473*
X8356Y4098*
Y2785*
X7231Y5785D02*
X9481Y5973D01*
X8356Y6723*
X9481Y7473*
X7231Y7661*
X9481Y8785D02*
X7231D01*
Y10098*
X7418Y10473*
X7793Y10661*
X8168Y10473*
X8356Y10098*
Y8785*
Y10098D02*
X9481Y10661D01*
X52526Y13789D02*
X54776D01*
Y15665*
Y16789D02*
X52526D01*
Y18665*
X53651Y18289D02*
Y16789D01*
X54776D02*
Y18665D01*
Y19789D02*
X52526D01*
Y20915*
X52713Y21289*
X52901Y21477*
X53276Y21665*
X54026*
X54401Y21477*
X54589Y21289*
X54776Y20915*
Y19789*
D02*
D86*
X9148Y21033D02*
Y22116D01*
X8262*
Y21919*
X9148Y21033*
Y22116*
X10033*
Y21919*
X9148Y21033*
Y37963D02*
Y21132D01*
Y37963D02*
Y21132D01*
X15742Y45344D02*
X32573D01*
X15742D02*
X32573D01*
X32671D02*
X31589D01*
Y44459*
X31785*
X32671Y45344*
X31589*
Y46230*
X31785*
X32671Y45344*
D02*
D87*
X8262Y39416D02*
X9043Y41291D01*
X9824Y39416*
X8574Y40197D02*
X9512D01*
X13594Y44534D02*
X14219D01*
X13907D02*
Y46409D01*
X13594Y46096*
X0Y0D02*
M02*
