/* XPM */
static char *neuralmapper_icon[] = {
"16 16 94 2",
"AA	c #FFFFFF",
"BA	c #F9F9F9",
"CA	c #DEDFE1",
"DA	c #E2E2E4",
"EA	c #F1F1F2",
"FA	c #C9CACE",
"GA	c #464C62",
"HA	c #6D717F",
"IA	c #EAEAEC",
"JA	c #DDDEE1",
"KA	c #D1D2D5",
"LA	c #FCFCFC",
"MA	c #C6C7CC",
"NA	c #00002B",
"OA	c #000033",
"PA	c #E1E2E4",
"QA	c #EDEEEF",
"RA	c #CACBCF",
"SA	c #EEEFF0",
"TA	c #484D63",
"UA	c #000037",
"VA	c #242E4D",
"WA	c #8E909A",
"XA	c #898C96",
"YA	c #D9DADD",
"ZA	c #DEDEE1",
"aA	c #DFE0E2",
"bA	c #898B96",
"cA	c #828590",
"dA	c #142147",
"eA	c #051440",
"fA	c #1E294B",
"gA	c #BCBDC2",
"hA	c #D7D8DB",
"iA	c #F8F8F8",
"jA	c #9497A1",
"kA	c #7A7D8A",
"lA	c #D6D6D9",
"mA	c #AAACB3",
"nA	c #3C425C",
"oA	c #A3A4AC",
"pA	c #B7B8BE",
"qA	c #000034",
"rA	c #000030",
"sA	c #FEFEFE",
"tA	c #F8F8F9",
"uA	c #C0C1C6",
"vA	c #AEB0B6",
"wA	c #444A61",
"xA	c #8C8F99",
"yA	c #717483",
"zA	c #5F6374",
"0A	c #F3F3F4",
"1A	c #E9EAEB",
"2A	c #646777",
"3A	c #D2D3D6",
"4A	c #EFEFF0",
"5A	c #DDDEE0",
"6A	c #80838E",
"7A	c #283251",
"8A	c #F2F2F3",
"9A	c #93959E",
"+A	c #B6B7BD",
"/A	c #BCBDC3",
"AB	c #CDCED2",
"BB	c #E9E9EB",
"CB	c #FDFDFD",
"DB	c #333B56",
"EB	c #7D808C",
"FB	c #EBEBEC",
"GB	c #D7D7DA",
"HB	c #54586C",
"IB	c #696D7C",
"JB	c #D6D7DA",
"KB	c #B1B3B9",
"LB	c #E6E6E8",
"MB	c #747785",
"NB	c #3E445D",
"OB	c #FBFBFC",
"PB	c #ADAFB5",
"QB	c #242E4E",
"RB	c #9FA1A9",
"SB	c #EBECED",
"TB	c #FAFAFB",
"UB	c #ABACB3",
"VB	c #1B274A",
"WB	c #9B9DA5",
"XB	c #F5F6F6",
"YB	c #E8E8EA",
"ZB	c #767986",
"aB	c #565B6E",
"bB	c #626777",
"cB	c #606475",
"dB	c #BFC0C6",
"AAAAAAAAAAAAAAAAAAAAAAAAAAAAAAAA",
"AAAAAAAAAAAAAAAAAAAAAAAAAAAAAAAA",
"AAAAAAAAAAAABACADAEAAAAAAAAAAAAA",
"AAAAAAAAAAFAGAHAIAJAKALAAAAAAAAA",
"AAAAAAAAMANAOAPAAAAAQARAAAAAAAAA",
"AAAAAASATAUAVAWAXAAAAAYAZAAAAAAA",
"AAaAbAcAdAeAfAgAhAAAAAiAjAkAlAAA",
"mAnAoApAqArAGAsAAAAAAAtAuAvAwAxA",
"yAzA0A1ArA2A3ALAAAAAAA4A5ALA6A7A",
"8A9AfA+A3A/AABBBAAsAAACBuADBEBFB",
"AAAAGBHBIBJBKBFAAAAALBMBNBFAAAAA",
"AAAAAAOBPBQBRBSBTBUBVBWBXBAAAAAA",
"AAAAAAAAAAYBZBaBbBcBZAAAAAAAAAAA",
"AAAAAAAAAAAAAAFAdBCBAAAAAAAAAAAA",
"AAAAAAAAAAAAAAAAAAAAAAAAAAAAAAAA",
"AAAAAAAAAAAAAAAAAAAAAAAAAAAAAAAA"
};
